<?xml version="1.0" standalone="no"?>
<!DOCTYPE svg PUBLIC "-//W3C//DTD SVG 1.1//EN" "http://www.w3.org/Graphics/SVG/1.1/DTD/svg11.dtd" >
<svg xmlns="http://www.w3.org/2000/svg" xmlns:xlink="http://www.w3.org/1999/xlink" version="1.1">
<metadata></metadata>
<defs>
<font id="rio_orobold_italic" horiz-adv-x="1000" >
<font-face units-per-em="2048" ascent="1638" descent="-410" />
<missing-glyph horiz-adv-x="500" />
<glyph unicode="&#xd;" horiz-adv-x="100" />
<glyph horiz-adv-x="100" />
<glyph horiz-adv-x="100" />
<glyph unicode=" " />
<glyph unicode="!" horiz-adv-x="500" d="M100 95q0 38 12 80q22 82 76 146t115 64t81 -64q10 -30 10 -65q0 -38 -12 -81q-22 -81 -76 -145.5t-115 -64.5t-81 65q-10 30 -10 65zM137 800q163 72 170 100l67 250q3 10 3 18q0 47 -86 47l112 420h135q64 0 91 -36q44 36 109 36h135l-112 -420q-99 0 -117 -65 l-67 -250v-3q0 -29 116 -97q-162 -72 -169 -100l-41 -150q-36 -135 -172 -135q-107 0 -107 84q0 23 8 51l41 150v3q0 29 -116 97z" />
<glyph unicode="&#x22;" horiz-adv-x="550" d="M296 1097q40 34 52 48q35 42 43 70q-26 0 -46 65q-10 30 -10 65q0 38 12 80q22 82 76 146t115 64t81 -64q9 -28 9 -60v-6q19 35 45 66q54 64 115 64t81 -64q10 -30 10 -65q0 -38 -12 -81l-47 -175q-22 -81 -76 -145.5t-115 -64.5q-43 0 -83 57q40 34 52 48q35 42 43 70 q-26 0 -46 65q-5 17 -8 35l-17 -65q-22 -81 -76 -145.5t-115 -64.5q-43 0 -83 57z" />
<glyph unicode="#" horiz-adv-x="1200" d="M69 550q163 73 171 102l22 85h170l-13 -50l31 -1l61 229h-32l-14 -50h-168l23 85v3q0 29 -117 95q162 73 170 102l23 85h170l-13 -50h30l57 214q36 135 171 135q107 0 107 -84q0 -23 -8 -51l-57 -214h30l57 215q36 135 171 135q107 0 107 -84q0 -23 -8 -51l-57 -215h30 l13 50h168l-21 -85v-3q0 -29 117 -97q-163 -71 -170 -100l-25 -85h-168l13 50h-29l-61 -229h29l13 50h168l-21 -85v-3q0 -29 118 -97q-163 -71 -171 -100l-25 -85h-168l13 50h-29l-57 -215q-36 -135 -172 -135q-107 0 -107 84q0 23 8 51l57 214h-29l-57 -215 q-37 -135 -173 -135q-106 0 -106 83q0 23 8 52l57 216h-30l-13 -50l-170 1l23 85v3q0 29 -117 95zM720 685h30l61 230h-30z" />
<glyph unicode="$" horiz-adv-x="900" d="M-18 65l167 620h249q-173 47 -173 225q0 62 21 140l27 100q90 334 400 375l-5 -18q38 128 169 128q107 0 107 -84q0 -16 -4 -35l2 8q28 -4 30 -4l4 15h270l-166 -620h-252q175 -45 175 -224q0 -62 -21 -141l-26 -100q-90 -334 -401 -375l5 18q-38 -128 -170 -128 q-107 0 -107 84q0 23 8 51l-7 -24q-27 4 -28 4l-4 -15h-270zM393 550q0 -25 10 -30l42 155q-15 2 -28 5q-24 -90 -24 -130zM511 1003q0 -36 12 -41l31 118q-12 -5 -43 -71v-6zM674 520q13 5 43 71v11q0 32 -11 36zM783 924q14 -2 28 -5q24 91 24 131q0 26 -10 31z" />
<glyph unicode="%" horiz-adv-x="1300" d="M106 -35l112 420h86q28 0 51 30h-4l197 235l6 15l2 5q-1 0 -5 -5q-325 10 -325 251q0 60 20 134l54 200q103 384 538 385q122 0 160 -15l4 15h186q64 0 91 -36q44 36 109 36h135l-112 -420h-84q-29 0 -105 -100h-3l-138 -165l-6 -15l-2 -5q1 0 5 5q324 -10 324 -251 q0 -60 -20 -134l-53 -200q-103 -384 -538 -385q-123 0 -161 15l-4 -15h-185q-65 0 -90 36q-46 -36 -110 -36h-135zM526 1071q0 -76 138 -86q167 12 195 116l14 51q9 34 9 61q0 102 -130 102q-164 0 -208 -166l-14 -51q-4 -15 -4 -27zM739 371q0 -76 137 -86q168 12 195 116 l14 51q9 34 9 62q0 101 -129 101q-164 0 -209 -166l-13 -51q-4 -15 -4 -27z" />
<glyph unicode="&#x26;" horiz-adv-x="900" d="M65 308q0 63 21 142l26 100q48 177 140 250q-28 39 -28 107q0 60 22 143l27 100q90 334 400 375l-5 -18q38 128 169 128q107 0 107 -84q0 -16 -4 -35l2 8q28 -4 30 -4l4 15h270l-166 -620h-270q25 94 25 135q0 26 -10 31l-49 -181v-3q0 -29 116 -97q-162 -72 -169 -100 l-49 -180q34 12 75 165h270l-63 -235q-90 -334 -400 -375l5 18q-38 -128 -170 -128q-107 0 -107 84q0 22 7 48l-6 -22q-220 31 -220 233zM379 529q0 -23 20 -27l34 128q-32 -11 -51 -80q-3 -12 -3 -21zM509 1003q0 -27 16 -34l34 129q-31 -6 -43 -48q-7 -28 -7 -47z" />
<glyph unicode="'" horiz-adv-x="300" d="M296 1097q40 34 52 48q35 42 43 70q-26 0 -46 65q-10 30 -10 65q0 38 12 80q22 82 76 146t115 64t81 -64q10 -30 10 -65q0 -38 -12 -81l-47 -175q-22 -81 -76 -145.5t-115 -64.5q-43 0 -83 57z" />
<glyph unicode="(" horiz-adv-x="600" d="M86 24q0 57 19 126l148 550v3q0 29 -117 97q163 72 170 100l148 550q103 385 573 385l-113 -420q-200 0 -244 -165l-94 -350v-3q0 -29 116 -97q-162 -72 -169 -100l-94 -350q-8 -30 -8 -54q0 -111 164 -111l-113 -420q-386 0 -386 259z" />
<glyph unicode=")" horiz-adv-x="600" d="M-98 -235l113 420q200 0 244 165l94 350v3q0 29 -117 97q163 72 170 100l94 350q8 30 8 54q0 111 -164 111l113 420q386 0 386 -259q0 -57 -19 -126l-148 -550v-3q0 -29 116 -97q-162 -72 -169 -100l-148 -550q-103 -385 -573 -385z" />
<glyph unicode="*" d="M251 1225q162 72 169 101l23 85h124l-1 25l-52 -14l-9 159l88 27q29 9 93 165q78 -104 108 -104h6l87 27l8 -128l76 128l73 -27h6q30 0 164 104q-9 -69 -9 -110q0 -50 14 -55l74 -27l-95 -159l-44 14l-15 -25h124l-23 -85v-3q0 -30 115 -98q-161 -72 -169 -101l-23 -85 h-124l2 -25l51 14l10 -159l-88 -27q-30 -9 -94 -165q-78 104 -108 104h-6l-87 -27l-8 128l-76 -128l-73 27h-6q-30 0 -164 -104q9 71 9 111q0 49 -13 54l-74 27l94 159l45 -14l14 25h-124l23 85v4q0 29 -115 97zM687 931l34 -12l40 12l-6 115zM845 1519l6 -115l68 115 l-34 12z" />
<glyph unicode="+" d="M136 799q163 73 170 102l23 85h170l-13 -50h80l57 214q36 135 171 135q107 0 107 -84q0 -23 -8 -51l-57 -215h80l13 50h168l-21 -85v-3q0 -29 117 -97q-163 -71 -170 -100l-25 -85h-168l13 50h-80l-57 -215q-37 -135 -173 -135q-106 0 -106 83q0 23 8 52l57 216h-80 l-14 -50h-168l23 85v3q0 29 -117 95z" />
<glyph unicode="," horiz-adv-x="300" d="M-39 -153q40 34 52 48q35 42 43 70q-26 0 -46 65q-10 30 -10 65q0 38 12 80q22 82 76 146t115 64t81 -64q10 -30 10 -65q0 -38 -12 -81l-47 -175q-22 -81 -76 -145.5t-115 -64.5q-43 0 -83 57z" />
<glyph unicode="-" d="M136 799q163 73 170 102l23 85h170l-13 -50l430 -1l13 50h168l-21 -85v-3q0 -29 117 -97q-163 -71 -170 -100l-25 -85h-168l13 50l-431 1l-14 -50h-168l23 85v3q0 29 -117 95z" />
<glyph unicode="." horiz-adv-x="300" d="M0 95q0 38 12 80q22 82 76 146t115 64t81 -64q10 -30 10 -65q0 -38 -12 -81q-22 -81 -76 -145.5t-115 -64.5t-81 65q-10 30 -10 65z" />
<glyph unicode="/" d="M-44 -35l112 420h86q28 0 51 30h-4l635 756v1q9 11 12 22v2q0 19 -108 19l112 420h186q64 0 91 -36q44 36 109 36h135l-112 -420h-84q-29 0 -105 -100h-3l-529 -630h-1q-55 -69 -57 -79v-2q0 -19 106 -19l-112 -420h-185q-65 0 -90 36q-46 -36 -110 -36h-135z" />
<glyph unicode="0" horiz-adv-x="1100" d="M136 800q163 72 170 100l94 350q103 385 538 385q352 0 352 -252q0 -59 -20 -133l-94 -350v-3q0 -29 116 -97q-162 -72 -169 -100l-94 -350q-103 -385 -538 -385q-352 0 -352 252q0 59 20 133l94 350v3q0 29 -117 97zM473 488q0 -103 130 -103q165 0 209 165l41 150v3 q0 29 -117 97q163 72 170 100l40 150q10 35 10 63q0 102 -130 102q-165 0 -210 -165l-40 -150v-3q0 -29 116 -97q-162 -72 -169 -100l-41 -150q-9 -35 -9 -62z" />
<glyph unicode="1" horiz-adv-x="600" d="M-44 -35l112 420h86q65 0 83 65l67 250v3q0 29 -117 97q163 72 170 100l40 150q4 14 4 25q0 40 -51 40h-86l66 247l291 273h202l-196 -735v-3q0 -29 116 -97q-162 -72 -169 -100l-67 -250q-4 -14 -4 -25q0 -40 51 -40h84l-112 -420h-185q-65 0 -90 36q-46 -36 -110 -36 h-185z" />
<glyph unicode="2" d="M-44 -34l157 585q96 359 452 381l1 4q63 0 173 143q30 -130 48 -138q135 17 160 110q9 35 9 62q0 103 -130 103h-100q-165 0 -209 -165l-23 -85h-270l179 670h270l-4 -15q46 15 169 15h100q352 0 352 -252q0 -59 -20 -133l-53 -200q-97 -359 -452 -381l-2 -4 q-63 0 -173 -143q-30 130 -48 138q-130 -16 -157 -103q-18 -71 -18 -113q0 -59 36 -59h300q64 0 83 65l36 135h270l-166 -620h-186q-63 1 -90 35q-45 -34 -209 -35q-164 0 -190 35q-46 -36 -110 -36z" />
<glyph unicode="3" horiz-adv-x="900" d="M39 217q0 59 20 133l76 285h270l-23 -85q-9 -35 -9 -62q0 -103 130 -103q165 0 209 165q4 13 4 24q0 63 -106 84l-12 -42h-168l23 85v3q0 29 -117 95q163 73 170 102l23 85h170l-12 -47q132 9 159 111q10 35 10 63q0 102 -130 102q-165 0 -210 -165l-22 -85h-270l179 670 h270l-4 -15q46 15 169 15q352 0 352 -252q0 -59 -20 -133l-54 -200q-47 -177 -140 -250q29 -39 29 -106q0 -61 -23 -144l-53 -200q-103 -385 -538 -385q-352 0 -352 252z" />
<glyph unicode="4" horiz-adv-x="1150" d="M110 700q162 72 171 105l198 358q16 21 19 31v3q0 18 -72 18h-86l112 420h185q64 0 91 -36q44 36 109 36h135l-112 -420q-82 0 -120 -74l-170 -306h319l85 315q3 10 3 18q0 47 -87 47l112 420h136q64 0 91 -36q44 36 109 36h185l-112 -420h-84q-65 0 -83 -65l-95 -350v-3 q0 -29 117 -97q-163 -72 -170 -100l-39 -150q-4 -14 -4 -25q0 -40 51 -40h84l-112 -420h-185q-65 0 -90 36q-46 -36 -110 -36h-136l112 420q102 0 120 65l29 115h-600q2 8 2 15q0 57 -108 120z" />
<glyph unicode="5" horiz-adv-x="951" d="M6 -35l179 670h270l-23 -85q-9 -35 -9 -62q0 -103 130 -103q165 0 209 165q6 21 6 38q0 77 -115 77l-408 1q2 7 2 13q0 57 -111 119q163 74 171 102l67 250q2 9 2 17q0 48 -85 48l112 420h136q63 0 89 -36q48 36 211 36q164 0 190 -36q46 36 110 36h185l-166 -620h-270 l35 135q4 14 4 25q0 40 -50 41h-150q-66 -1 -111 -166l-29 -115h164q303 0 303 -239q0 -64 -22 -146l-53 -200q-103 -385 -538 -385q-123 0 -161 15l-4 -15h-270z" />
<glyph unicode="6" d="M136 800q163 72 170 100l94 350q103 385 538 385q123 0 161 -15l4 15h270l-179 -670h-270l22 85q10 35 10 63q0 102 -130 102q-165 0 -210 -165l-34 -130q46 15 169 15q355 -1 355 -235q0 -31 -6 -65h5l-76 -285q-103 -385 -538 -385q-352 0 -352 252q0 59 20 133l94 350 v3q0 29 -117 97zM467 474q0 -89 136 -89q164 0 208 163l1 3q4 15 4 27q0 76 -138 86q-167 -12 -194 -113l-10 -36h-1q-6 -23 -6 -41z" />
<glyph unicode="7" d="M56 -35l112 420h86q28 0 90 81l152 200h-84l-14 -50h-168l23 85v3q0 29 -117 95q163 73 170 102l23 85h170l-13 -50l218 -1l215 280h-293q-64 0 -82 -65l-36 -135h-271l166 620h185q64 0 91 -36q44 36 209 36q163 0 191 -36q46 36 109 36h185l-105 -394l-212 -256h41 l-21 -85v-3q0 -29 117 -97q-163 -71 -170 -100l-25 -85h-168l13 50h-53l-192 -232q-14 -17 -16 -27v-3q0 -18 72 -18h84l-112 -420h-185q-65 0 -90 36q-46 -36 -110 -36h-185z" />
<glyph unicode="8" horiz-adv-x="900" d="M39 217q0 59 20 133l53 200q48 177 140 250q-28 39 -28 107q0 60 22 143l54 200q103 385 538 385q352 0 352 -252q0 -59 -20 -133l-54 -200q-47 -177 -140 -250q29 -39 29 -106q0 -61 -23 -144l-53 -200q-103 -385 -538 -385q-352 0 -352 252zM374 486q0 -101 129 -101 q164 0 208 163l1 3q4 15 4 27q0 76 -138 86q-167 -12 -194 -113l-1 -3q-9 -34 -9 -62zM513 1022q0 -76 138 -86q167 12 194 113l1 3q9 34 9 62q0 101 -129 101q-164 0 -208 -163l-1 -3q-4 -15 -4 -27z" />
<glyph unicode="9" d="M-44 -35l179 670h270l-23 -85q-9 -35 -9 -62q0 -103 130 -103q165 0 209 165l35 130q-46 -15 -169 -15q-355 1 -355 234q0 31 6 66h-5l76 285q103 385 538 385q352 0 352 -252q0 -59 -20 -133l-94 -350v-3q0 -29 116 -97q-162 -72 -169 -100l-94 -350 q-103 -385 -538 -385q-123 0 -161 15l-4 -15h-270zM513 1022q0 -76 138 -86q167 12 194 113l10 36h1q6 23 6 41q0 89 -136 89q-164 0 -208 -163l-1 -3q-4 -15 -4 -27z" />
<glyph unicode=":" horiz-adv-x="300" d="M0 95q0 38 12 80q22 82 76 146t115 64t81 -64q10 -30 10 -65q0 -38 -12 -81q-22 -81 -76 -145.5t-115 -64.5t-81 65q-10 30 -10 65zM168 720q0 38 11 80q22 82 76.5 146t115.5 64t81 -64q9 -30 9 -64q0 -39 -12 -82q-21 -81 -75.5 -145.5t-115.5 -64.5t-80 65 q-10 31 -10 65z" />
<glyph unicode=";" horiz-adv-x="300" d="M-39 -153q40 34 52 48q35 42 43 70q-26 0 -46 65q-10 30 -10 65q0 38 12 80q22 82 76 146t115 64t81 -64q10 -30 10 -65q0 -38 -12 -81l-47 -175q-22 -81 -76 -145.5t-115 -64.5q-43 0 -83 57zM168 720q0 38 11 80q22 82 76.5 146t115.5 64t81 -64q9 -30 9 -64 q0 -39 -12 -82q-21 -81 -75.5 -145.5t-115.5 -64.5t-80 65q-10 31 -10 65z" />
<glyph unicode="&#x3c;" horiz-adv-x="800" d="M159 800l405 276l4 2l60 37h-115l112 420h136q64 0 92 -36q43 36 108 36h185l-112 -420h-84q-36 0 -87 -41l-395 -274l248 -274q29 -41 65 -41h84l-113 -420h-185q-65 0 -89 36q-47 -36 -111 -36h-136l113 420l114 -1q0 6 -39 38l-3 2z" />
<glyph unicode="=" d="M69 548q162 73 170 102l23 85h170l-13 -50l429 -1l14 50h168l-21 -85v-3q0 -29 117 -97q-163 -71 -171 -100l-24 -85h-168l13 50l-431 1l-14 -50h-168l23 85v3q0 29 -117 95zM203 1049q163 73 170 102l23 85h170l-13 -51h430l13 50h168l-21 -85v-3q0 -29 117 -97 q-163 -71 -170 -100l-25 -85h-168l13 50h-431l-14 -49h-168l23 85v3q0 29 -117 95z" />
<glyph unicode="&#x3e;" horiz-adv-x="800" d="M-18 65l113 420h85q35 0 87 41l393 274l-246 274q-30 41 -65 41h-85l112 420h185q65 0 90 -36q46 36 110 36h136l-112 -420q-115 0 -115 2q0 -6 40 -39l2 -2l257 -276l-405 -276l-3 -2q-59 -34 -61 -39q1 2 116 2l-113 -420h-136q-64 0 -91 36q-44 -36 -109 -36h-185z " />
<glyph unicode="?" d="M0 95q0 38 12 80q22 82 76 146t115 64t81 -64q10 -30 10 -65q0 -38 -12 -81q-22 -81 -76 -145.5t-115 -64.5t-81 65q-10 30 -10 65zM105 499q0 23 8 52q96 359 452 381l1 4q63 0 173 143q30 -130 48 -138q135 17 160 110q9 35 9 62q0 103 -130 103h-100q-165 0 -209 -165 l-23 -85h-270l179 670h270l-4 -15q46 15 169 15h100q352 0 352 -252q0 -59 -20 -133l-53 -200q-97 -359 -452 -381l-2 -4q-63 0 -173 -143q-30 130 -48 138q-130 -16 -158 -104q-38 -142 -173 -142q-106 0 -106 84z" />
<glyph unicode="@" d="M136 800q163 72 170 100l94 350q103 385 538 385q352 0 352 -252q0 -59 -20 -133l-184 -685h-270l5 16q-47 -16 -170 -16t-161 15l-8 -30q-9 -35 -9 -62q0 -103 130 -103h100q64 0 83 65l22 85h270l-152 -570h-186q-63 1 -90 35q-45 -34 -124 -34v-1q-386 0 -386 259 q0 57 19 126l94 350v3q0 29 -117 97zM594 938q0 -102 128 -102h1q169 12 210 164q15 56 15 97q0 118 -122 118q-165 0 -223 -215q-9 -35 -9 -62z" />
<glyph unicode="A" horiz-adv-x="1200" d="M-44 -35l112 420h86q28 0 72 57l3 -3l74 141q-5 11 -107 70q162 72 179 135h38l234 430h-56l112 420h185q64 0 90 -36q45 35 111 36h184l-112 -420l-53 -3l-1 -427h38q-2 -8 -2 -15q0 -57 109 -120q-134 -59 -145 -70v-95h-4q22 -100 51 -100h84l-112 -420h-185 q-65 0 -90 36q-46 -36 -110 -36h-135l112 420q113 0 119 21q2 6 2 11q0 6 -2 11l-3 4l2 83h-296q-56 -99 -58 -109v-2q0 -19 106 -19l-113 -420h-134q-65 0 -90 36q-46 -36 -110 -36h-185zM680 785h160l6 321z" />
<glyph unicode="B" d="M-44 -35l112 420h135q15 0 33 65l67 250v3q0 28 -116 96q160 72 178 136h1l57 215q10 35 10 52q0 13 -7 13h-135l112 420h185q64 0 90 -36q46 36 210 36q352 0 352 -252q0 -59 -20 -133l-54 -200q-41 -153 -109 -218q47 -46 47 -136q0 -62 -22 -146l-53 -200 q-103 -385 -538 -385h-50q-164 0 -191 36q-45 -36 -109 -36h-185zM514 444q0 -59 39 -59h50q165 0 210 166q4 14 4 26q0 88 -189 88q-66 0 -83 -65l-13 -50q-18 -67 -18 -106zM648 976q0 -41 52 -42q166 1 196 116q10 35 10 63q0 102 -130 102q-65 0 -110 -165l-14 -50 q-4 -13 -4 -24z" />
<glyph unicode="C" d="M136 800q163 72 170 100l94 350q103 385 538 385q123 0 161 -15l4 15h270l-179 -670h-270l22 85q10 35 10 63q0 102 -130 102q-165 0 -210 -165l-40 -150v-3q0 -29 116 -97q-162 -72 -169 -100l-41 -150q-9 -35 -9 -62q0 -103 130 -103q165 0 209 165l23 85h270l-76 -285 q-103 -385 -538 -385q-352 0 -352 252q0 59 20 133l94 350v3q0 29 -117 97z" />
<glyph unicode="D" horiz-adv-x="1099" d="M-44 -35l112 420h85q65 0 83 65l67 250v3q0 28 -117 97q163 72 170 100l67 250q10 35 10 52q0 13 -7 13h-135l112 420h185q64 0 90 -36q46 36 210 36h50q352 0 352 -252q0 -59 -20 -133l-94 -350v-3q0 -29 115 -97q-161 -72 -168 -100l-94 -350q-103 -385 -538 -385h-50 q-164 0 -191 36q-45 -36 -109 -36h-185zM514 444q0 -59 39 -59h50q165 0 209 165l41 150v3q0 28 -117 97q163 72 170 100l40 150q10 35 10 63q0 102 -130 103l-50 -1q-65 0 -110 -165l-41 -150v-4q0 -29 96 -96q-141 -72 -148 -100l-41 -150q-18 -67 -18 -106z" />
<glyph unicode="E" horiz-adv-x="1001" d="M-43 -35l111 420h86q65 0 83 65l67 251v3q0 27 -118 94q163 74 171 102l67 250q4 13 4 24q0 41 -52 41h-85l113 420h185q63 0 89 -36q48 36 211 36q164 0 190 -36q46 36 110 36h185l-166 -620h-270l35 135q4 14 4 25q0 40 -50 41h-150q-66 -1 -111 -166l-29 -115h80 l13 50h168l-21 -85v-3q0 -29 117 -97q-163 -71 -170 -100l-25 -85h-168l13 50h-80l-32 -115q-18 -67 -18 -106q0 -59 39 -59h151q64 0 83 65l36 135h270l-166 -620h-186q-63 1 -90 35q-45 -34 -210 -34q-164 0 -190 35q-46 -36 -110 -36h-184z" />
<glyph unicode="F" horiz-adv-x="1001" d="M-43 -35l111 420h86q64 0 83 65l67 251v3q0 27 -118 94q163 74 171 102l67 250q4 13 4 24q0 41 -52 41h-85l113 420h185q63 0 89 -36q48 36 211 36q164 0 190 -36q46 36 110 36h185l-166 -620h-270l36 135q4 14 4 24q0 41 -51 41h-150q-66 0 -111 -165l-29 -115h80l13 50 h168l-21 -85v-3q0 -29 117 -97q-163 -71 -170 -100l-25 -85h-168l13 50h-80l-58 -215q-4 -14 -4 -25q0 -40 51 -40h86l-112 -420h-185q-66 1 -91 36q-46 -36 -110 -36h-184z" />
<glyph unicode="G" d="M136 800q163 72 170 100l94 350q103 385 538 385q123 0 161 -15l4 15h270l-179 -670h-270l22 85q10 35 10 63q0 102 -130 102q-165 0 -210 -165l-40 -150v-3q0 -23 70 -68q106 56 120 106h420l-260 -970h-270l4 15q-46 -15 -169 -15q-352 0 -352 252q0 59 20 133l94 350 v3q0 29 -117 97zM473 488q0 -103 130 -103q165 0 209 165l31 115h-150q2 8 2 16q0 43 -64 90q-103 -49 -108 -71l-41 -150q-9 -35 -9 -62z" />
<glyph unicode="H" horiz-adv-x="1200" d="M-44 -35l112 420h86q65 0 83 65l67 250v3q0 29 -117 97q163 72 170 100l67 250q4 14 4 25q0 40 -51 40h-86l112 420h185q64 0 91 -36q44 36 109 36h135l-112 -420q-99 0 -117 -65l-57 -215h330l57 215q3 10 3 18q0 47 -87 47l112 420h136q64 0 91 -36q44 36 109 36h185 l-112 -420h-84q-65 0 -83 -65l-67 -250v-3q0 -29 116 -97q-162 -72 -169 -100l-67 -250q-4 -14 -4 -25q0 -40 51 -40h84l-112 -420h-185q-65 0 -90 36q-46 -36 -110 -36h-136l112 420q102 0 120 65l57 215h-330l-57 -215q-3 -10 -3 -19q0 -46 84 -46l-112 -420h-135 q-65 0 -90 36q-46 -36 -110 -36h-185z" />
<glyph unicode="I" horiz-adv-x="600" d="M-44 -35l112 420h86q65 0 83 65l67 250v3q0 29 -117 97q163 72 170 100l67 250q4 14 4 25q0 40 -51 40h-86l112 420h185q64 0 91 -36q44 36 109 36h185l-112 -420h-84q-65 0 -83 -65l-67 -250v-3q0 -29 116 -97q-162 -72 -169 -100l-67 -250q-4 -14 -4 -25q0 -40 51 -40 h84l-112 -420h-185q-65 0 -90 36q-46 -36 -110 -36h-185z" />
<glyph unicode="J" horiz-adv-x="1051" d="M-44 -35l179 670h270l-23 -85q-9 -35 -9 -62q0 -103 130 -103q165 0 209 165l41 150v3q0 29 -117 97q163 72 170 100l68 250q4 13 4 24q0 41 -52 41h-85l112 420h186q63 0 89 -36q48 36 111 36h185l-113 -421l-84 2q-65 -1 -83 -66l-68 -250v-3q0 -29 116 -97 q-162 -72 -169 -100l-94 -350q-103 -385 -538 -385q-123 0 -161 15l-4 -15h-270z" />
<glyph unicode="K" horiz-adv-x="1101" d="M-44 -35l112 420h85q65 0 83 65l66 250v3q0 29 -116 97q163 72 170 100l67 250q10 35 10 52q0 13 -7 13h-135l112 420h185q64 0 90 -36q46 36 110 36h185l-112 -420h-135q-15 0 -33 -65l-41 -150q-4 -13 -4 -24q0 -41 52 -42q216 1 246 116l81 300q76 285 446 285 l-112 -420q-100 0 -118 -65l-27 -100q-47 -177 -140 -250q29 -39 29 -106q0 -61 -23 -144l-26 -100q-3 -10 -3 -18q0 -47 85 -47l-111 -420q-308 0 -308 196q0 41 13 89l80 300q4 14 4 27q0 88 -188 88q-65 0 -82 -65l-40 -150q-4 -14 -4 -25q0 -40 51 -40h85l-112 -420 h-185q-64 0 -91 36q-45 -36 -109 -36h-185z" />
<glyph unicode="L" horiz-adv-x="1001" d="M-43 -35l111 420h86q65 0 83 65l67 251v3q0 27 -118 94q163 74 171 102l67 250q4 13 4 24q0 41 -52 41h-85l113 420h185q63 0 89 -36q48 36 111 36h185l-113 -421l-84 2q-65 -1 -83 -66l-67 -250v-3q0 -29 117 -97q-163 -71 -170 -100l-42 -150q-18 -67 -18 -106 q0 -59 39 -59h151q64 0 83 65l36 135h270l-166 -620h-186q-63 1 -90 35q-45 -34 -210 -34q-164 0 -190 35q-46 -36 -110 -36h-184z" />
<glyph unicode="M" horiz-adv-x="1700" d="M-44 -35l112 420h86q65 0 83 65l67 250v3q0 29 -117 97q163 72 170 100l67 250q4 14 4 25q0 40 -51 40h-86l112 420h185q64 0 91 -36q44 36 109 36h152l-9 -1146l605 1146h152q64 0 91 -36q44 36 109 36h185l-112 -420h-84q-65 0 -83 -65l-67 -250v-3q0 -29 116 -97 q-162 -72 -169 -100l-67 -250q-4 -14 -4 -25q0 -40 51 -40h84l-112 -420h-185q-65 0 -90 36q-46 -36 -110 -36h-135l112 420q101 0 119 65l67 250v3q0 20 -57 60l-215 -378h56l-112 -420h-184q-66 1 -92 36q-45 -36 -109 -36h-185l112 420l54 -7v2q0 2 -1 7l-9 375 q-83 -42 -88 -62l-67 -250q-3 -10 -3 -18q0 -47 85 -47l-113 -420h-135q-65 0 -90 36q-46 -36 -110 -36h-185zM627 897q0 -16 33 -42l-3 156l-30 -111v-3zM1398 853q55 31 59 47l31 114z" />
<glyph unicode="N" horiz-adv-x="1301" d="M-44 -35l112 420h86q65 0 83 65l67 250v3q0 29 -117 97q163 72 170 100l67 250q4 14 4 25q0 40 -51 40h-86l112 420h185q64 0 91 -36q44 36 109 36h125l52 -798q87 43 93 64l67 249q4 14 4 25q0 40 -51 40h-86l112 420h185q64 0 91 -36q44 36 109 36h185l-112 -420h-84 q-65 0 -83 -65l-67 -250v-3q0 -29 116 -97q-162 -72 -169 -100l-67 -250q-4 -14 -4 -25q0 -40 51 -40h84l-112 -420h-185q-65 0 -90 36q-46 -36 -110 -36h-126l-53 798q-85 -43 -90 -63l-25 -90h1l-42 -160q-4 -14 -4 -25q0 -40 51 -40h84l-112 -420h-185q-65 0 -90 36 q-46 -36 -110 -36h-185zM626 897q0 -15 31 -41l-8 125l2 9h-1l-24 -90v-3zM971 744l9 -128l23 84v3q0 15 -32 41z" />
<glyph unicode="O" horiz-adv-x="1100" d="M136 800q163 72 170 100l94 350q103 385 538 385q352 0 352 -252q0 -59 -20 -133l-94 -350v-3q0 -29 116 -97q-162 -72 -169 -100l-94 -350q-103 -385 -538 -385q-352 0 -352 252q0 59 20 133l94 350v3q0 29 -117 97zM473 488q0 -103 130 -103q165 0 209 165l41 150v3 q0 29 -117 97q163 72 170 100l40 150q10 35 10 63q0 102 -130 102q-165 0 -210 -165l-40 -150v-3q0 -29 116 -97q-162 -72 -169 -100l-41 -150q-9 -35 -9 -62z" />
<glyph unicode="P" d="M-44 -35l112 420h85q65 0 83 65l66 250v3q0 29 -116 97q163 72 170 100l67 250q10 35 10 52q0 13 -7 13h-135l112 420h185q64 0 90 -36q46 36 210 36h50q352 0 352 -252q0 -59 -20 -133l-54 -200q-103 -384 -538 -385h-50q-65 0 -82 -65l-40 -150q-4 -14 -4 -25 q0 -40 51 -40h85l-112 -420h-185q-64 0 -91 36q-45 -36 -109 -36h-185zM648 976q0 -41 52 -42q215 1 245 115l1 3q9 34 9 62q0 101 -129 101h-50q-65 0 -110 -165l-14 -50q-4 -13 -4 -24z" />
<glyph unicode="Q" horiz-adv-x="1101" d="M136 800q163 72 170 100l94 350q103 385 538 385q352 0 352 -252q0 -59 -20 -133l-94 -350v-3q0 -29 116 -97q-162 -72 -169 -100l-94 -350q-65 -240 -216 -318q164 -22 164 -189q0 -61 -22 -141l-10 -37h-420q8 30 8 51q0 49 -45 49q-173 0 -173 165q0 25 4 55 q-181 43 -181 226q0 61 21 139l94 350v3q0 29 -117 97zM473 488q0 -103 130 -103q165 0 209 165l41 150v3q0 29 -117 97q163 72 170 100l40 150q10 35 10 63q0 102 -130 102q-165 0 -210 -165l-40 -150v-3q0 -29 116 -97q-162 -72 -169 -100l-41 -150q-9 -35 -9 -62z" />
<glyph unicode="R" horiz-adv-x="1101" d="M-44 -35l112 420h85q65 0 83 65l66 250v3q0 29 -116 97q163 72 170 100l67 250q10 35 10 52q0 13 -7 13h-135l112 420h185q64 0 90 -36q46 36 210 36h50q352 0 352 -252q0 -59 -20 -133l-54 -200q-47 -177 -140 -250q29 -39 29 -106q0 -61 -23 -144l-26 -100 q-3 -10 -3 -18q0 -47 85 -47l-111 -420q-308 0 -308 196q0 41 13 89l80 300q4 14 4 27q0 88 -188 88q-65 0 -82 -65l-40 -150q-4 -14 -4 -25q0 -40 51 -40h85l-112 -420h-185q-64 0 -91 36q-45 -36 -109 -36h-185zM648 976q0 -41 52 -42q216 1 246 116q10 35 10 63 q0 102 -130 102h-50q-65 0 -110 -165l-14 -50q-4 -13 -4 -24z" />
<glyph unicode="S" d="M-44 -35l179 670h270l-23 -85q-9 -35 -9 -62q0 -103 130 -103h100q165 0 209 165q4 15 4 29q0 67 -104 81q-22 -8 -122 -138q-34 143 -97 143l1 4q-269 17 -269 240q0 63 21 141l54 200q103 385 538 385h100q123 0 161 -15l4 15h270l-179 -670h-270l22 85q10 35 10 63 q0 102 -130 102h-100q-165 0 -210 -165q-4 -15 -4 -29q0 -67 105 -81q22 8 122 138q34 -143 97 -143l-2 -4q269 -17 269 -240q0 -62 -21 -141l-53 -200q-103 -385 -538 -385h-100q-123 0 -161 15l-4 -15h-270z" />
<glyph unicode="T" horiz-adv-x="1100" d="M207 -35l111 420h85q64 0 83 65l67 251v3q0 28 -117 94q162 74 170 102l67 250q4 14 4 24q0 41 -51 41q-65 0 -83 -65l-35 -135h-271l166 620h436q64 0 90 -36q47 36 110 36h434l-166 -620h-270l36 135q4 14 4 25q0 40 -50 40q-66 0 -111 -165l-40 -150v-3q0 -28 118 -97 q-163 -71 -171 -100l-67 -250q-4 -14 -4 -25q0 -40 51 -40h85l-112 -420h-184q-66 1 -92 36q-45 -36 -109 -36h-184z" />
<glyph unicode="U" horiz-adv-x="1201" d="M186 800q163 72 170 100l67 250q4 14 4 25q0 40 -51 40h-85l113 420h185q63 0 89 -36q48 36 111 36h185l-113 -421l-84 2q-65 -1 -84 -66l-67 -250v-3q0 -29 116 -97q-162 -72 -169 -100l-41 -150q-9 -35 -9 -62q0 -103 130 -103q165 0 209 165l41 150v3q0 29 -117 97 q163 72 170 100l68 250q4 13 4 24q0 41 -52 41h-85l113 420h185q63 0 89 -36q48 36 111 36h185l-113 -421l-84 2q-65 -1 -83 -66l-68 -250v-3q0 -29 116 -97q-162 -72 -169 -100l-94 -350q-103 -385 -538 -385q-352 0 -352 252q0 59 20 133l94 350v3q0 29 -117 97z" />
<glyph unicode="V" horiz-adv-x="1200" d="M256 -35l112 420l53 3l1 772l-4 -2q-13 57 -41 57h-86l112 420h185q64 0 91 -36q44 36 109 36h134l-111 -420q-112 0 -118 -21q-3 -10 -11 -700l349 674l5 4q9 11 12 22v2q0 19 -107 19l112 420h135q64 0 91 -36q44 36 109 36h185l-112 -420h-84q-29 0 -105 -100h4 l-394 -730h56l-112 -420h-184q-66 1 -92 36q-45 -36 -109 -36h-185z" />
<glyph unicode="W" horiz-adv-x="1800" d="M256 -35l112 420l55 -5l-1 780l-4 -2q-13 57 -41 57h-86l112 420h185q64 0 91 -36q44 36 109 36h134l-111 -420q-112 0 -118 -21v-4q0 -16 15 -75h-14l-12 -621l349 674l1 1l18 32q0 14 -109 14l112 420h135q64 0 91 -36q44 36 109 36h134l-111 -420q-110 0 -115 -13 l-1 -87h-1l-12 -621l349 674l5 4q9 11 12 22v2q0 19 -107 19l112 420h135q64 0 91 -36q44 36 109 36h185l-112 -420h-84q-29 0 -105 -100h4l-394 -730h56l-112 -420h-184q-66 1 -92 36q-45 -36 -109 -36h-185l112 420l54 -7v30q0 58 -1 231l-139 -254h56l-112 -420h-184 q-66 1 -92 36q-45 -36 -109 -36h-185z" />
<glyph unicode="X" horiz-adv-x="1200" d="M-44 -35l112 420h86q7 0 37 30h-6l433 385l-207 352l3 2q-30 61 -37 61h-86l112 420h185q64 0 91 -36q44 36 109 36h135l-112 -420q-133 0 -136 -9v-1q0 -10 59 -90h-9l85 -144l229 203h1q17 18 20 27v1q0 13 -120 13l112 420h136q64 0 91 -36q44 36 109 36h185 l-112 -420h-84q-8 0 -109 -100h-3l-355 -315l186 -315h3q47 -100 55 -100h84l-112 -420h-185q-65 0 -90 36q-46 -36 -110 -36h-136l112 420q135 0 138 9v2q0 8 -15 28l-2 2l-119 203l-163 -144h-4q-80 -77 -82 -86v-1q0 -13 118 -13l-112 -420h-135q-65 0 -90 36 q-46 -36 -110 -36h-185z" />
<glyph unicode="Y" horiz-adv-x="1200" d="M257 -35l111 420h85q64 0 83 65l67 251v3q0 28 -116 94q81 38 92 42l-167 313l-3 -2q-46 64 -118 64l112 420h185q64 0 91 -36q44 36 109 36h135l-111 -420q-113 0 -119 -21v-4q0 -16 15 -75h14l84 -159l232 217l-2 -1q9 11 12 22v2q0 19 -106 19l111 420h135 q64 0 91 -36q44 36 109 36h185l-112 -420q-70 0 -196 -100h1l-295 -275q10 -4 74 -40q-164 -71 -172 -100l-67 -250q-4 -14 -4 -25q0 -40 51 -40h85l-112 -420h-184q-66 1 -92 36q-45 -36 -109 -36h-184z" />
<glyph unicode="Z" horiz-adv-x="1002" d="M-44 -35l100 370l-9 11l288 290l4 14l15 51v3q0 27 -118 94q163 74 171 102l23 84l169 1l-13 -50l43 -1l279 281h-282q-64 0 -82 -65l-36 -135h-271l166 620h185q64 0 91 -36q44 36 209 36q163 0 191 -36q46 36 109 36h185l-112 -419l-269 -252l-3 -14l-13 -50v-3 q0 -29 117 -97q-163 -71 -170 -100l-25 -85h-168l13 50h-44l-278 -280h284q64 0 83 65l36 135h270l-166 -620h-186q-63 1 -90 35q-45 -34 -210 -34q-164 0 -190 35q-46 -36 -110 -36h-186z" />
<glyph unicode="[" horiz-adv-x="900" d="M-97 -235l112 420h86q65 0 82 65l121 451v3q0 27 -118 94q163 74 171 102l121 450q3 13 3 23q0 42 -52 42h-85l114 420h185q63 0 89 -36q48 36 211 36h384l-166 -620h-270l35 135q4 14 4 24q0 41 -51 42h-49q-66 -1 -110 -166l-94 -350v-3q0 -29 117 -97 q-163 -71 -170 -100l-94 -350q-18 -67 -18 -106q0 -59 39 -59h50q64 0 82 65l36 135h270l-166 -620l-385 1q-164 0 -189 35q-47 -36 -111 -36h-184z" />
<glyph unicode="\" d="M291 1215l112 420h135q65 0 89 -36q47 36 111 36h186l-112 -420q-114 0 -120 -21q-1 -5 -1 -11q0 -5 1 -11v-1l229 -756h-4q7 -30 35 -30h86l-112 -420h-135q-64 0 -92 36q-43 -36 -108 -36h-185l112 420q112 0 118 21v3q0 14 -15 76h-1l-191 630h-3q-22 100 -51 100h-84 z" />
<glyph unicode="]" horiz-adv-x="900" d="M-98 -235l166 620h270l-36 -135q-3 -13 -3 -23q0 -42 51 -42h50q65 0 109 165l94 350v3q0 30 -118 97q164 72 171 100l94 350q18 66 18 106q0 59 -40 60h-49q-64 -1 -81 -66l-37 -135h-270l166 620h384q163 0 191 -36q46 36 109 36h185l-112 -420h-85q-65 0 -83 -65 l-121 -450v-3q0 -28 117 -99q-162 -70 -170 -97l-121 -451q-4 -13 -4 -24q0 -41 52 -41h86l-114 -420h-184q-64 0 -91 36q-45 -35 -209 -35z" />
<glyph unicode="^" horiz-adv-x="900" d="M403 1765l479 470h235l226 -470h-287l-122 229l-244 -229h-287z" />
<glyph unicode="_" d="M-125 -335l73 271l970 -1l-73 -270h-970z" />
<glyph unicode="`" horiz-adv-x="700" d="M482 1895q0 38 12 80q22 82 76 146t115 64q34 0 83 -29l283 -149q73 -28 85 -59q6 -17 6 -36q0 -17 -5 -37q-11 -41 -42.5 -75.5t-71.5 -34.5h-450q-61 0 -81 65q-10 30 -10 65z" />
<glyph unicode="a" horiz-adv-x="966" d="M-43 -28l91 336h69q22 0 57 46l2 -3l59 113q-3 9 -85 56q130 58 143 108h30l187 344h-45l90 336h148q51 0 73 -29q35 28 88 29h147l-90 -336l-42 -2v-342h30q-2 -6 -2 -12q0 -45 87 -96q-106 -47 -115 -56v-76h-4q19 -80 42 -80h67l-91 -336h-148q-52 0 -71 29 q-38 -29 -89 -29h-108l91 336q90 0 94 17q1 6 1 12v5l-3 4l1 66h-236q-45 -79 -47 -87v-1q0 -16 86 -16l-92 -336h-107q-52 0 -71 29q-38 -29 -89 -29h-148zM537 628h128l5 257z" />
<glyph unicode="b" horiz-adv-x="820" d="M-44 -35l93 350h115q5 0 17 45l54 200v2q0 18 -101 76q138 63 152 117h1l45 165q8 32 8 41q0 4 -1 4h-115l93 350h155q54 0 73 -26q33 26 167 26q287 0 287 -206q0 -49 -16 -109l-43 -160q-33 -125 -85 -174q37 -34 37 -106q0 -50 -19 -120l-43 -160q-84 -315 -439 -315 h-40q-134 0 -153 26q-33 -26 -87 -26h-155zM418 356q0 -41 26 -41h40q125 0 159 126q3 10 3 19q0 65 -145 65q-46 0 -58 -45l-10 -40q-15 -54 -15 -84zM526 783q0 -28 36 -29q125 1 148 86q7 27 7 48q0 77 -98 77q-45 0 -79 -125l-12 -40q-2 -9 -2 -17z" />
<glyph unicode="c" horiz-adv-x="820" d="M93 640q140 62 145 80l75 280q84 315 439 315q100 0 123 -9l2 9h230l-147 -550h-230l20 75q7 27 7 48q0 77 -98 77q-125 0 -159 -125l-32 -120v-2q0 -19 101 -78q-139 -62 -144 -80l-32 -120q-7 -27 -7 -48q0 -77 98 -77q125 0 159 125l20 75h230l-63 -235 q-84 -315 -439 -315q-287 0 -287 206q0 49 16 109l75 280v2q0 19 -102 78z" />
<glyph unicode="d" horiz-adv-x="877" d="M-43 -28l91 336h68q52 0 65 52l54 200v2q0 23 -93 78q130 58 136 80l54 200q7 27 7 40q0 12 -6 12h-108l90 336h148q51 0 73 -29q36 29 167 29h40q282 0 282 -202q0 -47 -16 -106l-75 -280v-3q0 -22 92 -77q-129 -58 -135 -80l-75 -280q-83 -308 -431 -308h-40 q-131 0 -152 29q-37 -29 -88 -29h-148zM405 355q0 -47 31 -47h40q132 0 167 132l32 120v2q0 23 -93 78q130 58 136 80l32 120q7 28 7 50q0 82 -103 83l-41 -1q-52 0 -87 -132l-33 -120v-3q0 -23 77 -77q-113 -58 -119 -80l-32 -120q-14 -53 -14 -85z" />
<glyph unicode="e" horiz-adv-x="821" d="M-43 -35l92 350h76q45 0 57 45l54 201v2q0 18 -103 75q141 64 146 82l54 200q2 9 2 16q0 29 -36 29h-75l94 350h155q53 0 73 -26q34 26 167 26q134 0 153 -26q33 26 87 26h155l-136 -510h-230l30 115q3 10 3 17q0 28 -35 29h-120q-46 -1 -80 -126l-22 -85h50l11 40h148 l-18 -75v-2q0 -19 102 -78q-140 -61 -145 -80l-22 -75h-148l11 40h-50l-24 -85q-15 -54 -15 -84q0 -41 26 -41h121q44 0 57 45l31 115h230l-136 -510h-156q-53 1 -72 26q-33 -25 -168 -25q-134 0 -152 25q-34 -26 -88 -26h-154z" />
<glyph unicode="f" horiz-adv-x="821" d="M-43 -35l92 350h76q44 0 57 45l54 201v2q0 18 -103 75q141 64 146 82l54 200q2 9 2 16q0 29 -36 29h-75l94 350h155q53 0 73 -26q34 26 167 26q134 0 153 -26q33 26 87 26h155l-136 -510h-230l31 115q2 9 2 16q0 29 -35 29h-120q-46 0 -80 -125l-22 -85h50l11 40h148 l-18 -75v-2q0 -19 102 -78q-140 -61 -145 -80l-22 -75h-148l11 40h-50l-46 -165q-3 -9 -3 -17q0 -28 36 -28h76l-93 -350h-155q-56 1 -73 26q-34 -26 -88 -26h-154z" />
<glyph unicode="g" horiz-adv-x="797" d="M93 640q130 58 136 80l75 280q82 308 430 308q98 0 129 -12l3 12h216l-143 -536h-216l18 68q7 28 7 50q0 82 -104 82q-132 0 -167 -132l-32 -120v-3q0 -18 56 -54q85 45 95 85h336l-208 -776h-216l4 12q-38 -12 -136 -12q-281 0 -281 201q0 48 16 107l75 280v3 q0 22 -93 77zM363 390q0 -82 104 -82q132 0 167 132l25 92h-120q1 6 1 11q0 35 -52 74q-81 -39 -86 -57l-32 -120q-7 -28 -7 -50z" />
<glyph unicode="h" horiz-adv-x="980" d="M-44 -35l93 350h76q45 0 57 45l54 200v2q0 19 -102 78q140 62 145 80l54 200q3 9 3 17q0 28 -36 28h-76l93 350h155q54 0 74 -25q31 25 86 25h115l-93 -350q-79 0 -91 -45l-45 -165h250l45 165q2 6 2 11q0 34 -72 34l93 350h116q54 0 74 -25q31 25 86 25h155l-93 -350 h-74q-45 0 -57 -45l-54 -200v-2q0 -19 101 -78q-139 -62 -144 -80l-54 -200q-3 -9 -3 -17q0 -28 36 -28h74l-93 -350h-155q-55 0 -74 25q-32 -25 -86 -25h-116l93 350q82 0 94 45l45 165h-250l-45 -165q-2 -6 -2 -11q0 -34 69 -34l-93 -350h-115q-55 0 -74 25 q-32 -25 -86 -25h-155z" />
<glyph unicode="i" horiz-adv-x="500" d="M-44 -35l93 350h76q45 0 57 45l54 200v2q0 19 -102 78q140 62 145 80l54 200q3 9 3 17q0 28 -36 28h-76l93 350h155q54 0 74 -25q31 25 86 25h155l-93 -350h-74q-45 0 -57 -45l-54 -200v-2q0 -19 101 -78q-139 -62 -144 -80l-54 -200q-3 -9 -3 -17q0 -28 36 -28h74 l-93 -350h-155q-55 0 -74 25q-32 -25 -86 -25h-155z" />
<glyph unicode="j" horiz-adv-x="861" d="M-44 -35l147 550h230l-20 -75q-7 -27 -7 -48q0 -77 98 -77q125 0 159 125l32 120v2q0 19 -102 78q140 62 145 80l55 200q2 9 2 16q0 29 -36 29h-75l93 350h156q53 0 73 -26q34 26 87 26h155l-94 -351l-74 2q-45 -1 -57 -46l-55 -200v-2q0 -19 101 -78q-139 -62 -144 -80 l-75 -280q-84 -315 -439 -315q-100 0 -123 9l-2 -9h-230z" />
<glyph unicode="k" horiz-adv-x="901" d="M-44 -35l93 350h75q45 0 57 45l53 200v2q0 19 -101 78q140 62 145 80l54 200q8 32 8 41q0 4 -1 4h-115l93 350h155q54 0 73 -26q33 26 87 26h155l-93 -350h-115q-5 0 -17 -45l-34 -120q-2 -9 -2 -17q0 -28 36 -29q165 1 188 86l64 240q63 235 373 235l-93 -350 q-80 0 -92 -45l-22 -80q-39 -144 -110 -200q21 -29 21 -82q0 -49 -18 -118l-22 -80q-2 -6 -2 -11q0 -34 70 -34l-92 -350q-259 0 -259 162q0 33 11 73l64 240q3 10 3 19q0 66 -145 66q-45 0 -57 -45l-33 -120q-3 -9 -3 -17q0 -28 36 -28h75l-93 -350h-155q-54 0 -73 26 q-33 -26 -87 -26h-155z" />
<glyph unicode="l" horiz-adv-x="821" d="M-43 -35l92 350h76q45 0 57 45l54 201v2q0 18 -103 75q141 64 146 82l54 200q2 9 2 16q0 29 -36 29h-75l94 350h155q53 0 73 -26q34 26 87 26h155l-94 -351l-74 2q-45 -1 -57 -46l-54 -200v-2q0 -19 102 -78q-140 -61 -145 -80l-33 -120q-15 -54 -15 -84q0 -41 26 -41 h121q44 0 57 45l31 115h230l-136 -510h-156q-53 1 -72 26q-33 -25 -168 -25q-134 0 -152 25q-34 -26 -88 -26h-154z" />
<glyph unicode="m" horiz-adv-x="1366" d="M-43 -28l91 336h69q52 0 65 52l54 200v3q0 22 -94 77q131 58 137 80l54 200q3 10 3 19q0 33 -42 33h-69l90 336h148q51 0 74 -29q34 29 86 29h122l-7 -917l483 917h122q51 0 74 -29q34 29 86 29h148l-90 -336h-67q-52 0 -65 -52l-54 -200v-3q0 -22 92 -77 q-129 -58 -135 -80l-54 -200q-3 -10 -3 -19q0 -33 42 -33h67l-91 -336h-148q-52 0 -71 29q-38 -29 -89 -29h-108l91 336q81 0 94 52l54 200v2q0 17 -46 48l-171 -302h45l-91 -336h-147q-52 1 -73 29q-37 -29 -88 -29h-148l91 336l43 -6q0 2 -1 8l-8 300q-66 -34 -70 -50 l-54 -200q-2 -7 -2 -14q0 -38 69 -38l-92 -336h-108q-52 0 -71 29q-38 -29 -89 -29h-148zM495 717q0 -13 26 -33l-2 125l-24 -89v-3zM1111 682q44 25 48 38l24 91z" />
<glyph unicode="n" horiz-adv-x="1047" d="M-43 -28l91 336h69q52 0 65 52l54 200v3q0 22 -94 77q131 58 137 80l54 200q3 10 3 19q0 33 -42 33h-69l90 336h148q51 0 74 -29q34 29 86 29h100l42 -639q70 35 75 52l54 199q3 10 3 19q0 33 -42 33h-69l90 336h148q51 0 74 -29q34 29 86 29h148l-90 -336h-67 q-52 0 -65 -52l-54 -200v-3q0 -22 92 -77q-129 -58 -135 -80l-54 -200q-3 -10 -3 -19q0 -33 42 -33h67l-91 -336h-148q-52 0 -71 29q-38 -29 -89 -29h-101l-42 638q-68 -34 -72 -50l-19 -72h1l-35 -128q-3 -10 -3 -19q0 -33 42 -33h67l-91 -336h-148q-52 0 -71 29 q-38 -29 -89 -29h-148zM494 718q0 -12 25 -33l-7 100l2 7h-1l-19 -72v-2zM770 595l7 -102l18 67v2q0 12 -25 33z" />
<glyph unicode="o" horiz-adv-x="900" d="M93 640q140 62 145 80l75 280q84 315 439 315q287 0 287 -206q0 -49 -16 -109l-75 -280v-2q0 -19 101 -78q-139 -62 -144 -80l-75 -280q-84 -315 -439 -315q-287 0 -287 206q0 49 16 109l75 280v2q0 19 -102 78zM386 392q0 -77 98 -77q125 0 159 125l32 120v2 q0 19 -102 78q140 62 145 80l32 120q7 27 7 48q0 77 -98 77q-125 0 -159 -125l-32 -120v-2q0 -19 101 -78q-139 -62 -144 -80l-32 -120q-7 -27 -7 -48z" />
<glyph unicode="p" horiz-adv-x="820" d="M-44 -35l93 350h75q45 0 57 45l53 200v2q0 19 -101 78q140 62 145 80l54 200q8 32 8 41q0 4 -1 4h-115l93 350h155q54 0 73 -26q33 26 167 26h40q287 0 287 -206q0 -49 -16 -109l-43 -160q-84 -314 -439 -315h-40q-45 0 -57 -45l-33 -120q-3 -9 -3 -17q0 -28 36 -28h75 l-93 -350h-155q-54 0 -73 26q-33 -26 -87 -26h-155zM526 783q0 -28 36 -29q164 1 187 85l1 3q7 26 7 46q0 77 -98 77h-40q-45 0 -79 -125l-12 -40q-2 -9 -2 -17z" />
<glyph unicode="q" horiz-adv-x="870" d="M93 640q130 58 136 80l75 280q82 308 430 308q282 0 282 -202q0 -47 -16 -106l-75 -280v-3q0 -22 92 -77q-129 -58 -135 -80l-75 -280q-51 -192 -173 -255q131 -17 131 -150q0 -49 -17 -113l-8 -30h-336q7 24 7 41q0 39 -36 39q-139 0 -139 133q0 20 3 43 q-145 34 -145 180q0 50 17 112l75 280v3q0 22 -93 77zM363 390q0 -82 104 -82q132 0 167 132l32 120v3q0 22 -93 77q130 58 136 80l32 120q7 28 7 50q0 82 -104 82q-132 0 -167 -132l-32 -120v-3q0 -22 92 -77q-129 -58 -135 -80l-32 -120q-7 -28 -7 -50z" />
<glyph unicode="r" horiz-adv-x="901" d="M-44 -35l93 350h75q45 0 57 45l53 200v2q0 19 -101 78q140 62 145 80l54 200q8 32 8 41q0 4 -1 4h-115l93 350h155q54 0 73 -26q33 26 167 26h40q287 0 287 -206q0 -49 -16 -109l-43 -160q-39 -144 -110 -200q21 -29 21 -82q0 -49 -18 -118l-22 -80q-2 -6 -2 -11 q0 -34 70 -34l-92 -350q-259 0 -259 162q0 33 11 73l64 240q3 10 3 19q0 66 -145 66q-45 0 -57 -45l-33 -120q-3 -9 -3 -17q0 -28 36 -28h75l-93 -350h-155q-54 0 -73 26q-33 -26 -87 -26h-155zM526 783q0 -28 36 -29q165 1 188 86q7 27 7 48q0 77 -98 77h-40 q-45 0 -79 -125l-12 -40q-2 -9 -2 -17z" />
<glyph unicode="s" horiz-adv-x="820" d="M-44 -35l147 550h230l-20 -75q-7 -27 -7 -48q0 -77 98 -77h80q125 0 159 125q3 11 3 21q0 49 -77 60q-13 -4 -101 -119q-29 123 -82 123l1 4q-215 13 -215 194q0 52 18 117l43 160q84 315 439 315h80q100 0 123 -9l2 9h230l-147 -550h-230l20 75q7 27 7 48q0 77 -98 77 h-80q-125 0 -159 -125q-3 -11 -3 -21q0 -49 77 -60q13 4 101 119q29 -123 82 -123l-1 -4q215 -13 215 -194q0 -52 -18 -117l-43 -160q-84 -315 -439 -315h-80q-100 0 -123 9l-2 -9h-230z" />
<glyph unicode="t" horiz-adv-x="900" d="M157 -35l92 350h75q44 0 57 45l54 201v2q0 18 -102 75q140 64 145 82l54 200q2 9 2 16q0 29 -35 29q-45 0 -57 -45l-30 -115h-231l136 510h356q54 0 73 -26q34 26 87 26h354l-136 -510h-230l31 115q3 10 3 17q0 28 -35 28q-46 0 -80 -125l-32 -120v-2q0 -19 103 -78 q-141 -61 -146 -80l-54 -200q-3 -9 -3 -17q0 -28 36 -28h75l-93 -350h-154q-56 1 -74 26q-33 -26 -87 -26h-154z" />
<glyph unicode="u" horiz-adv-x="981" d="M133 640q140 62 145 80l54 200q3 9 3 17q0 28 -36 28h-75l94 350h155q53 0 73 -26q34 26 87 26h155l-94 -351l-74 2q-45 -1 -58 -46l-54 -200v-2q0 -19 101 -78q-139 -62 -144 -80l-32 -120q-7 -27 -7 -48q0 -77 98 -77q125 0 159 125l32 120v2q0 19 -102 78 q140 62 145 80l55 200q2 9 2 16q0 29 -36 29h-75l94 350h155q53 0 73 -26q34 26 87 26h155l-94 -351l-74 2q-45 -1 -57 -46l-55 -200v-2q0 -19 101 -78q-139 -62 -144 -80l-75 -280q-84 -315 -439 -315q-287 0 -287 206q0 49 16 109l75 280v2q0 19 -102 78z" />
<glyph unicode="v" horiz-adv-x="966" d="M197 -28l91 336l42 2l1 618l-4 -2q-11 46 -33 46h-69l90 336h148q51 0 74 -29q34 29 86 29h107l-89 -336q-90 0 -94 -17q-2 -8 -8 -560l278 539l5 4q6 8 9 17v1q0 16 -86 16l90 336h108q51 0 74 -29q34 29 86 29h148l-90 -336h-67q-23 0 -84 -80h4l-315 -584h45l-91 -336 h-147q-52 1 -73 29q-37 -29 -88 -29h-148z" />
<glyph unicode="w" horiz-adv-x="1446" d="M197 -28l91 336l43 -4v624l-4 -2q-11 46 -33 46h-69l90 336h148q51 0 74 -29q34 29 86 29h107l-89 -336q-90 0 -94 -17v-3q0 -12 12 -60h-11l-9 -497l278 539l2 1l13 26v1q0 10 -87 10l90 336h108q51 0 74 -29q34 29 86 29h107l-89 -336q-88 0 -91 -10l-1 -70h-1l-9 -497 l278 539l5 4q6 8 9 17v1q0 16 -86 16l90 336h108q51 0 74 -29q34 29 86 29h148l-90 -336h-67q-23 0 -84 -80h4l-315 -584h45l-91 -336h-147q-52 1 -73 29q-37 -29 -88 -29h-148l91 336l43 -6q0 2 -1 209l-111 -203h45l-91 -336h-147q-52 1 -73 29q-37 -29 -88 -29h-148z" />
<glyph unicode="x" horiz-adv-x="980" d="M-44 -35l93 350h76q2 0 12 10h-6l354 315l-166 282l3 2q-20 41 -22 41h-76l93 350h155q54 0 74 -25q31 25 86 25h115l-93 -350h-106q0 -7 54 -80h-9l58 -97l176 156q12 12 13 17q0 4 -97 4l93 350h116q54 0 74 -25q31 25 86 25h155l-93 -350h-74q-3 0 -84 -80h-3 l-276 -245l145 -245h3q37 -80 40 -80h74l-93 -350h-155q-55 0 -74 25q-32 -25 -86 -25h-116l93 350h108v1q0 4 -11 18l-1 2l-92 156l-110 -97h-3q-77 -73 -77 -76q0 -4 97 -4l-93 -350h-115q-55 0 -74 25q-32 -25 -86 -25h-155z" />
<glyph unicode="y" horiz-adv-x="966" d="M198 -28l90 336h68q51 0 65 52l54 201v3q0 21 -93 74q65 31 74 34l-134 250l-1 -1q-38 51 -96 51l90 336h148q51 0 74 -29q34 29 86 29h108l-89 -336q-91 0 -95 -17v-3q0 -12 12 -60h11l68 -127l185 173h-1q6 8 9 17v1q0 16 -85 16l89 336h108q51 0 74 -29q34 29 86 29 h148l-90 -336q-56 0 -156 -80h1l-236 -220q8 -3 59 -32q-131 -57 -138 -80l-54 -200q-3 -10 -3 -19q0 -33 42 -33h68l-91 -336h-147q-52 1 -73 29q-37 -29 -88 -29h-147z" />
<glyph unicode="z" horiz-adv-x="805" d="M-45 -28l81 296l-8 9l231 232l3 11l12 41v2q0 22 -94 75q130 60 137 82l18 67l135 1l-11 -40l35 -1l223 225h-226q-51 0 -64 -52l-29 -108h-217l132 496h148q51 0 74 -29q34 29 166 29q130 0 154 -29q36 29 86 29h148l-89 -335l-215 -202l-3 -11l-10 -40v-3q0 -22 93 -77 q-130 -57 -136 -80l-20 -68h-134l11 40h-35l-223 -224h228q51 0 65 52l29 108h216l-133 -496h-149q-50 1 -71 28q-36 -27 -168 -27q-131 0 -152 28q-38 -29 -89 -29h-149z" />
<glyph unicode="{" horiz-adv-x="900" d="M136 799q163 73 170 102l23 85h170l-12 -47q132 9 159 111l108 400q103 385 573 385l-113 -420q-200 0 -244 -165l-54 -200q-47 -177 -140 -250q29 -39 29 -106q0 -61 -23 -144l-53 -200q-8 -30 -8 -54q0 -111 164 -111l-113 -420q-386 0 -386 259q0 57 19 126l107 400 q4 13 4 24q0 63 -106 84l-12 -42h-168l23 85v3q0 29 -117 95z" />
<glyph unicode="|" horiz-adv-x="600" d="M-99 -235l113 420h86q65 0 82 65l122 450v3q0 29 -117 97q163 72 170 100l120 450q4 13 4 24q0 41 -52 41h-86l113 420h185q64 0 91 -36q44 36 109 36h185l-113 -420h-84q-65 0 -82 -65l-120 -450v-3q0 -29 116 -97q-162 -72 -169 -100l-122 -450q-4 -13 -4 -24 q0 -41 52 -41h84l-113 -420h-185q-65 0 -89 36q-47 -36 -111 -36h-185z" />
<glyph unicode="}" horiz-adv-x="900" d="M-98 -235l113 420q200 0 244 165l53 200q48 177 140 250q-28 39 -28 107q0 60 22 143l54 200q8 30 8 54q0 111 -164 111l113 420q386 0 386 -259q0 -57 -19 -126l-108 -400q-5 -18 -5 -33q0 -71 106 -78l12 47h170l-23 -85v-3q0 -30 116 -99q-162 -70 -169 -98l-23 -85 h-168l11 48q-135 -20 -161 -114l-107 -400q-103 -385 -573 -385z" />
<glyph unicode="~" horiz-adv-x="900" d="M416 1684l89 330q81 65 145 93t172 28q106 0 174.5 -25t112.5 -25t118.5 23t206.5 126l-80 -298q-82 -65 -146 -93t-172 -28q-106 0 -174 25t-112 25q-47 0 -116 -11t-218 -170z" />
<glyph unicode="&#xa0;" />
<glyph unicode="&#xa1;" horiz-adv-x="500" d="M-43 -35l112 420q99 0 117 65l67 250v3q0 29 -117 97q163 72 170 100l40 150q37 135 173 135q106 0 106 -83q0 -23 -8 -52l-40 -150v-3q0 -29 115 -97q-162 -72 -169 -100l-67 -250q-3 -10 -3 -18q0 -47 86 -47l-112 -420h-135q-64 0 -92 36q-43 -36 -108 -36h-135z M436 1344q0 38 12 81q22 81 76 145.5t115 64.5t81 -64q10 -31 10 -66q0 -38 -12 -80q-22 -82 -76 -146t-115 -64t-81 64q-10 30 -10 65z" />
<glyph unicode="&#xa2;" d="M136 800q163 72 170 100l67 250q90 334 401 375q29 110 164 110q110 0 110 -74q0 -17 -5 -37q27 -4 29 -4l4 15h270l-166 -620h-270q25 92 25 133q0 27 -11 32l-149 -560q33 12 74 165h270l-63 -235q-90 -334 -400 -375q-29 -110 -165 -110q-111 0 -111 75q0 16 5 35 q-220 31 -220 233q0 63 21 142l67 250v3q0 29 -117 97zM492 553q0 -28 12 -33l150 560q-33 -12 -64 -130l-81 -300q-17 -64 -17 -97z" />
<glyph unicode="&#xa3;" horiz-adv-x="1050" d="M-43 -35l111 420h86q65 0 83 65l67 251v3q0 27 -118 94q149 68 160 68q1 0 1 -1l103 385q103 385 538 385q123 0 161 -15l4 15h270l-179 -670h-270l22 85q10 35 10 63q0 102 -130 102q-165 0 -210 -165l-30 -115h81l13 50h168l-21 -85v-3q0 -29 117 -97 q-163 -71 -170 -100l-25 -85h-168l13 50h-80l-32 -115q-18 -67 -18 -106q0 -59 39 -59h225q64 0 83 65l36 135h270l-166 -620h-186q-63 1 -90 35q-45 -34 -234 -35q-215 1 -240 36q-46 -36 -110 -36h-184z" />
<glyph unicode="&#xa4;" horiz-adv-x="1200" d="M-44 -35l112 420h86q7 0 37 30h-7l105 92q-7 24 -7 57q0 56 21 136l53 200q34 128 90 192l-35 60l3 2q-30 61 -37 61h-86l112 420h185q64 0 91 -36q44 36 109 36h135l-94 -351q30 1 65 1q36 0 64 -1l94 351h136q64 0 91 -36q44 36 109 36h185l-112 -420h-84 q-8 0 -109 -100h-3l-25 -23q7 -24 7 -56q0 -55 -21 -136l-53 -200q-34 -127 -90 -193l13 -22h3q47 -100 55 -100h84l-112 -420h-185q-65 0 -90 36q-46 -36 -110 -36h-136l94 351q-30 -1 -65 -1q-36 0 -64 1l-94 -351h-135q-65 0 -90 36q-46 -36 -110 -36h-185zM618 836 q0 -101 129 -101q164 0 208 163v3q4 15 4 27q0 76 -137 86q-168 -12 -195 -113v-3q-9 -34 -9 -62z" />
<glyph unicode="&#xa5;" horiz-adv-x="1200" d="M162 522q162 73 170 102l23 85h170l-13 -50h80l11 42v3q0 20 -65 62l-6 -25h-168l22 85v4q0 28 -116 94q162 73 170 102l23 85h-29l-22 42l-3 -2q-46 64 -118 64l112 420h185q64 0 91 -36q44 36 109 36h135l-111 -420q-113 0 -119 -21v-4q0 -16 15 -75h14l29 -55h166 l121 113l-2 -1q9 11 12 22v2q0 19 -106 19l111 420h135q64 0 91 -36q44 36 109 36h185l-112 -420q-70 0 -196 -100h1l-6 -5h-30l-20 -85v-3q0 -29 117 -97q-163 -71 -171 -100l-25 -85h-168l7 26q-91 -45 -97 -66l-12 -42h80l14 50h168l-21 -85v-3q0 -29 117 -97 q-163 -71 -171 -100l-24 -85h-98l-100 -373h-184q-66 1 -92 36q-45 -36 -109 -36h-184l99 374h-100l23 85v3q0 29 -117 95z" />
<glyph unicode="&#xa6;" horiz-adv-x="1650" d="M0 200v1100q0 200 200 200h1100q200 0 200 -200v-1100q0 -200 -200 -200h-1100q-200 0 -200 200zM25 200q1 -175 175 -175h1101q174 0 174 176v1099q0 175 -175 175h-1100q-174 0 -175 -175v-1100z" />
<glyph unicode="&#xa7;" d="M-98 -235l166 620h193q-78 62 -78 180q0 61 20 135l36 137q-12 36 -12 82q0 57 19 131l108 400q103 385 538 385h100q123 0 161 -15l4 15h270l-166 -620h-194q79 -63 79 -182q0 -59 -20 -133l-37 -137q13 -36 13 -82q0 -57 -20 -131l-107 -400q-103 -385 -538 -385h-100 q-123 0 -161 15l-4 -15h-270zM326 300q0 -115 124 -115h100q165 0 207 158q-59 -28 -223 -28q-124 0 -204 32q-4 -26 -4 -47zM518 836q0 -101 129 -101q164 0 208 163v3q4 15 4 27q0 76 -137 86q-168 -12 -195 -113v-3q-9 -34 -9 -62zM572 1257q58 28 222 28q124 0 205 -32 q4 26 4 47q0 115 -124 115h-100q-165 0 -207 -158z" />
<glyph unicode="&#xa8;" horiz-adv-x="700" d="M482 1895q0 38 12 80q22 82 76 146t115 64t81 -64q10 -30 10 -65q0 -38 -12 -81q-22 -81 -76 -145.5t-115 -64.5t-81 65q-10 30 -10 65zM882 1895q0 38 12 80q22 82 76 146t115 64t81 -64q10 -30 10 -65q0 -38 -12 -81q-22 -81 -76 -145.5t-115 -64.5t-81 65 q-10 30 -10 65z" />
<glyph unicode="&#xa9;" horiz-adv-x="850" d="M251 955q0 113 36 245q69 259 237.5 447t342.5 188t242 -188q33 -93 33 -203q0 -113 -35 -244q-70 -259 -238.5 -447t-342.5 -188t-241 188q-34 92 -34 202zM403 983l45 167q0 3 -24 17q-21 -90 -21 -165v-19zM441 1233q33 15 34 17l45 167q-49 -83 -79 -184zM470 782 q40 -47 102 -47t128 47q-53 -17 -120 -17t-110 17zM594 1051q0 -41 52 -41q65 0 82 65l16 60h170l-41 -152q56 97 89 217q27 105 27 193v23l-40 -151h-170l16 60q4 13 4 24q0 41 -52 41q-65 0 -82 -65l-20 -75q-1 -3 80 -50q-106 -47 -107 -50l-20 -75q-4 -13 -4 -24z M694 1618q52 17 119 17h108q-15 30 -100 30q-62 0 -127 -47z" />
<glyph unicode="&#xaa;" horiz-adv-x="1650" d="M0 200v1100q0 200 200 200h1100q200 0 200 -200v-1100q0 -200 -200 -200h-1100q-200 0 -200 200zM25 200q1 -175 175 -175h1101q174 0 174 176v1099q0 175 -175 175h-1100q-174 0 -175 -175v-1100z" />
<glyph unicode="&#xab;" horiz-adv-x="769" d="M75 479l473 338h62l-23 -84l-264 -254l128 -254l-22 -84h-62zM388 479l473 338h62l-23 -84l-264 -254l128 -254l-22 -84h-62z" />
<glyph unicode="&#xac;" horiz-adv-x="940" d="M134 632l46 170h910l-145 -540l-28 -22h-147l105 392h-741z" />
<glyph unicode="&#xad;" d="M136 799q163 73 170 102l23 85h170l-13 -50l430 -1l13 50h168l-21 -85v-3q0 -29 117 -97q-163 -71 -170 -100l-25 -85h-168l13 50l-431 1l-14 -50h-168l23 85v3q0 29 -117 95z" />
<glyph unicode="&#xae;" horiz-adv-x="850" d="M251 955q0 113 36 245q69 259 237.5 447t342.5 188t242 -188q33 -93 33 -203q0 -113 -35 -244q-70 -259 -238.5 -447t-342.5 -188t-241 188q-34 92 -34 202zM361 1010h60q15 0 19 15l33 125q0 3 -47 31l-17 9zM414 1212l23 7q62 29 63 31l33 125q4 15 14 15h-85zM458 776 q29 -41 114 -41q88 0 141 52q-37 11 -37 64q0 30 12 74l40 150q1 4 1 8q0 32 -80 32q-15 0 -19 -15l-20 -75q-1 -3 -1 -6q0 -9 12 -9h60l-66 -245h-110q-39 0 -47 11zM682 1294q0 -9 12 -9q90 0 101 40q4 13 4 24q0 41 -52 41h-25q-15 0 -32 -65l-7 -25q-1 -3 -1 -6z M685 1624q14 11 103 11h25q67 0 111 -17q-41 47 -103 47q-85 0 -136 -41zM885 1023q0 -13 46 -13l23 89q-8 -12 -12 -12q-3 0 -3 8q0 22 23 105q28 107 28 195v22l-25 -92q-25 -95 -62 -125q9 -13 9 -39q0 -33 -14 -86l-13 -50v-2z" />
<glyph unicode="&#xaf;" horiz-adv-x="1650" d="M0 200v1100q0 200 200 200h1100q200 0 200 -200v-1100q0 -200 -200 -200h-1100q-200 0 -200 200zM25 200q1 -175 175 -175h1101q174 0 174 176v1099q0 175 -175 175h-1100q-174 0 -175 -175v-1100z" />
<glyph unicode="&#xb0;" horiz-adv-x="975" d="M227 924q0 57 19 126l54 200q103 384 573 385l-72 -268q-203 -15 -230 -116l-1 -3q-8 -29 -8 -53q0 -110 164 -110l-113 -420q-386 0 -386 259zM618 665l113 420q199 0 242 163l1 3q3 12 3 23q0 80 -171 93l72 268q386 -1 386 -259q0 -57 -19 -126l-54 -200 q-103 -385 -573 -385z" />
<glyph unicode="&#xb1;" horiz-adv-x="1650" d="M0 200v1100q0 200 200 200h1100q200 0 200 -200v-1100q0 -200 -200 -200h-1100q-200 0 -200 200zM25 200q1 -175 175 -175h1101q174 0 174 176v1099q0 175 -175 175h-1100q-174 0 -175 -175v-1100z" />
<glyph unicode="&#xb2;" horiz-adv-x="1650" d="M0 200v1100q0 200 200 200h1100q200 0 200 -200v-1100q0 -200 -200 -200h-1100q-200 0 -200 200zM25 200q1 -175 175 -175h1101q174 0 174 176v1099q0 175 -175 175h-1100q-174 0 -175 -175v-1100z" />
<glyph unicode="&#xb3;" horiz-adv-x="1650" d="M0 200v1100q0 200 200 200h1100q200 0 200 -200v-1100q0 -200 -200 -200h-1100q-200 0 -200 200zM25 200q1 -175 175 -175h1101q174 0 174 176v1099q0 175 -175 175h-1100q-174 0 -175 -175v-1100z" />
<glyph unicode="&#xb4;" horiz-adv-x="700" d="M462 1839q0 18 5 36q11 41 40 72.5t118 59.5l363 150q64 28 97 28q61 0 81 -64q10 -30 10 -65q0 -38 -12 -81q-22 -81 -76 -145.5t-115 -64.5h-450q-40 0 -53 35q-8 19 -8 39z" />
<glyph unicode="&#xb5;" horiz-adv-x="1650" d="M0 200v1100q0 200 200 200h1100q200 0 200 -200v-1100q0 -200 -200 -200h-1100q-200 0 -200 200zM25 200q1 -175 175 -175h1101q174 0 174 176v1099q0 175 -175 175h-1100q-174 0 -175 -175v-1100z" />
<glyph unicode="&#xb6;" horiz-adv-x="936" d="M241 979q0 50 15 107q46 173 193 278.5t338 105.5h478l-38 -140h-127l-365 -1365h-152l365 1365h-96l-365 -1365h-154l198 740q-151 7 -235 111q-55 68 -55 163z" />
<glyph unicode="&#xb7;" horiz-adv-x="300" d="M168 720q0 38 11 80q22 82 76.5 146t115.5 64t81 -64q9 -30 9 -64q0 -39 -12 -82q-21 -81 -75.5 -145.5t-115.5 -64.5t-80 65q-10 31 -10 65z" />
<glyph unicode="&#xb8;" horiz-adv-x="751" d="M-28 -51q0 76 29 185h368q-7 -27 -7 -47q0 -52 48 -52q216 0 216 -193q0 -61 -21 -140l-10 -37h-420q8 30 8 51q0 49 -45 49q-166 0 -166 184z" />
<glyph unicode="&#xb9;" horiz-adv-x="1650" d="M0 200v1100q0 200 200 200h1100q200 0 200 -200v-1100q0 -200 -200 -200h-1100q-200 0 -200 200zM25 200q1 -175 175 -175h1101q174 0 174 176v1099q0 175 -175 175h-1100q-174 0 -175 -175v-1100z" />
<glyph unicode="&#xba;" horiz-adv-x="1650" d="M0 200v1100q0 200 200 200h1100q200 0 200 -200v-1100q0 -200 -200 -200h-1100q-200 0 -200 200zM25 200q1 -175 175 -175h1101q174 0 174 176v1099q0 175 -175 175h-1100q-174 0 -175 -175v-1100z" />
<glyph unicode="&#xbb;" horiz-adv-x="769" d="M3 141l22 84l264 254l-128 254l23 84h62l291 -338l-472 -338h-62zM316 141l22 84l264 254l-128 254l23 84h62l291 -338l-472 -338h-62z" />
<glyph unicode="&#xbc;" horiz-adv-x="1650" d="M0 200v1100q0 200 200 200h1100q200 0 200 -200v-1100q0 -200 -200 -200h-1100q-200 0 -200 200zM25 200q1 -175 175 -175h1101q174 0 174 176v1099q0 175 -175 175h-1100q-174 0 -175 -175v-1100z" />
<glyph unicode="&#xbd;" horiz-adv-x="1650" d="M0 200v1100q0 200 200 200h1100q200 0 200 -200v-1100q0 -200 -200 -200h-1100q-200 0 -200 200zM25 200q1 -175 175 -175h1101q174 0 174 176v1099q0 175 -175 175h-1100q-174 0 -175 -175v-1100z" />
<glyph unicode="&#xbe;" horiz-adv-x="1650" d="M0 200v1100q0 200 200 200h1100q200 0 200 -200v-1100q0 -200 -200 -200h-1100q-200 0 -200 200zM25 200q1 -175 175 -175h1101q174 0 174 176v1099q0 175 -175 175h-1100q-174 0 -175 -175v-1100z" />
<glyph unicode="&#xbf;" d="M39 217q0 59 20 133l53 200q97 359 452 381l2 4q63 0 173 143q30 -130 48 -138q130 16 158 104q38 142 173 142q106 0 106 -84q0 -23 -8 -52q-96 -359 -452 -381l-1 -4q-63 0 -173 -143q-30 130 -48 138q-135 -17 -160 -110q-9 -35 -9 -62q0 -103 130 -103h100 q165 0 209 165l23 85h270l-179 -670h-270l4 15q-46 -15 -169 -15h-100q-352 0 -352 252zM1035 1345q0 38 12 81q22 81 76 145.5t115 64.5t81 -64q10 -31 10 -66q0 -38 -12 -80q-22 -82 -76 -146t-115 -64t-81 64q-10 30 -10 65z" />
<glyph unicode="&#xc0;" horiz-adv-x="1200" d="M-44 -35l112 420h86q28 0 72 57l3 -3l74 141q-5 11 -107 70q162 72 179 135h38l234 430h-56l112 420h185q64 0 90 -36q45 35 111 36h184l-112 -420l-53 -3l-1 -427h38q-2 -8 -2 -15q0 -57 109 -120q-134 -59 -145 -70v-95h-4q22 -100 51 -100h84l-112 -420h-185 q-65 0 -90 36q-46 -36 -110 -36h-135l112 420q113 0 119 21q2 6 2 11q0 6 -2 11l-3 4l2 83h-296q-56 -99 -58 -109v-2q0 -19 106 -19l-113 -420h-134q-65 0 -90 36q-46 -36 -110 -36h-185zM680 785h160l6 321zM732 1895q0 38 12 80q22 82 76 146t115 64q34 0 83 -29 l283 -149q73 -28 85 -59q6 -17 6 -36q0 -17 -5 -37q-11 -41 -42.5 -75.5t-71.5 -34.5h-450q-61 0 -81 65q-10 30 -10 65z" />
<glyph unicode="&#xc1;" horiz-adv-x="1200" d="M-44 -35l112 420h86q28 0 72 57l3 -3l74 141q-5 11 -107 70q162 72 179 135h38l234 430h-56l112 420h185q64 0 90 -36q45 35 111 36h184l-112 -420l-53 -3l-1 -427h38q-2 -8 -2 -15q0 -57 109 -120q-134 -59 -145 -70v-95h-4q22 -100 51 -100h84l-112 -420h-185 q-65 0 -90 36q-46 -36 -110 -36h-135l112 420q113 0 119 21q2 6 2 11q0 6 -2 11l-3 4l2 83h-296q-56 -99 -58 -109v-2q0 -19 106 -19l-113 -420h-134q-65 0 -90 36q-46 -36 -110 -36h-185zM680 785h160l6 321zM712 1839q0 18 5 36q11 41 40 72.5t118 59.5l363 150 q64 28 97 28q61 0 81 -64q10 -30 10 -65q0 -38 -12 -81q-22 -81 -76 -145.5t-115 -64.5h-450q-40 0 -53 35q-8 19 -8 39z" />
<glyph unicode="&#xc2;" horiz-adv-x="1200" d="M-44 -35l112 420h86q28 0 72 57l3 -3l74 141q-5 11 -107 70q162 72 179 135h38l234 430h-56l112 420h185q64 0 90 -36q45 35 111 36h184l-112 -420l-53 -3l-1 -427h38q-2 -8 -2 -15q0 -57 109 -120q-134 -59 -145 -70v-95h-4q22 -100 51 -100h84l-112 -420h-185 q-65 0 -90 36q-46 -36 -110 -36h-135l112 420q113 0 119 21q2 6 2 11q0 6 -2 11l-3 4l2 83h-296q-56 -99 -58 -109v-2q0 -19 106 -19l-113 -420h-134q-65 0 -90 36q-46 -36 -110 -36h-185zM553 1765l479 470h235l226 -470h-287l-122 229l-244 -229h-287zM680 785h160l6 321z " />
<glyph unicode="&#xc3;" horiz-adv-x="1200" d="M-44 -35l112 420h86q28 0 72 57l3 -3l74 141q-5 11 -107 70q162 72 179 135h38l234 430h-56l112 420h185q64 0 90 -36q45 35 111 36h184l-112 -420l-53 -3l-1 -427h38q-2 -8 -2 -15q0 -57 109 -120q-134 -59 -145 -70v-95h-4q22 -100 51 -100h84l-112 -420h-185 q-65 0 -90 36q-46 -36 -110 -36h-135l112 420q113 0 119 21q2 6 2 11q0 6 -2 11l-3 4l2 83h-296q-56 -99 -58 -109v-2q0 -19 106 -19l-113 -420h-134q-65 0 -90 36q-46 -36 -110 -36h-185zM566 1684l89 330q81 65 145 93t172 28q106 0 174.5 -25t112.5 -25t118.5 23 t206.5 126l-80 -298q-82 -65 -146 -93t-172 -28q-106 0 -174 25t-112 25q-47 0 -116 -11t-218 -170zM680 785h160l6 321z" />
<glyph unicode="&#xc4;" horiz-adv-x="1200" d="M-44 -35l112 420h86q28 0 72 57l3 -3l74 141q-5 11 -107 70q162 72 179 135h38l234 430h-56l112 420h185q64 0 90 -36q45 35 111 36h184l-112 -420l-53 -3l-1 -427h38q-2 -8 -2 -15q0 -57 109 -120q-134 -59 -145 -70v-95h-4q22 -100 51 -100h84l-112 -420h-185 q-65 0 -90 36q-46 -36 -110 -36h-135l112 420q113 0 119 21q2 6 2 11q0 6 -2 11l-3 4l2 83h-296q-56 -99 -58 -109v-2q0 -19 106 -19l-113 -420h-134q-65 0 -90 36q-46 -36 -110 -36h-185zM680 785h160l6 321zM732 1895q0 38 12 80q22 82 76 146t115 64t81 -64 q10 -30 10 -65q0 -38 -12 -81q-22 -81 -76 -145.5t-115 -64.5t-81 65q-10 30 -10 65zM1132 1895q0 38 12 80q22 82 76 146t115 64t81 -64q10 -30 10 -65q0 -38 -12 -81q-22 -81 -76 -145.5t-115 -64.5t-81 65q-10 30 -10 65z" />
<glyph unicode="&#xc5;" horiz-adv-x="1200" d="M-44 -35l112 420h86q28 0 72 57l3 -3l74 141q-5 11 -107 70q162 72 179 135h38l234 430h-56l112 420h185q64 0 90 -36q45 35 111 36h184l-112 -420l-53 -3l-1 -427h38q-2 -8 -2 -15q0 -57 109 -120q-134 -59 -145 -70v-95h-4q22 -100 51 -100h84l-112 -420h-185 q-65 0 -90 36q-46 -36 -110 -36h-135l112 420q113 0 119 21q2 6 2 11q0 6 -2 11l-3 4l2 83h-296q-56 -99 -58 -109v-2q0 -19 106 -19l-113 -420h-134q-65 0 -90 36q-46 -36 -110 -36h-185zM680 785h160l6 321zM932 1895q0 38 12 80q22 82 76 146t115 64t81 -64 q10 -30 10 -65q0 -38 -12 -81q-22 -81 -76 -145.5t-115 -64.5t-81 65q-10 30 -10 65z" />
<glyph unicode="&#xc6;" horiz-adv-x="1650" d="M-44 -35l112 420h86q28 0 72 57l3 -3l74 141q-5 11 -107 70q162 72 179 135h38l234 430h-56l112 420h185q64 0 90 -36q45 35 111 36h150q63 0 89 -36q48 36 211 36q164 0 190 -36q46 36 110 36h185l-166 -620h-270l35 135q4 14 4 25q0 40 -50 41h-150q-66 -1 -111 -166 l-29 -115h80l13 50h168l-21 -85v-3q0 -29 117 -97q-163 -71 -170 -100l-25 -85h-168l13 50h-80l-32 -115q-18 -67 -18 -106q0 -59 39 -59h151q64 0 83 65l36 135h270l-166 -620h-186q-63 1 -90 35q-45 -34 -175 -34v-1h-185q-65 0 -90 36q-46 -36 -110 -36h-135l112 420 q113 0 119 21q2 6 2 11q0 6 -2 11l-3 4l2 83h-296q-56 -99 -58 -109v-2q0 -19 106 -19l-113 -420h-134q-65 0 -90 36q-46 -36 -110 -36h-185zM680 785h160l6 321zM1089 1206q16 11 17 16q0 -1 2 -10v64z" />
<glyph unicode="&#xc7;" horiz-adv-x="1101" d="M136 800q163 72 170 100l94 350q103 385 538 385q123 0 161 -15l4 15h270l-179 -670h-270l22 85q10 35 10 63q0 102 -130 102q-165 0 -210 -165l-40 -150v-3q0 -29 116 -97q-162 -72 -169 -100l-41 -150q-9 -35 -9 -62q0 -103 130 -103q165 0 209 165l23 85h270l-76 -285 q-65 -240 -216 -318q164 -22 164 -189q0 -61 -22 -141l-10 -37h-420q8 30 8 51q0 49 -45 49q-173 0 -173 165q0 25 4 55q-181 43 -181 226q0 61 21 139l94 350v3q0 29 -117 97z" />
<glyph unicode="&#xc8;" horiz-adv-x="1001" d="M-43 -35l111 420h86q65 0 83 65l67 251v3q0 27 -118 94q163 74 171 102l67 250q4 13 4 24q0 41 -52 41h-85l113 420h185q63 0 89 -36q48 36 211 36q164 0 190 -36q46 36 110 36h185l-166 -620h-270l35 135q4 14 4 25q0 40 -50 41h-150q-66 -1 -111 -166l-29 -115h80 l13 50h168l-21 -85v-3q0 -29 117 -97q-163 -71 -170 -100l-25 -85h-168l13 50h-80l-32 -115q-18 -67 -18 -106q0 -59 39 -59h151q64 0 83 65l36 135h270l-166 -620h-186q-63 1 -90 35q-45 -34 -210 -34q-164 0 -190 35q-46 -36 -110 -36h-184zM632 1895q0 38 12 80 q22 82 76 146t115 64q34 0 83 -29l283 -149q73 -28 85 -59q6 -17 6 -36q0 -17 -5 -37q-11 -41 -42.5 -75.5t-71.5 -34.5h-450q-61 0 -81 65q-10 30 -10 65z" />
<glyph unicode="&#xc9;" horiz-adv-x="1001" d="M-43 -35l111 420h86q65 0 83 65l67 251v3q0 27 -118 94q163 74 171 102l67 250q4 13 4 24q0 41 -52 41h-85l113 420h185q63 0 89 -36q48 36 211 36q164 0 190 -36q46 36 110 36h185l-166 -620h-270l35 135q4 14 4 25q0 40 -50 41h-150q-66 -1 -111 -166l-29 -115h80 l13 50h168l-21 -85v-3q0 -29 117 -97q-163 -71 -170 -100l-25 -85h-168l13 50h-80l-32 -115q-18 -67 -18 -106q0 -59 39 -59h151q64 0 83 65l36 135h270l-166 -620h-186q-63 1 -90 35q-45 -34 -210 -34q-164 0 -190 35q-46 -36 -110 -36h-184zM612 1839q0 18 5 36 q11 41 40 72.5t118 59.5l363 150q64 28 97 28q61 0 81 -64q10 -30 10 -65q0 -38 -12 -81q-22 -81 -76 -145.5t-115 -64.5h-450q-40 0 -53 35q-8 19 -8 39z" />
<glyph unicode="&#xca;" horiz-adv-x="1001" d="M-43 -35l111 420h86q65 0 83 65l67 251v3q0 27 -118 94q163 74 171 102l67 250q4 13 4 24q0 41 -52 41h-85l113 420h185q63 0 89 -36q48 36 211 36q164 0 190 -36q46 36 110 36h185l-166 -620h-270l35 135q4 14 4 25q0 40 -50 41h-150q-66 -1 -111 -166l-29 -115h80 l13 50h168l-21 -85v-3q0 -29 117 -97q-163 -71 -170 -100l-25 -85h-168l13 50h-80l-32 -115q-18 -67 -18 -106q0 -59 39 -59h151q64 0 83 65l36 135h270l-166 -620h-186q-63 1 -90 35q-45 -34 -210 -34q-164 0 -190 35q-46 -36 -110 -36h-184zM453 1765l479 470h235 l226 -470h-287l-122 229l-244 -229h-287z" />
<glyph unicode="&#xcb;" horiz-adv-x="1001" d="M-43 -35l111 420h86q65 0 83 65l67 251v3q0 27 -118 94q163 74 171 102l67 250q4 13 4 24q0 41 -52 41h-85l113 420h185q63 0 89 -36q48 36 211 36q164 0 190 -36q46 36 110 36h185l-166 -620h-270l35 135q4 14 4 25q0 40 -50 41h-150q-66 -1 -111 -166l-29 -115h80 l13 50h168l-21 -85v-3q0 -29 117 -97q-163 -71 -170 -100l-25 -85h-168l13 50h-80l-32 -115q-18 -67 -18 -106q0 -59 39 -59h151q64 0 83 65l36 135h270l-166 -620h-186q-63 1 -90 35q-45 -34 -210 -34q-164 0 -190 35q-46 -36 -110 -36h-184zM632 1895q0 38 12 80 q22 82 76 146t115 64t81 -64q10 -30 10 -65q0 -38 -12 -81q-22 -81 -76 -145.5t-115 -64.5t-81 65q-10 30 -10 65zM1032 1895q0 38 12 80q22 82 76 146t115 64t81 -64q10 -30 10 -65q0 -38 -12 -81q-22 -81 -76 -145.5t-115 -64.5t-81 65q-10 30 -10 65z" />
<glyph unicode="&#xcc;" horiz-adv-x="600" d="M-44 -35l112 420h86q65 0 83 65l67 250v3q0 29 -117 97q163 72 170 100l67 250q4 14 4 25q0 40 -51 40h-86l112 420h185q64 0 91 -36q44 36 109 36h185l-112 -420h-84q-65 0 -83 -65l-67 -250v-3q0 -29 116 -97q-162 -72 -169 -100l-67 -250q-4 -14 -4 -25q0 -40 51 -40 h84l-112 -420h-185q-65 0 -90 36q-46 -36 -110 -36h-185zM432 1895q0 38 12 80q22 82 76 146t115 64q34 0 83 -29l283 -149q73 -28 85 -59q6 -17 6 -36q0 -17 -5 -37q-11 -41 -42.5 -75.5t-71.5 -34.5h-450q-61 0 -81 65q-10 30 -10 65z" />
<glyph unicode="&#xcd;" horiz-adv-x="600" d="M-44 -35l112 420h86q65 0 83 65l67 250v3q0 29 -117 97q163 72 170 100l67 250q4 14 4 25q0 40 -51 40h-86l112 420h185q64 0 91 -36q44 36 109 36h185l-112 -420h-84q-65 0 -83 -65l-67 -250v-3q0 -29 116 -97q-162 -72 -169 -100l-67 -250q-4 -14 -4 -25q0 -40 51 -40 h84l-112 -420h-185q-65 0 -90 36q-46 -36 -110 -36h-185zM412 1839q0 18 5 36q11 41 40 72.5t118 59.5l363 150q64 28 97 28q61 0 81 -64q10 -30 10 -65q0 -38 -12 -81q-22 -81 -76 -145.5t-115 -64.5h-450q-40 0 -53 35q-8 19 -8 39z" />
<glyph unicode="&#xce;" horiz-adv-x="600" d="M-44 -35l112 420h86q65 0 83 65l67 250v3q0 29 -117 97q163 72 170 100l67 250q4 14 4 25q0 40 -51 40h-86l112 420h185q64 0 91 -36q44 36 109 36h185l-112 -420h-84q-65 0 -83 -65l-67 -250v-3q0 -29 116 -97q-162 -72 -169 -100l-67 -250q-4 -14 -4 -25q0 -40 51 -40 h84l-112 -420h-185q-65 0 -90 36q-46 -36 -110 -36h-185zM253 1765l479 470h235l226 -470h-287l-122 229l-244 -229h-287z" />
<glyph unicode="&#xcf;" horiz-adv-x="600" d="M-44 -35l112 420h86q65 0 83 65l67 250v3q0 29 -117 97q163 72 170 100l67 250q4 14 4 25q0 40 -51 40h-86l112 420h185q64 0 91 -36q44 36 109 36h185l-112 -420h-84q-65 0 -83 -65l-67 -250v-3q0 -29 116 -97q-162 -72 -169 -100l-67 -250q-4 -14 -4 -25q0 -40 51 -40 h84l-112 -420h-185q-65 0 -90 36q-46 -36 -110 -36h-185zM432 1895q0 38 12 80q22 82 76 146t115 64t81 -64q10 -30 10 -65q0 -38 -12 -81q-22 -81 -76 -145.5t-115 -64.5t-81 65q-10 30 -10 65zM832 1895q0 38 12 80q22 82 76 146t115 64t81 -64q10 -30 10 -65 q0 -38 -12 -81q-22 -81 -76 -145.5t-115 -64.5t-81 65q-10 30 -10 65z" />
<glyph unicode="&#xd0;" horiz-adv-x="1200" d="M56 -35l112 420h85q65 0 83 65l44 165h-150l23 85v3q0 29 -117 95q162 73 170 102l23 85h150l44 165q10 35 10 52q0 13 -7 13h-135l112 420h185q64 0 90 -36q46 36 210 36h50q352 0 352 -252q0 -59 -20 -133l-94 -350v-3q0 -29 115 -97q-161 -72 -168 -100l-94 -350 q-103 -385 -538 -385h-50q-164 0 -191 36q-45 -36 -109 -36h-185zM615 443q0 -59 39 -59h50q165 0 209 165l134 500q9 35 9 62q0 103 -129 104l-51 -1q-65 0 -109 -165l-18 -64h148l-21 -85v-4q0 -29 87 -96q-133 -71 -140 -100l-25 -85h-147l-18 -66q-18 -67 -18 -106z" />
<glyph unicode="&#xd1;" horiz-adv-x="1301" d="M-44 -35l112 420h86q65 0 83 65l67 250v3q0 29 -117 97q163 72 170 100l67 250q4 14 4 25q0 40 -51 40h-86l112 420h185q64 0 91 -36q44 36 109 36h125l52 -798q87 43 93 64l67 249q4 14 4 25q0 40 -51 40h-86l112 420h185q64 0 91 -36q44 36 109 36h185l-112 -420h-84 q-65 0 -83 -65l-67 -250v-3q0 -29 116 -97q-162 -72 -169 -100l-67 -250q-4 -14 -4 -25q0 -40 51 -40h84l-112 -420h-185q-65 0 -90 36q-46 -36 -110 -36h-126l-53 798q-85 -43 -90 -63l-25 -90h1l-42 -160q-4 -14 -4 -25q0 -40 51 -40h84l-112 -420h-185q-65 0 -90 36 q-46 -36 -110 -36h-185zM616 1684l89 330q81 65 145 93t172 28q106 0 174.5 -25t112.5 -25t118.5 23t206.5 126l-80 -298q-82 -65 -146 -93t-172 -28q-106 0 -174 25t-112 25q-47 0 -116 -11t-218 -170zM626 897q0 -15 31 -41l-8 125l2 9h-1l-24 -90v-3zM971 744l9 -128 l23 84v3q0 15 -32 41z" />
<glyph unicode="&#xd2;" horiz-adv-x="1100" d="M136 800q163 72 170 100l94 350q103 385 538 385q352 0 352 -252q0 -59 -20 -133l-94 -350v-3q0 -29 116 -97q-162 -72 -169 -100l-94 -350q-103 -385 -538 -385q-352 0 -352 252q0 59 20 133l94 350v3q0 29 -117 97zM473 488q0 -103 130 -103q165 0 209 165l41 150v3 q0 29 -117 97q163 72 170 100l40 150q10 35 10 63q0 102 -130 102q-165 0 -210 -165l-40 -150v-3q0 -29 116 -97q-162 -72 -169 -100l-41 -150q-9 -35 -9 -62zM682 1895q0 38 12 80q22 82 76 146t115 64q34 0 83 -29l283 -149q73 -28 85 -59q6 -17 6 -36q0 -17 -5 -37 q-11 -41 -42.5 -75.5t-71.5 -34.5h-450q-61 0 -81 65q-10 30 -10 65z" />
<glyph unicode="&#xd3;" horiz-adv-x="1100" d="M136 800q163 72 170 100l94 350q103 385 538 385q352 0 352 -252q0 -59 -20 -133l-94 -350v-3q0 -29 116 -97q-162 -72 -169 -100l-94 -350q-103 -385 -538 -385q-352 0 -352 252q0 59 20 133l94 350v3q0 29 -117 97zM473 488q0 -103 130 -103q165 0 209 165l41 150v3 q0 29 -117 97q163 72 170 100l40 150q10 35 10 63q0 102 -130 102q-165 0 -210 -165l-40 -150v-3q0 -29 116 -97q-162 -72 -169 -100l-41 -150q-9 -35 -9 -62zM662 1839q0 18 5 36q11 41 40 72.5t118 59.5l363 150q64 28 97 28q61 0 81 -64q10 -30 10 -65q0 -38 -12 -81 q-22 -81 -76 -145.5t-115 -64.5h-450q-40 0 -53 35q-8 19 -8 39z" />
<glyph unicode="&#xd4;" horiz-adv-x="1100" d="M136 800q163 72 170 100l94 350q103 385 538 385q352 0 352 -252q0 -59 -20 -133l-94 -350v-3q0 -29 116 -97q-162 -72 -169 -100l-94 -350q-103 -385 -538 -385q-352 0 -352 252q0 59 20 133l94 350v3q0 29 -117 97zM473 488q0 -103 130 -103q165 0 209 165l41 150v3 q0 29 -117 97q163 72 170 100l40 150q10 35 10 63q0 102 -130 102q-165 0 -210 -165l-40 -150v-3q0 -29 116 -97q-162 -72 -169 -100l-41 -150q-9 -35 -9 -62zM503 1765l479 470h235l226 -470h-287l-122 229l-244 -229h-287z" />
<glyph unicode="&#xd5;" horiz-adv-x="1100" d="M136 800q163 72 170 100l94 350q103 385 538 385q352 0 352 -252q0 -59 -20 -133l-94 -350v-3q0 -29 116 -97q-162 -72 -169 -100l-94 -350q-103 -385 -538 -385q-352 0 -352 252q0 59 20 133l94 350v3q0 29 -117 97zM473 488q0 -103 130 -103q165 0 209 165l41 150v3 q0 29 -117 97q163 72 170 100l40 150q10 35 10 63q0 102 -130 102q-165 0 -210 -165l-40 -150v-3q0 -29 116 -97q-162 -72 -169 -100l-41 -150q-9 -35 -9 -62zM516 1684l89 330q81 65 145 93t172 28q106 0 174.5 -25t112.5 -25t118.5 23t206.5 126l-80 -298 q-82 -65 -146 -93t-172 -28q-106 0 -174 25t-112 25q-47 0 -116 -11t-218 -170z" />
<glyph unicode="&#xd6;" horiz-adv-x="1100" d="M136 800q163 72 170 100l94 350q103 385 538 385q352 0 352 -252q0 -59 -20 -133l-94 -350v-3q0 -29 116 -97q-162 -72 -169 -100l-94 -350q-103 -385 -538 -385q-352 0 -352 252q0 59 20 133l94 350v3q0 29 -117 97zM473 488q0 -103 130 -103q165 0 209 165l41 150v3 q0 29 -117 97q163 72 170 100l40 150q10 35 10 63q0 102 -130 102q-165 0 -210 -165l-40 -150v-3q0 -29 116 -97q-162 -72 -169 -100l-41 -150q-9 -35 -9 -62zM682 1895q0 38 12 80q22 82 76 146t115 64t81 -64q10 -30 10 -65q0 -38 -12 -81q-22 -81 -76 -145.5t-115 -64.5 t-81 65q-10 30 -10 65zM1082 1895q0 38 12 80q22 82 76 146t115 64t81 -64q10 -30 10 -65q0 -38 -12 -81q-22 -81 -76 -145.5t-115 -64.5t-81 65q-10 30 -10 65z" />
<glyph unicode="&#xd7;" d="M-17 65l113 420h86q7 0 37 30h-3l304 285l-135 253l2 1q-30 61 -37 61h-86l112 420h185q64 0 92 -36q43 36 108 36h86l-112 -420q-90 0 -91 -1v-1q0 -12 63 -98h-14l19 -40l101 98l1 1q26 26 29 37q1 4 -78 4l112 420h85q64 0 92 -36q43 36 108 36h185l-112 -420h-84 q-8 0 -109 -100h-2l-230 -215l114 -214h2q47 -100 55 -100h84l-112 -420h-185q-65 0 -90 36q-45 -36 -110 -37h-85l113 420q90 1 90 2v2q0 10 -19 36l-3 3l-46 97l-40 -40h2q-88 -85 -91 -96q-1 -4 77 -4l-113 -420h-85q-65 0 -89 36q-47 -36 -111 -36h-185z" />
<glyph unicode="&#xd8;" horiz-adv-x="1100" d="M136 800q163 72 170 100l94 350q103 385 538 385q352 0 352 -252q0 -59 -20 -133l-94 -350v-3q0 -29 116 -97q-162 -72 -169 -100l-94 -350q-103 -385 -538 -385q-352 0 -352 252q0 59 20 133l94 350v3q0 29 -117 97zM495 413q15 -28 108 -28q165 0 209 165l77 285z M540 765l394 422q-15 28 -108 28q-165 0 -210 -165z" />
<glyph unicode="&#xd9;" horiz-adv-x="1201" d="M186 800q163 72 170 100l67 250q4 14 4 25q0 40 -51 40h-85l113 420h185q63 0 89 -36q48 36 111 36h185l-113 -421l-84 2q-65 -1 -84 -66l-67 -250v-3q0 -29 116 -97q-162 -72 -169 -100l-41 -150q-9 -35 -9 -62q0 -103 130 -103q165 0 209 165l41 150v3q0 29 -117 97 q163 72 170 100l68 250q4 13 4 24q0 41 -52 41h-85l113 420h185q63 0 89 -36q48 36 111 36h185l-113 -421l-84 2q-65 -1 -83 -66l-68 -250v-3q0 -29 116 -97q-162 -72 -169 -100l-94 -350q-103 -385 -538 -385q-352 0 -352 252q0 59 20 133l94 350v3q0 29 -117 97zM732 1895 q0 38 12 80q22 82 76 146t115 64q34 0 83 -29l283 -149q73 -28 85 -59q6 -17 6 -36q0 -17 -5 -37q-11 -41 -42.5 -75.5t-71.5 -34.5h-450q-61 0 -81 65q-10 30 -10 65z" />
<glyph unicode="&#xda;" horiz-adv-x="1201" d="M186 800q163 72 170 100l67 250q4 14 4 25q0 40 -51 40h-85l113 420h185q63 0 89 -36q48 36 111 36h185l-113 -421l-84 2q-65 -1 -84 -66l-67 -250v-3q0 -29 116 -97q-162 -72 -169 -100l-41 -150q-9 -35 -9 -62q0 -103 130 -103q165 0 209 165l41 150v3q0 29 -117 97 q163 72 170 100l68 250q4 13 4 24q0 41 -52 41h-85l113 420h185q63 0 89 -36q48 36 111 36h185l-113 -421l-84 2q-65 -1 -83 -66l-68 -250v-3q0 -29 116 -97q-162 -72 -169 -100l-94 -350q-103 -385 -538 -385q-352 0 -352 252q0 59 20 133l94 350v3q0 29 -117 97zM712 1839 q0 18 5 36q11 41 40 72.5t118 59.5l363 150q64 28 97 28q61 0 81 -64q10 -30 10 -65q0 -38 -12 -81q-22 -81 -76 -145.5t-115 -64.5h-450q-40 0 -53 35q-8 19 -8 39z" />
<glyph unicode="&#xdb;" horiz-adv-x="1201" d="M186 800q163 72 170 100l67 250q4 14 4 25q0 40 -51 40h-85l113 420h185q63 0 89 -36q48 36 111 36h185l-113 -421l-84 2q-65 -1 -84 -66l-67 -250v-3q0 -29 116 -97q-162 -72 -169 -100l-41 -150q-9 -35 -9 -62q0 -103 130 -103q165 0 209 165l41 150v3q0 29 -117 97 q163 72 170 100l68 250q4 13 4 24q0 41 -52 41h-85l113 420h185q63 0 89 -36q48 36 111 36h185l-113 -421l-84 2q-65 -1 -83 -66l-68 -250v-3q0 -29 116 -97q-162 -72 -169 -100l-94 -350q-103 -385 -538 -385q-352 0 -352 252q0 59 20 133l94 350v3q0 29 -117 97zM553 1765 l479 470h235l226 -470h-287l-122 229l-244 -229h-287z" />
<glyph unicode="&#xdc;" horiz-adv-x="1201" d="M186 800q163 72 170 100l67 250q4 14 4 25q0 40 -51 40h-85l113 420h185q63 0 89 -36q48 36 111 36h185l-113 -421l-84 2q-65 -1 -84 -66l-67 -250v-3q0 -29 116 -97q-162 -72 -169 -100l-41 -150q-9 -35 -9 -62q0 -103 130 -103q165 0 209 165l41 150v3q0 29 -117 97 q163 72 170 100l68 250q4 13 4 24q0 41 -52 41h-85l113 420h185q63 0 89 -36q48 36 111 36h185l-113 -421l-84 2q-65 -1 -83 -66l-68 -250v-3q0 -29 116 -97q-162 -72 -169 -100l-94 -350q-103 -385 -538 -385q-352 0 -352 252q0 59 20 133l94 350v3q0 29 -117 97zM732 1895 q0 38 12 80q22 82 76 146t115 64t81 -64q10 -30 10 -65q0 -38 -12 -81q-22 -81 -76 -145.5t-115 -64.5t-81 65q-10 30 -10 65zM1132 1895q0 38 12 80q22 82 76 146t115 64t81 -64q10 -30 10 -65q0 -38 -12 -81q-22 -81 -76 -145.5t-115 -64.5t-81 65q-10 30 -10 65z" />
<glyph unicode="&#xdd;" horiz-adv-x="1200" d="M257 -35l111 420h85q64 0 83 65l67 251v3q0 28 -116 94l92 41l-167 314l-3 -2q-46 64 -118 64l112 420h185q64 0 91 -36q44 36 109 36h135l-111 -420q-113 0 -119 -21v-4q0 -16 15 -75h14l84 -159l232 217l-2 -1q9 11 12 22v2q0 19 -106 19l111 420h135q64 0 91 -36 q44 36 109 36h185l-112 -420q-70 0 -196 -100h1l-292 -275l71 -40q-164 -71 -172 -100l-67 -250q-4 -14 -4 -25q0 -40 51 -40h85l-112 -420h-184q-66 1 -92 36q-45 -36 -109 -36h-184zM712 1839q0 18 5 36q11 41 40 72.5t118 59.5l363 150q64 28 97 28q61 0 81 -64 q10 -30 10 -65q0 -38 -12 -81q-22 -81 -76 -145.5t-115 -64.5h-450q-40 0 -53 35q-8 19 -8 39z" />
<glyph unicode="&#xde;" d="M-44 -35l112 420h85q65 0 69 15l14 50v3q0 29 -116 97q162 72 169 100l81 300v3q0 28 -118 97q163 72 182 135q1 3 1 6q0 24 -58 24h-86l112 420h185q64 0 91 -36q44 36 109 36h185l-112 -420h-85q-65 0 -69 -15q-1 -3 -1 -6q0 -9 12 -9h100q352 0 352 -252 q0 -59 -20 -133q-103 -384 -538 -385h-101q-15 0 -19 -15v-2q0 -13 61 -13h85l-112 -420h-185q-64 0 -91 36q-45 -36 -109 -36h-185zM582 726q0 -41 52 -42q216 1 246 116q4 14 4 27q0 88 -188 88q-65 0 -96 -115l-14 -50q-4 -13 -4 -24z" />
<glyph unicode="&#xdf;" horiz-adv-x="1050" d="M-44 -35l112 420h86q65 0 83 65l67 250v3q0 29 -117 97q163 72 170 100l31 115h-1l63 235q103 385 538 385q352 0 352 -252q0 -59 -20 -133l-54 -200q-47 -177 -140 -250q29 -39 29 -106q0 -61 -23 -144l-53 -200q-103 -385 -573 -385l112 420q200 0 244 165q4 13 4 24 q0 80 -172 93l9 33v3q0 28 -105 90l-91 -343q-3 -10 -3 -18q0 -47 85 -47l-113 -420h-135q-65 0 -90 36q-46 -36 -110 -36h-185zM602 807q147 66 154 93l9 33q204 15 231 117q10 35 10 63q0 102 -130 102q-163 0 -208 -161z" />
<glyph unicode="&#xe0;" horiz-adv-x="966" d="M-43 -28l91 336h69q22 0 57 46l2 -3l59 113q-3 9 -85 56q130 58 143 108h30l187 344h-45l90 336h148q51 0 73 -29q35 28 88 29h147l-90 -336l-42 -2v-342h30q-2 -6 -2 -12q0 -45 87 -96q-106 -47 -115 -56v-76h-4q19 -80 42 -80h67l-91 -336h-148q-52 0 -71 29 q-38 -29 -89 -29h-108l91 336q90 0 94 17q1 6 1 12v5l-3 4l1 66h-236q-45 -79 -47 -87v-1q0 -16 86 -16l-92 -336h-107q-52 0 -71 29q-38 -29 -89 -29h-148zM537 628h128l5 257zM579 1516q0 30 9 64q18 66 61 117t92 51q27 0 66 -23l226 -119q59 -23 69 -48q5 -13 5 -29 q0 -13 -4 -29q-9 -33 -34.5 -60.5t-57.5 -27.5h-360q-49 0 -64 52q-8 24 -8 52z" />
<glyph unicode="&#xe1;" horiz-adv-x="966" d="M-43 -28l91 336h69q22 0 57 46l2 -3l59 113q-3 9 -85 56q130 58 143 108h30l187 344h-45l90 336h148q51 0 73 -29q35 28 88 29h147l-90 -336l-42 -2v-342h30q-2 -6 -2 -12q0 -45 87 -96q-106 -47 -115 -56v-76h-4q19 -80 42 -80h67l-91 -336h-148q-52 0 -71 29 q-38 -29 -89 -29h-108l91 336q90 0 94 17q1 6 1 12v5l-3 4l1 66h-236q-45 -79 -47 -87v-1q0 -16 86 -16l-92 -336h-107q-52 0 -71 29q-38 -29 -89 -29h-148zM537 628h128l5 257zM563 1471q0 14 4 29q9 33 32 58t94 48l290 120q52 22 78 22q49 0 65 -51q8 -24 8 -51 q0 -31 -10 -66q-17 -65 -60.5 -116.5t-92.5 -51.5h-360q-32 0 -42 28q-6 14 -6 31z" />
<glyph unicode="&#xe2;" horiz-adv-x="966" d="M-43 -28l91 336h69q22 0 57 46l2 -3l59 113q-3 9 -85 56q130 58 143 108h30l187 344h-45l90 336h148q51 0 73 -29q35 28 88 29h147l-90 -336l-42 -2v-342h30q-2 -6 -2 -12q0 -45 87 -96q-106 -47 -115 -56v-76h-4q19 -80 42 -80h67l-91 -336h-148q-52 0 -71 29 q-38 -29 -89 -29h-108l91 336q90 0 94 17q1 6 1 12v5l-3 4l1 66h-236q-45 -79 -47 -87v-1q0 -16 86 -16l-92 -336h-107q-52 0 -71 29q-38 -29 -89 -29h-148zM435 1412l383 376h188l181 -376h-230l-97 183l-195 -183h-230zM537 628h128l5 257z" />
<glyph unicode="&#xe3;" horiz-adv-x="966" d="M-43 -28l91 336h69q22 0 57 46l2 -3l59 113q-3 9 -85 56q130 58 143 108h30l187 344h-45l90 336h148q51 0 73 -29q35 28 88 29h147l-90 -336l-42 -2v-342h30q-2 -6 -2 -12q0 -45 87 -96q-106 -47 -115 -56v-76h-4q19 -80 42 -80h67l-91 -336h-148q-52 0 -71 29 q-38 -29 -89 -29h-108l91 336q90 0 94 17q1 6 1 12v5l-3 4l1 66h-236q-45 -79 -47 -87v-1q0 -16 86 -16l-92 -336h-107q-52 0 -71 29q-38 -29 -89 -29h-148zM446 1347l71 264q65 52 116.5 74.5t137.5 22.5q85 0 139.5 -20t89.5 -20t95 18.5t165 100.5l-64 -238 q-65 -52 -116.5 -74.5t-137.5 -22.5q-85 0 -139.5 20t-89.5 20q-38 0 -93 -9t-174 -136zM537 628h128l5 257z" />
<glyph unicode="&#xe4;" horiz-adv-x="966" d="M-43 -28l91 336h69q22 0 57 46l2 -3l59 113q-3 9 -85 56q130 58 143 108h30l187 344h-45l90 336h148q51 0 73 -29q35 28 88 29h147l-90 -336l-42 -2v-342h30q-2 -6 -2 -12q0 -45 87 -96q-106 -47 -115 -56v-76h-4q19 -80 42 -80h67l-91 -336h-148q-52 0 -71 29 q-38 -29 -89 -29h-108l91 336q90 0 94 17q1 6 1 12v5l-3 4l1 66h-236q-45 -79 -47 -87v-1q0 -16 86 -16l-92 -336h-107q-52 0 -71 29q-38 -29 -89 -29h-148zM537 628h128l5 257zM579 1516q0 30 9 64q18 66 61 117t92 51t65 -51q8 -24 8 -51q0 -31 -10 -66 q-17 -65 -60.5 -116.5t-92.5 -51.5t-64 52q-8 24 -8 52zM899 1516q0 30 9 64q18 66 61 117t92 51t65 -51q8 -24 8 -51q0 -31 -10 -66q-17 -65 -60.5 -116.5t-92.5 -51.5t-64 52q-8 24 -8 52z" />
<glyph unicode="&#xe5;" horiz-adv-x="966" d="M-43 -28l91 336h69q22 0 57 46l2 -3l59 113q-3 9 -85 56q130 58 143 108h30l187 344h-45l90 336h148q51 0 73 -29q35 28 88 29h147l-90 -336l-42 -2v-342h30q-2 -6 -2 -12q0 -45 87 -96q-106 -47 -115 -56v-76h-4q19 -80 42 -80h67l-91 -336h-148q-52 0 -71 29 q-38 -29 -89 -29h-108l91 336q90 0 94 17q1 6 1 12v5l-3 4l1 66h-236q-45 -79 -47 -87v-1q0 -16 86 -16l-92 -336h-107q-52 0 -71 29q-38 -29 -89 -29h-148zM537 628h128l5 257zM739 1516q0 30 9 64q18 66 61 117t92 51t65 -51q8 -24 8 -51q0 -31 -10 -66 q-17 -65 -60.5 -116.5t-92.5 -51.5t-64 52q-8 24 -8 52z" />
<glyph unicode="&#xe6;" horiz-adv-x="1326" d="M-43 -28l91 336h69q22 0 57 46l2 -3l59 113q-3 9 -85 56q130 58 143 108h30l187 344h-45l90 336h148q51 0 73 -29q35 28 88 29h120q50 0 72 -29q37 29 168 29t153 -29q36 29 87 29h148l-132 -496h-216l28 108q3 11 3 19q0 33 -40 34h-120q-54 -1 -89 -133l-24 -92h64 l11 40h134l-16 -68v-3q0 -22 93 -77q-130 -57 -136 -80l-20 -68h-134l11 40h-64l-26 -92q-14 -53 -14 -85q0 -47 31 -47h121q51 0 65 52l29 108h216l-133 -496h-149q-49 1 -71 28q-36 -27 -140 -27l-1 -1h-148q-52 0 -71 29q-38 -29 -89 -29h-108l91 336q90 0 94 17 q1 6 1 12v5l-3 4l1 66h-236q-45 -79 -47 -87v-1q0 -16 86 -16l-92 -336h-107q-52 0 -71 29q-38 -29 -89 -29h-148zM537 628h128l5 257zM865 965q12 9 13 13q0 -1 1 -8l1 51z" />
<glyph unicode="&#xe7;" horiz-adv-x="881" d="M93 640q140 62 145 80l75 280q84 315 439 315q100 0 123 -9l2 9h230l-147 -550h-230l20 75q7 27 7 48q0 77 -98 77q-125 0 -159 -125l-32 -120v-2q0 -19 101 -78q-139 -62 -144 -80l-32 -120q-7 -27 -7 -48q0 -77 98 -77q125 0 159 125l20 75h230l-63 -235 q-50 -185 -156 -251q114 -25 114 -152q0 -50 -17 -115l-10 -37h-350q7 27 7 45q0 35 -29 35q-145 0 -145 135q0 20 3 42q-144 35 -144 183q0 51 17 115l75 280v2q0 19 -102 78z" />
<glyph unicode="&#xe8;" horiz-adv-x="801" d="M-43 -35l92 350h76q45 0 57 45l54 201v2q0 18 -103 75q141 64 146 82l54 200q2 9 2 16q0 29 -36 29h-75l94 350h155q53 0 73 -26q34 26 167 26q134 0 153 -26q33 26 87 26h155l-136 -510h-230l30 115q3 10 3 17q0 28 -35 29h-120q-46 -1 -80 -126l-22 -85h50l11 40h148 l-18 -75v-2q0 -19 102 -78q-140 -61 -145 -80l-22 -75h-148l11 40h-50l-24 -85q-15 -54 -15 -84q0 -41 26 -41h121q44 0 57 45l31 115h230l-136 -510h-156q-53 1 -72 26q-33 -25 -168 -25q-134 0 -152 25q-34 -26 -88 -26h-154zM499 1514q0 31 9 66q18 67 63.5 121t98.5 54 q28 0 69 -23l226 -120q61 -23 71 -50q5 -14 5 -31q0 -14 -4 -31q-9 -35 -37 -65t-64 -30h-360q-53 0 -69 54q-8 26 -8 55z" />
<glyph unicode="&#xe9;" horiz-adv-x="801" d="M-43 -35l92 350h76q45 0 57 45l54 201v2q0 18 -103 75q141 64 146 82l54 200q2 9 2 16q0 29 -36 29h-75l94 350h155q53 0 73 -26q34 26 167 26q134 0 153 -26q33 26 87 26h155l-136 -510h-230l30 115q3 10 3 17q0 28 -35 29h-120q-46 -1 -80 -126l-22 -85h50l11 40h148 l-18 -75v-2q0 -19 102 -78q-140 -61 -145 -80l-22 -75h-148l11 40h-50l-24 -85q-15 -54 -15 -84q0 -41 26 -41h121q44 0 57 45l31 115h230l-136 -510h-156q-53 1 -72 26q-33 -25 -168 -25q-134 0 -152 25q-34 -26 -88 -26h-154zM483 1470q0 14 4 30q9 35 34 62t98 50 l290 120q53 23 81 23q53 0 70 -54q7 -26 7 -55q0 -31 -9 -66q-18 -67 -63.5 -121t-98.5 -54h-360q-36 0 -47 30q-6 17 -6 35z" />
<glyph unicode="&#xea;" horiz-adv-x="801" d="M-43 -35l92 350h76q45 0 57 45l54 201v2q0 18 -103 75q141 64 146 82l54 200q2 9 2 16q0 29 -36 29h-75l94 350h155q53 0 73 -26q34 26 167 26q134 0 153 -26q33 26 87 26h155l-136 -510h-230l30 115q3 10 3 17q0 28 -35 29h-120q-46 -1 -80 -126l-22 -85h50l11 40h148 l-18 -75v-2q0 -19 102 -78q-140 -61 -145 -80l-22 -75h-148l11 40h-50l-24 -85q-15 -54 -15 -84q0 -41 26 -41h121q44 0 57 45l31 115h230l-136 -510h-156q-53 1 -72 26q-33 -25 -168 -25q-134 0 -152 25q-34 -26 -88 -26h-154zM346 1405l398 390h195l187 -390h-247l-95 179 l-191 -179h-247z" />
<glyph unicode="&#xeb;" horiz-adv-x="801" d="M-43 -35l92 350h76q45 0 57 45l54 201v2q0 18 -103 75q141 64 146 82l54 200q2 9 2 16q0 29 -36 29h-75l94 350h155q53 0 73 -26q34 26 167 26q134 0 153 -26q33 26 87 26h155l-136 -510h-230l30 115q3 10 3 17q0 28 -35 29h-120q-46 -1 -80 -126l-22 -85h50l11 40h148 l-18 -75v-2q0 -19 102 -78q-140 -61 -145 -80l-22 -75h-148l11 40h-50l-24 -85q-15 -54 -15 -84q0 -41 26 -41h121q44 0 57 45l31 115h230l-136 -510h-156q-53 1 -72 26q-33 -25 -168 -25q-134 0 -152 25q-34 -26 -88 -26h-154zM499 1514q0 31 9 66q18 67 63.5 121t98.5 54 t70 -54q7 -26 7 -55q0 -31 -9 -66q-18 -67 -63.5 -121t-98.5 -54t-69 54q-8 26 -8 55zM819 1514q0 31 9 66q18 67 63.5 121t98.5 54t70 -54q7 -26 7 -55q0 -31 -9 -66q-18 -67 -63.5 -121t-98.5 -54t-69 54q-8 26 -8 55z" />
<glyph unicode="&#xec;" horiz-adv-x="480" d="M-44 -35l93 350h76q45 0 57 45l54 200v2q0 19 -102 78q140 62 145 80l54 200q3 9 3 17q0 28 -36 28h-76l93 350h155q54 0 74 -25q31 25 86 25h155l-93 -350h-74q-45 0 -57 -45l-54 -200v-2q0 -19 101 -78q-139 -62 -144 -80l-54 -200q-3 -9 -3 -17q0 -28 36 -28h74 l-93 -350h-155q-55 0 -74 25q-32 -25 -86 -25h-155zM339 1514q0 31 9 66q18 67 63.5 121t98.5 54q28 0 69 -23l226 -120q61 -23 71 -50q5 -14 5 -31q0 -14 -4 -31q-9 -35 -37 -65t-64 -30h-360q-53 0 -69 54q-8 26 -8 55z" />
<glyph unicode="&#xed;" horiz-adv-x="480" d="M-44 -35l93 350h76q45 0 57 45l54 200v2q0 19 -102 78q140 62 145 80l54 200q3 9 3 17q0 28 -36 28h-76l93 350h155q54 0 74 -25q31 25 86 25h155l-93 -350h-74q-45 0 -57 -45l-54 -200v-2q0 -19 101 -78q-139 -62 -144 -80l-54 -200q-3 -9 -3 -17q0 -28 36 -28h74 l-93 -350h-155q-55 0 -74 25q-32 -25 -86 -25h-155zM323 1470q0 14 4 30q9 35 34 62t98 50l290 120q53 23 81 23q53 0 70 -54q7 -26 7 -55q0 -31 -9 -66q-18 -67 -63.5 -121t-98.5 -54h-360q-36 0 -47 30q-6 17 -6 35z" />
<glyph unicode="&#xee;" horiz-adv-x="480" d="M-44 -35l93 350h76q45 0 57 45l54 200v2q0 19 -102 78q140 62 145 80l54 200q3 9 3 17q0 28 -36 28h-76l93 350h155q54 0 74 -25q31 25 86 25h155l-93 -350h-74q-45 0 -57 -45l-54 -200v-2q0 -19 101 -78q-139 -62 -144 -80l-54 -200q-3 -9 -3 -17q0 -28 36 -28h74 l-93 -350h-155q-55 0 -74 25q-32 -25 -86 -25h-155zM186 1405l398 390h195l187 -390h-247l-95 179l-191 -179h-247z" />
<glyph unicode="&#xef;" horiz-adv-x="480" d="M-44 -35l93 350h76q45 0 57 45l54 200v2q0 19 -102 78q140 62 145 80l54 200q3 9 3 17q0 28 -36 28h-76l93 350h155q54 0 74 -25q31 25 86 25h155l-93 -350h-74q-45 0 -57 -45l-54 -200v-2q0 -19 101 -78q-139 -62 -144 -80l-54 -200q-3 -9 -3 -17q0 -28 36 -28h74 l-93 -350h-155q-55 0 -74 25q-32 -25 -86 -25h-155zM339 1514q0 31 9 66q18 67 63.5 121t98.5 54t70 -54q7 -26 7 -55q0 -31 -9 -66q-18 -67 -63.5 -121t-98.5 -54t-69 54q-8 26 -8 55zM659 1514q0 31 9 66q18 67 63.5 121t98.5 54t70 -54q7 -26 7 -55q0 -31 -9 -66 q-18 -67 -63.5 -121t-98.5 -54t-69 54q-8 26 -8 55z" />
<glyph unicode="&#xf0;" horiz-adv-x="949" d="M28 -28l91 336h68q52 0 65 52l36 132h-120l18 68v3q0 22 -93 75q130 59 136 82l18 68h120l36 132q7 27 7 40q0 12 -6 12h-108l90 336h148q51 0 73 -29q36 29 167 29h40q282 0 282 -202q0 -47 -16 -106l-75 -280v-3q0 -22 92 -77q-129 -58 -135 -80l-75 -280 q-83 -308 -431 -308h-40q-131 0 -152 29q-37 -29 -88 -29h-148zM476 353q0 -46 31 -46h40q132 0 168 132l107 400q7 28 7 50q0 82 -104 83l-40 -1q-52 0 -87 -132l-15 -51h118l-16 -68v-3q0 -23 69 -77q-106 -57 -112 -80l-20 -68h-117l-14 -53q-15 -54 -15 -86z" />
<glyph unicode="&#xf1;" horiz-adv-x="1041" d="M-44 -35l93 350h76q45 0 57 45l54 200v2q0 19 -102 78q140 62 145 80l54 200q3 9 3 17q0 28 -36 28h-76l93 350h155q54 0 74 -25q31 25 86 25h105l42 -635q57 29 61 41l54 199q3 9 3 17q0 28 -36 28h-76l93 350h155q54 0 74 -25q31 25 86 25h155l-93 -350h-74 q-45 0 -57 -45l-54 -200v-2q0 -19 101 -78q-139 -62 -144 -80l-54 -200q-3 -9 -3 -17q0 -28 36 -28h74l-93 -350h-155q-55 0 -74 25q-32 -25 -86 -25h-106l-41 635q-57 -29 -60 -40l-17 -65h1l-37 -135q-3 -9 -3 -17q0 -28 36 -28h74l-93 -350h-155q-55 0 -74 25 q-32 -25 -86 -25h-155zM480 1324l77 290q69 55 122 78t141 23q86 0 140.5 -20t88.5 -20t92 18t177 111l-69 -258q-68 -55 -121 -78t-141 -23q-86 0 -140.5 20t-88.5 20q-37 0 -90.5 -8.5t-187.5 -152.5zM508 718q0 -6 10 -16l-3 38l11 45h-1l-17 -65v-2zM786 577l3 -41l6 24 v2q0 6 -9 15z" />
<glyph unicode="&#xf2;" horiz-adv-x="880" d="M93 640q140 62 145 80l75 280q84 315 439 315q287 0 287 -206q0 -49 -16 -109l-75 -280v-2q0 -19 101 -78q-139 -62 -144 -80l-75 -280q-84 -315 -439 -315q-287 0 -287 206q0 49 16 109l75 280v2q0 19 -102 78zM386 392q0 -77 98 -77q125 0 159 125l32 120v2 q0 19 -102 78q140 62 145 80l32 120q7 27 7 48q0 77 -98 77q-125 0 -159 -125l-32 -120v-2q0 -19 101 -78q-139 -62 -144 -80l-32 -120q-7 -27 -7 -48zM539 1514q0 31 9 66q18 67 63.5 121t98.5 54q28 0 69 -23l226 -120q61 -23 71 -50q5 -14 5 -31q0 -14 -4 -31 q-9 -35 -37 -65t-64 -30h-360q-53 0 -69 54q-8 26 -8 55z" />
<glyph unicode="&#xf3;" horiz-adv-x="880" d="M93 640q140 62 145 80l75 280q84 315 439 315q287 0 287 -206q0 -49 -16 -109l-75 -280v-2q0 -19 101 -78q-139 -62 -144 -80l-75 -280q-84 -315 -439 -315q-287 0 -287 206q0 49 16 109l75 280v2q0 19 -102 78zM386 392q0 -77 98 -77q125 0 159 125l32 120v2 q0 19 -102 78q140 62 145 80l32 120q7 27 7 48q0 77 -98 77q-125 0 -159 -125l-32 -120v-2q0 -19 101 -78q-139 -62 -144 -80l-32 -120q-7 -27 -7 -48zM523 1470q0 14 4 30q9 35 34 62t98 50l290 120q53 23 81 23q53 0 70 -54q7 -26 7 -55q0 -31 -9 -66q-18 -67 -63.5 -121 t-98.5 -54h-360q-36 0 -47 30q-6 17 -6 35z" />
<glyph unicode="&#xf4;" horiz-adv-x="880" d="M93 640q140 62 145 80l75 280q84 315 439 315q287 0 287 -206q0 -49 -16 -109l-75 -280v-2q0 -19 101 -78q-139 -62 -144 -80l-75 -280q-84 -315 -439 -315q-287 0 -287 206q0 49 16 109l75 280v2q0 19 -102 78zM386 392q0 -77 98 -77q125 0 159 125l32 120v2 q0 19 -102 78q140 62 145 80l32 120q7 27 7 48q0 77 -98 77q-125 0 -159 -125l-32 -120v-2q0 -19 101 -78q-139 -62 -144 -80l-32 -120q-7 -27 -7 -48zM386 1405l398 390h195l187 -390h-247l-95 179l-191 -179h-247z" />
<glyph unicode="&#xf5;" horiz-adv-x="880" d="M93 640q140 62 145 80l75 280q84 315 439 315q287 0 287 -206q0 -49 -16 -109l-75 -280v-2q0 -19 101 -78q-139 -62 -144 -80l-75 -280q-84 -315 -439 -315q-287 0 -287 206q0 49 16 109l75 280v2q0 19 -102 78zM386 392q0 -77 98 -77q125 0 159 125l32 120v2 q0 19 -102 78q140 62 145 80l32 120q7 27 7 48q0 77 -98 77q-125 0 -159 -125l-32 -120v-2q0 -19 101 -78q-139 -62 -144 -80l-32 -120q-7 -27 -7 -48zM400 1324l77 290q69 55 122 78t141 23q86 0 140.5 -20t88.5 -20t92 18t177 111l-69 -258q-68 -55 -121 -78t-141 -23 q-86 0 -140.5 20t-88.5 20q-37 0 -90.5 -8.5t-187.5 -152.5z" />
<glyph unicode="&#xf6;" horiz-adv-x="880" d="M93 640q140 62 145 80l75 280q84 315 439 315q287 0 287 -206q0 -49 -16 -109l-75 -280v-2q0 -19 101 -78q-139 -62 -144 -80l-75 -280q-84 -315 -439 -315q-287 0 -287 206q0 49 16 109l75 280v2q0 19 -102 78zM386 392q0 -77 98 -77q125 0 159 125l32 120v2 q0 19 -102 78q140 62 145 80l32 120q7 27 7 48q0 77 -98 77q-125 0 -159 -125l-32 -120v-2q0 -19 101 -78q-139 -62 -144 -80l-32 -120q-7 -27 -7 -48zM539 1514q0 31 9 66q18 67 63.5 121t98.5 54t70 -54q7 -26 7 -55q0 -31 -9 -66q-18 -67 -63.5 -121t-98.5 -54t-69 54 q-8 26 -8 55zM859 1514q0 31 9 66q18 67 63.5 121t98.5 54t70 -54q7 -26 7 -55q0 -31 -9 -66q-18 -67 -63.5 -121t-98.5 -54t-69 54q-8 26 -8 55z" />
<glyph unicode="&#xf7;" d="M136 799q163 73 170 102l23 85h170l-13 -50l430 -1l13 50h168l-21 -85v-3q0 -29 117 -97q-163 -71 -170 -100l-25 -85h-168l13 50l-431 1l-14 -50h-168l23 85v3q0 29 -117 95zM417 345q0 38 12 80q22 82 76 146t115 64t81 -64q10 -30 10 -65q0 -38 -12 -81 q-22 -81 -76 -145.5t-115 -64.5t-81 65q-10 30 -10 65zM618 1095q0 38 12 80q22 82 76 146t115 64t81 -64q10 -30 10 -65q0 -38 -12 -81q-22 -81 -76 -145.5t-115 -64.5t-81 65q-10 30 -10 65z" />
<glyph unicode="&#xf8;" horiz-adv-x="880" d="M93 640q140 62 145 80l75 280q84 315 439 315q287 0 287 -206q0 -49 -16 -109l-75 -280v-2q0 -19 101 -78q-139 -62 -144 -80l-75 -280q-84 -315 -439 -315q-287 0 -287 206q0 49 16 109l75 280v2q0 19 -102 78zM404 330q8 -15 80 -15q125 0 159 125l55 204zM445 636 l294 314q-8 15 -80 15q-125 0 -159 -125z" />
<glyph unicode="&#xf9;" horiz-adv-x="961" d="M133 640q140 62 145 80l54 200q3 9 3 17q0 28 -36 28h-75l94 350h155q53 0 73 -26q34 26 87 26h155l-94 -351l-74 2q-45 -1 -58 -46l-54 -200v-2q0 -19 101 -78q-139 -62 -144 -80l-32 -120q-7 -27 -7 -48q0 -77 98 -77q125 0 159 125l32 120v2q0 19 -102 78 q140 62 145 80l55 200q2 9 2 16q0 29 -36 29h-75l94 350h155q53 0 73 -26q34 26 87 26h155l-94 -351l-74 2q-45 -1 -57 -46l-55 -200v-2q0 -19 101 -78q-139 -62 -144 -80l-75 -280q-84 -315 -439 -315q-287 0 -287 206q0 49 16 109l75 280v2q0 19 -102 78zM579 1514 q0 31 9 66q18 67 63.5 121t98.5 54q28 0 69 -23l226 -120q61 -23 71 -50q5 -14 5 -31q0 -14 -4 -31q-9 -35 -37 -65t-64 -30h-360q-53 0 -69 54q-8 26 -8 55z" />
<glyph unicode="&#xfa;" horiz-adv-x="961" d="M133 640q140 62 145 80l54 200q3 9 3 17q0 28 -36 28h-75l94 350h155q53 0 73 -26q34 26 87 26h155l-94 -351l-74 2q-45 -1 -58 -46l-54 -200v-2q0 -19 101 -78q-139 -62 -144 -80l-32 -120q-7 -27 -7 -48q0 -77 98 -77q125 0 159 125l32 120v2q0 19 -102 78 q140 62 145 80l55 200q2 9 2 16q0 29 -36 29h-75l94 350h155q53 0 73 -26q34 26 87 26h155l-94 -351l-74 2q-45 -1 -57 -46l-55 -200v-2q0 -19 101 -78q-139 -62 -144 -80l-75 -280q-84 -315 -439 -315q-287 0 -287 206q0 49 16 109l75 280v2q0 19 -102 78zM563 1470 q0 14 4 30q9 35 34 62t98 50l290 120q53 23 81 23q53 0 70 -54q7 -26 7 -55q0 -31 -9 -66q-18 -67 -63.5 -121t-98.5 -54h-360q-36 0 -47 30q-6 17 -6 35z" />
<glyph unicode="&#xfb;" horiz-adv-x="961" d="M133 640q140 62 145 80l54 200q3 9 3 17q0 28 -36 28h-75l94 350h155q53 0 73 -26q34 26 87 26h155l-94 -351l-74 2q-45 -1 -58 -46l-54 -200v-2q0 -19 101 -78q-139 -62 -144 -80l-32 -120q-7 -27 -7 -48q0 -77 98 -77q125 0 159 125l32 120v2q0 19 -102 78 q140 62 145 80l55 200q2 9 2 16q0 29 -36 29h-75l94 350h155q53 0 73 -26q34 26 87 26h155l-94 -351l-74 2q-45 -1 -57 -46l-55 -200v-2q0 -19 101 -78q-139 -62 -144 -80l-75 -280q-84 -315 -439 -315q-287 0 -287 206q0 49 16 109l75 280v2q0 19 -102 78zM426 1405 l398 390h195l187 -390h-247l-95 179l-191 -179h-247z" />
<glyph unicode="&#xfc;" horiz-adv-x="961" d="M133 640q140 62 145 80l54 200q3 9 3 17q0 28 -36 28h-75l94 350h155q53 0 73 -26q34 26 87 26h155l-94 -351l-74 2q-45 -1 -58 -46l-54 -200v-2q0 -19 101 -78q-139 -62 -144 -80l-32 -120q-7 -27 -7 -48q0 -77 98 -77q125 0 159 125l32 120v2q0 19 -102 78 q140 62 145 80l55 200q2 9 2 16q0 29 -36 29h-75l94 350h155q53 0 73 -26q34 26 87 26h155l-94 -351l-74 2q-45 -1 -57 -46l-55 -200v-2q0 -19 101 -78q-139 -62 -144 -80l-75 -280q-84 -315 -439 -315q-287 0 -287 206q0 49 16 109l75 280v2q0 19 -102 78zM579 1514 q0 31 9 66q18 67 63.5 121t98.5 54t70 -54q7 -26 7 -55q0 -31 -9 -66q-18 -67 -63.5 -121t-98.5 -54t-69 54q-8 26 -8 55zM899 1514q0 31 9 66q18 67 63.5 121t98.5 54t70 -54q7 -26 7 -55q0 -31 -9 -66q-18 -67 -63.5 -121t-98.5 -54t-69 54q-8 26 -8 55z" />
<glyph unicode="&#xfd;" horiz-adv-x="960" d="M197 -35l92 350h75q44 0 57 45l54 201v2q0 18 -101 74q66 31 78 36l-132 250l-2 -2q-32 44 -94 44l93 350h155q54 0 74 -25q31 25 86 25h115l-92 -350q-90 0 -93 -10v-2q0 -12 13 -68h15l58 -109l179 167l-3 -1q6 7 8 13v1q0 9 -87 9l92 350h115q54 0 74 -25q31 25 86 25 h155l-93 -350q-60 0 -161 -80h1l-226 -212q12 -4 64 -33q-142 -61 -147 -80l-54 -200q-3 -9 -3 -17q0 -28 36 -28h75l-93 -350h-154q-56 1 -74 26q-33 -26 -87 -26h-154zM563 1470q0 14 4 30q9 35 34 62t98 50l290 120q53 23 81 23q53 0 70 -54q7 -26 7 -55q0 -31 -9 -66 q-18 -67 -63.5 -121t-98.5 -54h-360q-36 0 -47 30q-6 17 -6 35z" />
<glyph unicode="&#xfe;" horiz-adv-x="800" d="M-44 -35l93 350h75q45 0 47 5l10 40v2q0 19 -99 78q138 62 142 80l65 240v1q0 19 -103 79q141 62 156 115v1q0 9 -42 9h-76l93 350h155q54 0 74 -25q31 25 86 25h155l-93 -350h-75q-45 0 -47 -5v-2q0 -3 4 -3h80q287 0 287 -206q0 -49 -16 -109q-84 -314 -439 -315h-81 q-5 0 -6 -5q0 -5 43 -5h75l-93 -350h-155q-54 0 -73 26q-33 -26 -87 -26h-155zM473 583q0 -28 36 -29q166 1 188 86q3 10 3 19q0 66 -145 66q-45 0 -68 -85l-11 -40q-3 -9 -3 -17z" />
<glyph unicode="&#xff;" horiz-adv-x="960" d="M197 -35l92 350h75q44 0 57 45l54 201v2q0 18 -101 74q66 31 78 36l-132 250l-2 -2q-32 44 -94 44l93 350h155q54 0 74 -25q31 25 86 25h115l-92 -350q-90 0 -93 -10v-2q0 -12 13 -68h15l58 -109l179 167l-3 -1q6 7 8 13v1q0 9 -87 9l92 350h115q54 0 74 -25q31 25 86 25 h155l-93 -350q-60 0 -161 -80h1l-226 -212q12 -4 64 -33q-142 -61 -147 -80l-54 -200q-3 -9 -3 -17q0 -28 36 -28h75l-93 -350h-154q-56 1 -74 26q-33 -26 -87 -26h-154zM579 1514q0 31 9 66q18 67 63.5 121t98.5 54t70 -54q7 -26 7 -55q0 -31 -9 -66q-18 -67 -63.5 -121 t-98.5 -54t-69 54q-8 26 -8 55zM899 1514q0 31 9 66q18 67 63.5 121t98.5 54t70 -54q7 -26 7 -55q0 -31 -9 -66q-18 -67 -63.5 -121t-98.5 -54t-69 54q-8 26 -8 55z" />
<glyph unicode="&#x152;" horiz-adv-x="1550" d="M136 800q163 72 170 100l94 350q103 385 538 385h199q63 0 89 -36q48 36 211 36q164 0 190 -36q46 36 110 36h185l-166 -620h-270l35 135q4 14 4 25q0 40 -50 41h-150q-55 -1 -95 -115l-44 -166h79l13 50h168l-21 -85v-3q0 -29 117 -97q-163 -71 -170 -100l-25 -85h-168 l13 50h-79l-45 -167q-6 -32 -6 -54q0 -59 39 -59h151q64 0 83 65l36 135h270l-166 -620h-186q-63 1 -90 35q-45 -34 -210 -34q-164 0 -190 35q-46 -36 -110 -36h-198q-352 0 -352 252q0 59 20 133l94 350v3q0 29 -117 97zM473 488q0 -103 130 -103q165 0 209 165l41 150v3 q0 29 -117 97q163 72 170 100l40 150q10 35 10 63q0 102 -130 102q-165 0 -210 -165l-40 -150v-3q0 -29 116 -97q-162 -72 -169 -100l-41 -150q-9 -35 -9 -62z" />
<glyph unicode="&#x153;" horiz-adv-x="1260" d="M93 640q140 62 145 80l75 280q84 315 439 315h159q53 0 73 -26q34 26 167 26q134 0 153 -26q33 26 87 26h155l-136 -510h-230l30 115q3 10 3 17q0 28 -35 29h-120q-37 -1 -67 -85l-34 -126h49l11 40h148l-18 -75v-2q0 -19 102 -78q-140 -61 -145 -80l-22 -75h-148l11 40 h-49l-34 -126q-5 -26 -5 -44q0 -40 25 -40h121q44 0 57 45l31 115h230l-136 -510h-156q-53 1 -72 26q-33 -25 -168 -25q-134 0 -152 25q-34 -26 -88 -26h-158q-287 0 -287 206q0 49 16 109l75 280v2q0 19 -102 78zM386 392q0 -77 98 -77q125 0 159 125l32 120v2 q0 19 -102 78q140 62 145 80l32 120q7 27 7 48q0 77 -98 77q-125 0 -159 -125l-32 -120v-2q0 -19 101 -78q-139 -62 -144 -80l-32 -120q-7 -27 -7 -48z" />
<glyph unicode="&#x2c6;" horiz-adv-x="900" d="M403 1765l479 470h235l226 -470h-287l-122 229l-244 -229h-287z" />
<glyph unicode="&#x2dc;" horiz-adv-x="900" d="M389 1584l89 330q81 65 145 93t172 28q106 0 174.5 -25t112.5 -25t118.5 23t206.5 126l-80 -298q-81 -65 -145 -93t-172 -28q-106 0 -174.5 25t-112.5 25q-47 0 -116 -11t-218 -170z" />
<glyph unicode="&#x2000;" horiz-adv-x="1117" />
<glyph unicode="&#x2001;" horiz-adv-x="2235" />
<glyph unicode="&#x2002;" horiz-adv-x="1117" />
<glyph unicode="&#x2003;" horiz-adv-x="2235" />
<glyph unicode="&#x2004;" horiz-adv-x="745" />
<glyph unicode="&#x2005;" horiz-adv-x="558" />
<glyph unicode="&#x2006;" horiz-adv-x="372" />
<glyph unicode="&#x2007;" horiz-adv-x="372" />
<glyph unicode="&#x2008;" horiz-adv-x="279" />
<glyph unicode="&#x2009;" horiz-adv-x="447" />
<glyph unicode="&#x200a;" horiz-adv-x="124" />
<glyph unicode="&#x2010;" d="M136 799q163 73 170 102l23 85h170l-13 -50l430 -1l13 50h168l-21 -85v-3q0 -29 117 -97q-163 -71 -170 -100l-25 -85h-168l13 50l-431 1l-14 -50h-168l23 85v3q0 29 -117 95z" />
<glyph unicode="&#x2011;" d="M136 799q163 73 170 102l23 85h170l-13 -50l430 -1l13 50h168l-21 -85v-3q0 -29 117 -97q-163 -71 -170 -100l-25 -85h-168l13 50l-431 1l-14 -50h-168l23 85v3q0 29 -117 95z" />
<glyph unicode="&#x2012;" d="M136 799q163 73 170 102l23 85h170l-13 -50l430 -1l13 50h168l-21 -85v-3q0 -29 117 -97q-163 -71 -170 -100l-25 -85h-168l13 50l-431 1l-14 -50h-168l23 85v3q0 29 -117 95z" />
<glyph unicode="&#x2013;" horiz-adv-x="1100" d="M136 799q163 73 170 102l23 85h170l-13 -51h530l13 50h168l-21 -85v-3q0 -29 117 -97q-163 -71 -170 -100l-25 -85h-168l13 50h-531l-14 -49h-168l23 85v3q0 29 -117 95z" />
<glyph unicode="&#x2014;" horiz-adv-x="1200" d="M136 799q163 73 170 102l23 85h170l-13 -50l630 -1l13 50h168l-21 -85v-3q0 -29 117 -97q-163 -71 -170 -100l-25 -85h-168l13 50l-631 1l-14 -50h-168l23 85v3q0 29 -117 95z" />
<glyph unicode="&#x2018;" horiz-adv-x="300" d="M288 1169q0 38 12 81l47 175q22 81 76 145.5t115 64.5q43 0 83 -57q-40 -34 -52 -48q-35 -42 -43 -70q26 0 46 -64q10 -31 10 -66q0 -38 -12 -80q-22 -82 -76 -146t-115 -64t-81 64q-10 30 -10 65z" />
<glyph unicode="&#x2019;" horiz-adv-x="300" d="M296 1097q40 34 52 48q35 42 43 70q-26 0 -46 65q-10 30 -10 65q0 38 12 80q22 82 76 146t115 64t81 -64q10 -30 10 -65q0 -38 -12 -81l-47 -175q-22 -81 -76 -145.5t-115 -64.5q-43 0 -83 57z" />
<glyph unicode="&#x201a;" horiz-adv-x="300" d="M-46 -178q40 34 52 48q35 42 43 70q-26 0 -46 65q-10 30 -10 65q0 38 12 80q22 82 76 146t115 64t81 -64q10 -30 10 -65q0 -38 -12 -81l-47 -175q-21 -81 -75.5 -145.5t-115.5 -64.5q-43 0 -83 57z" />
<glyph unicode="&#x201c;" horiz-adv-x="550" d="M288 1169q0 38 12 81l47 175q22 81 76 145.5t115 64.5q43 0 83 -57q-40 -34 -52 -48q-35 -42 -43 -70q26 0 46 -64q5 -18 7 -36l18 65q22 81 76 145.5t115 64.5q43 0 83 -57q-40 -34 -52 -48q-35 -42 -43 -70q26 0 46 -64q10 -31 10 -66q0 -38 -12 -80q-22 -82 -76 -146 t-115 -64t-81 64q-9 28 -9 60v6q-19 -35 -45 -66q-54 -64 -115 -64t-81 64q-10 30 -10 65z" />
<glyph unicode="&#x201d;" horiz-adv-x="550" d="M296 1097q40 34 52 48q35 42 43 70q-26 0 -46 65q-10 30 -10 65q0 38 12 80q22 82 76 146t115 64t81 -64q9 -28 9 -60v-6q19 35 45 66q54 64 115 64t81 -64q10 -30 10 -65q0 -38 -12 -81l-47 -175q-22 -81 -76 -145.5t-115 -64.5q-43 0 -83 57q40 34 52 48q35 42 43 70 q-26 0 -46 65q-5 17 -8 35l-17 -65q-22 -81 -76 -145.5t-115 -64.5q-43 0 -83 57z" />
<glyph unicode="&#x201e;" horiz-adv-x="550" d="M-39 -153q40 34 52 48q35 42 43 70q-26 0 -46 65q-10 30 -10 65q0 38 12 80q22 82 76 146t115 64t81 -64q9 -28 9 -60v-6q19 35 45 66q54 64 115 64t81 -64q10 -30 10 -65q0 -38 -12 -81l-47 -175q-22 -81 -76 -145.5t-115 -64.5q-43 0 -83 57q40 34 52 48q35 42 43 70 q-26 0 -46 65q-5 17 -8 35l-17 -65q-22 -81 -76 -145.5t-115 -64.5q-43 0 -83 57z" />
<glyph unicode="&#x2022;" horiz-adv-x="692" d="M145 629q0 42 12 89q37 138 160.5 234t260.5 96q136 0 207 -97q47 -64 47 -144q0 -42 -13 -89q-36 -136 -160.5 -234t-260.5 -98q-138 0 -207 98q-46 64 -46 145z" />
<glyph unicode="&#x2026;" horiz-adv-x="800" d="M0 95q0 38 12 80q22 82 76 146t115 64t81 -64q9 -28 9 -60v-6q19 35 45 66q54 64 115 64t81 -64q9 -28 9 -60v-6q19 35 45 66q54 64 115 64t81 -64q10 -30 10 -65q0 -38 -12 -81q-22 -81 -76 -145.5t-115 -64.5t-81 65q-10 30 -10 65q-18 -35 -44 -65q-54 -65 -115 -65 t-81 65q-10 30 -10 65q-18 -35 -44 -65q-54 -65 -115 -65t-81 65q-10 30 -10 65z" />
<glyph unicode="&#x202f;" horiz-adv-x="447" />
<glyph unicode="&#x2039;" horiz-adv-x="800" d="M159 800l405 276l4 2l60 37h-115l112 420h136q64 0 92 -36q43 36 108 36h185l-112 -420h-84q-36 0 -87 -41l-395 -274l248 -274q29 -41 65 -41h84l-113 -420h-185q-65 0 -89 36q-47 -36 -111 -36h-136l113 420l114 -1q0 6 -39 38l-3 2z" />
<glyph unicode="&#x203a;" horiz-adv-x="800" d="M-18 65l113 420h85q35 0 87 41l393 274l-246 274q-30 41 -65 41h-85l112 420h185q65 0 90 -36q46 36 110 36h136l-112 -420q-115 0 -115 2q0 -6 40 -39l2 -2l257 -276l-405 -276l-3 -2q-59 -34 -61 -39q1 2 116 2l-113 -420h-136q-64 0 -91 36q-44 -36 -109 -36h-185z " />
<glyph unicode="&#x205f;" horiz-adv-x="558" />
<glyph unicode="&#x20ac;" horiz-adv-x="1100" d="M33 598q163 73 171 102l22 85h149l9 31h-149l22 85v4q0 28 -116 94q162 73 170 102l23 85h149l17 64q103 385 538 385q123 0 161 -15l4 15h270l-179 -670h-270l7 27q-148 -65 -155 -93l-25 -85h-168l14 50h-30l-35 -129h30l13 50h168l-20 -85q-1 -2 -1 -4q0 -27 106 -89 l7 28h270l-76 -285q-103 -385 -538 -385q-352 0 -352 252q0 59 20 133l17 65h-149l23 85v3q0 29 -117 95zM569 455q0 -19 9 -32l12 42h-20q-1 -5 -1 -10zM585 415q30 -30 118 -30q165 0 209 165l12 43q-148 -65 -155 -93l-25 -85h-159zM748 1134h21l11 43q-21 -17 -32 -43z M789 1184h161l-21 -85v-3q0 -28 106 -90l11 44q10 35 10 63q0 102 -130 102q-89 0 -137 -31z" />
<glyph unicode="&#x2122;" horiz-adv-x="1450" d="M296 765l65 245h60q15 0 19 15l33 126q1 2 -79 49q105 47 106 50l33 125q1 3 1 6q0 9 -12 9q-15 0 -19 -15l-20 -85h-172l92 345h236q39 0 47 -11q14 11 53 11h324q39 0 47 -10q13 10 53 10h90l-5 -521l276 521h89q39 0 47 -10q13 10 53 10h110l-66 -245h-59 q-15 0 -19 -15l-33 -125q-1 -3 80 -50q-106 -47 -107 -50l-33 -125q-1 -3 -1 -6q0 -9 12 -9h59l-66 -245h-110q-40 0 -47 10q-14 -10 -53 -10h-175q-39 2 -47 11q-14 -11 -53 -11h-175q-40 0 -47 10q-14 -10 -53 -10h-110l66 245h61q15 0 19 15l33 125q1 3 -79 50 q105 47 106 50l33 125q1 3 1 6q0 9 -12 9h-41l-26 -100h-170l22 85q1 3 1 6q0 9 -11 9q-16 0 -33 -65l-20 -74q0 -5 82 -52q-108 -45 -109 -50l-33 -124q-1 -3 -1 -6q0 -9 12 -9h60l-66 -245h-110q-39 2 -47 11q-14 -11 -53 -11h-109zM1036 1023q0 -13 45 -13l-4 145 q-8 -4 -8 -5l-33 -125v-2zM1080 1005l1 -1v4zM1357 1004q1 1 2 1l2 5q51 0 55 15l33 125q0 1 -6 6z" />
<glyph unicode="&#x25fc;" horiz-adv-x="1315" d="M0 0v1315h1315v-1315h-1315z" />
</font>
</defs>
</svg>
