<?xml version="1.0" standalone="no"?>
<!DOCTYPE svg PUBLIC "-//W3C//DTD SVG 1.1//EN" "http://www.w3.org/Graphics/SVG/1.1/DTD/svg11.dtd" >
<svg xmlns="http://www.w3.org/2000/svg" xmlns:xlink="http://www.w3.org/1999/xlink" version="1.1">
<metadata></metadata>
<defs>
<font id="saddlebagregular" horiz-adv-x="1275" >
<font-face units-per-em="2048" ascent="1638" descent="-410" />
<missing-glyph horiz-adv-x="1064" />
<glyph horiz-adv-x="0" />
<glyph horiz-adv-x="682" />
<glyph unicode="&#xd;" horiz-adv-x="737" d="M41 0h659v168q-82 -6 -104 4q-37 14 -37 88q0 53 2 59q8 39 57 74q-59 41 -59 58v315h-518v-160q16 2 29 2h24q57 0 75.5 -22.5t18.5 -81.5q0 -47 -4 -60q-14 -31 -61 -51q66 -23 65 -123q0 -76 -36 -94q-27 -10 -111 -8v-168z" />
<glyph horiz-adv-x="1419" d="M27 0h1359v168q-23 -2 -38 -3t-21 -1q-82 0 -82 96q0 27 1 46.5t7.5 32.5t18.5 25.5t33 28.5q-59 41 -60 58v315h-512v2h-180v55q0 29 37 51q41 23 170 23v219h-154q-213 0 -309 -53q-125 -70 -121 -270v-25h-149v-170h155v-152q0 -18 -59 -53q18 -16 30.5 -28.5 t18.5 -24.5t8 -27.5t2 -40.5q0 -72 -32 -92q-25 -16 -103 -12h-20v-168zM553 264q0 49 10 72.5t47 56.5q-6 4 -16 12.5t-19.5 17.5t-15.5 18.5t-6 15.5v141h199q84 0 96 -6q27 -14 26 -88q0 -51 -10 -70.5t-55 -40.5q66 -23 65 -123q0 -35 -5 -55t-18 -30.5t-35.5 -13.5 t-59.5 -3h-154q-49 0 -49 96zM811 858h393v240h-393v-240z" />
<glyph horiz-adv-x="1458" d="M27 0h1345v168q-72 2 -88 12q-20 14 -20 80q0 25 1 40t3 24q12 43 61 69q-66 35 -65 58v614h-504v51h-154q-217 0 -305 -51q-135 -78 -125 -297h-149v-170h155v-152q0 -18 -59 -53q47 -41 55 -65q4 -16 4 -56q0 -74 -41 -96q-29 -10 -114 -8v-168zM553 264q0 45 4 58 q8 33 53 71q-6 4 -16 12.5t-19.5 17.5t-15.5 18.5t-6 15.5v141h180v170h-180v55q0 16 11 29.5t28.5 24t38 15.5t39.5 5h149q74 -10 74 -49v-389q0 -14 -24.5 -36t-41.5 -30q49 -35 62 -67q4 -16 4 -56q0 -78 -31 -90t-131 -12h-129q-49 0 -49 96z" />
<glyph horiz-adv-x="1341" d="M41 0h1206v455h-311v-152q0 -63 -66 -98q-53 -29 -122 -29q-23 0 -37.5 1t-22.5 3v273q0 14 25 43l182 63v186l-205 -73q-2 12 -2 26v33q0 102 12 125q20 37 121 37h31q16 0 37 -2v174h-848v-174h137q78 0 78 -96v-15q0 -8 -2 -18v-27q0 -10 2 -29.5t2 -29.5 q0 -84 -82 -133q31 -12 49 -37l-180 -64v-182l209 74l2 -12v-37q0 -111 -66 -111h-149v-174z" />
<glyph horiz-adv-x="753" d="M23 266l161 58q4 -16 4 -54q0 -78 -30 -92q-6 -2 -39 -4t-92 -6v-168h641v168q-72 2 -88 12q-20 14 -21 80q0 25 1 40t3 24q12 43 62 69q-66 35 -66 58v4l143 51v188l-143 -51v422h-532v-168h88q74 -10 73 -49v-334l-165 -59v-189z" />
<glyph horiz-adv-x="1267" d="M27 0v180l194 207q121 131 121 201q0 6 -4 18q68 -10 125 39q16 14 40.5 43t59.5 70q70 88 107 116q-10 2 -41 3h-80q-113 0 -135 -9q-29 -8 -64 -96q-20 -49 -28 -82h-295v375h1116v-238q-20 -31 -162 -178q-98 -102 -98 -164q0 -20 8 -34q-82 6 -170 -93 q-70 -78 -106.5 -118.5t-43.5 -46.5h207q102 25 94 196h271v-389h-1116zM313 1470l203 -323h270l203 323h-213l-127 -180l-123 180h-213z" />
<glyph horiz-adv-x="1159" d="M27 0h1011v305h-219q2 -10 3 -18t1 -17q0 -78 -73 -96q-20 -4 -117 -4h-74t-39 2l123 111q68 61 131 61q8 0 22.5 -2t22.5 -2q-4 16 -4 27q0 57 74 118q117 98 119 103v178h-961v-264h219q-2 10 -2 30q0 59 49 76q10 2 97 2q41 0 64.5 -1t33.5 -3q-35 -31 -70 -61.5 t-69 -63.5q-72 -53 -160 -47q12 -16 12 -33q0 -53 -82 -122q-41 -35 -68.5 -59.5t-43.5 -39.5v-180zM227 1180l203 -324h270l203 324h-213l-127 -181l-123 181h-213z" />
<glyph unicode=" "  horiz-adv-x="1064" />
<glyph unicode="&#x09;" horiz-adv-x="1064" />
<glyph unicode="&#xa0;" horiz-adv-x="1064" />
<glyph unicode="!" horiz-adv-x="784" d="M29 743q106 -47 139 -184q20 -78 22 -213h336q-18 303 162 397q-43 37 -63 97q-14 39 -29 121q-61 137 -242 137q-172 0 -235 -131q-10 -25 -33 -125q-16 -72 -57 -99zM190 -4h336v276h-336v-276z" />
<glyph unicode="&#x22;" horiz-adv-x="700" d="M39 1065l47 -479h141l52 479h-240zM332 1065l47 -479h139l53 479h-239z" />
<glyph unicode="#" horiz-adv-x="866" d="M20 559h144l-39 -182h160q4 39 8 64.5t6 39.5q12 78 66 78q27 0 38 -4l-38 -184h159l47 188h123l27 129h-123v31q10 29 18 41h123l33 131h-135l39 174h-162l-39 -174h-80l33 174h-154q-16 -59 -27 -102t-18 -72h-131l-26 -129h131v-31q0 -27 -19 -41h-131zM352 690 q6 23 11.5 40.5t9.5 29.5h76q-4 -23 -8.5 -41.5t-6.5 -28.5h-82z" />
<glyph unicode="$" horiz-adv-x="1261" d="M51 682q0 -182 166 -264q31 -14 102 -31q74 -16 105 -31q55 -27 86 -84q57 53 133 54q137 0 137 -78q0 -86 -178 -86q-104 0 -180 37q-100 45 -105 139h-251v-338h239q0 47 4 51q14 -10 35 -19t49 -20q20 -6 45 -13t58 -15v-248h192v241q190 0 324 91q145 108 145 290 q0 111 -61 170q-47 43 -152 74q-70 18 -120 31.5t-84.5 24t-73.5 77.5q-47 -59 -127 -59q-45 0 -84 22q-45 27 -45 72q0 100 165 100q219 0 271 -174h264v342h-231q2 -33 -5 -43q-123 51 -186 64v233h-192v-221q-178 -4 -308 -104q-137 -111 -137 -285z" />
<glyph unicode="%" horiz-adv-x="1667" d="M20 823q29 -23 60 -104q29 -80 47 -101q86 -92 266 -92q150 0 232 61.5t129 205.5l20 26q-37 33 -39 43q-80 236 -348 236q-162 0 -260 -86q-12 -8 -47 -90q-31 -76 -60 -99zM287 809q0 133 112 133q109 0 109 -129q0 -49 -29 -94q-35 -49 -82 -49q-51 0 -80.5 43 t-29.5 96zM463 -29h160l534 1127h-153zM846 264q39 -23 53 -80q25 -86 39 -104q80 -111 281 -111q244 0 309 152q53 125 71 141q-33 25 -45 51q-25 117 -124 179q-90 55 -218 55q-199 0 -280 -113q-18 -25 -41 -102q-18 -59 -45 -68zM1112 254q0 55 29.5 95t83.5 40 q108 0 108 -133q0 -51 -22 -92q-25 -53 -72 -53q-59 -4 -94 43q-33 39 -33 100z" />
<glyph unicode="&#x26;" horiz-adv-x="1445" d="M20 301q45 -41 56 -65q78 -174 266 -232q121 -35 340 -35q231 0 340 43q201 84 213 326h162v201h-494q45 -72 45 -150q0 -104 -62.5 -165.5t-166.5 -61.5q-166 0 -166 143q0 160 192 152v192q-193 -8 -192 131q0 123 145 123q182 0 168 -180h330v354h-299q2 -29 -4 -43 q-119 63 -305 64q-182 0 -277 -43q-139 -63 -252 -267q14 -12 28.5 -32.5t29.5 -48.5q31 -55 49 -74q72 -74 192 -90q-106 -2 -192 -74q-37 -31 -146 -168z" />
<glyph unicode="'" horiz-adv-x="395" d="M27 1065q16 -160 27.5 -278.5t17.5 -200.5h141l53 479h-239z" />
<glyph unicode="(" horiz-adv-x="757" d="M20 367q29 -12 64 -54q37 -41 37 -69q4 -246 76 -400q102 -207 319 -206q66 -1 152 34v166q-43 -31 -86 -31q-119 0 -152 142q-14 55 -14 184q0 53 1 85t3 42q14 78 100 107q-80 31 -98 110q-6 27 -6 176v13q-2 8 -2 22v49q0 205 149 205q66 0 105 -39v162 q-57 33 -152 33q-125 0 -225 -84q-90 -78 -133 -207q-29 -90 -43 -246q-8 -106 -27 -141q-23 -41 -68 -53z" />
<glyph unicode=")" horiz-adv-x="729" d="M20 -162v-166q94 -35 152 -34q143 0 246 96q92 92 125 237q27 104 26 168q5 185 101 230q-10 0 -22.5 7t-25 18.5t-20.5 22.5t-8 21q-35 293 -80 410q-102 250 -338 250q-82 0 -156 -33v-162q14 10 51.5 24.5t57.5 14.5q113 0 139 -113q4 -20 7.5 -63t3.5 -113 q0 -131 -7 -164q-14 -84 -94 -122q78 -29 94 -101q6 -29 7 -127q0 -332 -168 -332h-35q-16 2 -56 31z" />
<glyph unicode="*" horiz-adv-x="708" d="M45 782q35 -10 55 -8l187 41l-90 109q-45 51 -84 71zM78 659l180 -133q39 70 39 158v23q0 42 8 65q-2 0 -125 -41q-72 -25 -102 -72zM215 1030l107 -192q8 16 25.5 44.5t43.5 69.5q45 70 43 78v35h-219v-35zM346 780l4 -172q8 -33 37 -82q57 45 100 77.5t72 55.5 q-31 41 -113 74q-90 37 -100 47zM358 815q27 -4 111 -24l80 -23q26 0 55 14l-65 205q-53 -16 -90 -65q-35 -41 -57.5 -69t-33.5 -38z" />
<glyph unicode="+" horiz-adv-x="995" d="M53 299h336v-328h248v328h338v254h-338v336h-246v-336h-338v-254z" />
<glyph unicode="," horiz-adv-x="565" d="M72 -4h172q25 0 78 49q4 -4 4 -14q0 -45 -47 -99q-45 -51 -97 -69q4 -16 12.5 -37t22.5 -45q94 35 149.5 112t55.5 175q0 51 -29 118q-41 86 -104 86h-217v-276z" />
<glyph unicode="-" horiz-adv-x="665" d="M66 229h557v283h-557v-283z" />
<glyph unicode="." horiz-adv-x="567" d="M92 -4h336v276h-336v-276z" />
<glyph unicode="/" horiz-adv-x="743" d="M-70 -166h154l643 1374h-160z" />
<glyph unicode="0" horiz-adv-x="1576" d="M49 543q29 -16 45.5 -28.5t20.5 -18.5q33 -49 39 -97q20 -158 153 -282q137 -125 295 -133l109 -9l82 -6q279 0 436 103q172 117 235 372q39 70 64 99q-20 14 -53 57q-31 39 -37 68q-115 430 -654 430q-430 0 -579 -248q-14 -20 -55 -162q-31 -102 -101 -145zM598 373 q0 49 20 96q25 59 64 74q-57 43 -70 82q-8 16 -8 73q0 193 189 193q197 0 196 -186q0 -106 -78 -162q84 -35 84 -176q0 -205 -192 -205q-94 0 -149.5 58.5t-55.5 152.5z" />
<glyph unicode="1" horiz-adv-x="1576" d="M356 0h865v174h-134q-49 0 -59 72q-2 10 -2 96v14q0 10 -2 21v33q0 90 80 137q-14 6 -47 39q-31 33 -31 47v432h-655v-174q145 10 186 -35q33 -33 33 -137q0 -14 2 -25v-24q0 -76 -80 -127q61 -31 74 -82q2 -10 3 -39t1 -80l2 -20q2 -10 2 -21v-16q0 -111 -66 -111h-172 v-174z" />
<glyph unicode="2" horiz-adv-x="1576" d="M205 8h1128v309h-309q2 -6 2 -20q0 -35 -28.5 -62.5t-63.5 -27.5h-373v22q25 51 31 56q74 45 354 98q242 45 334 137q14 14 45 101q31 88 49 104q-55 33 -71 92q-66 281 -535 281q-199 0 -342 -56q-221 -86 -221 -286v-66h393q0 195 141 195q133 0 133 -121 q0 -119 -174 -182q-117 -41 -196.5 -71t-124.5 -46q-172 -90 -172 -248v-209z" />
<glyph unicode="3" horiz-adv-x="1576" d="M164 342q0 -219 235 -313q154 -59 357 -60q78 0 153.5 9.5t151.5 25.5q186 45 252 133q16 25 53 96q39 76 39 95q0 16 -57 86q-49 61 -74 84q-16 16 -68 26q-68 12 -86 19q86 8 164 84q43 40 129 157q-47 35 -65 66q-147 248 -588 248q-180 0 -336 -49 q-252 -80 -252 -261v-110h414q-10 213 157 213q135 0 136 -150q0 -78 -35 -108.5t-115 -30.5h-24q-12 0 -27 2v-168q47 2 81 -2t56 -12q72 -29 72 -111q0 -141 -158 -141q-88 0 -127 74q-33 55 -29 151h-409v-53z" />
<glyph unicode="4" horiz-adv-x="1576" d="M145 299h664v-80q0 -10 -22.5 -26.5t-34.5 -18.5h-138v-174h818v174h-132q-57 0 -57 80q0 35 6 45h183v190h-195v54q0 29 59 71q-53 35 -53 58v393h-569l-529 -600v-166zM510 489l303 342q-2 -29 -2 -57v-55q-10 -72 -61 -105q57 -33 57 -63v-62h-297z" />
<glyph unicode="5" horiz-adv-x="1576" d="M184 295q16 -182 205 -266q141 -59 350 -60q225 0 367 66q195 96 287 346q-106 193 -242 281q-139 92 -352 92q-199 0 -299 -60v158h434q59 0 76 -78h311v291h-1110v-608h356q0 43 56 65q45 16 94 17q176 0 176 -179q0 -199 -166 -198q-68 0 -107.5 44t-39.5 111h-396 v-22z" />
<glyph unicode="6" horiz-adv-x="1576" d="M123 557q51 -41 61 -80q115 -508 631 -508q489 0 596 353q10 34 43 65q-43 27 -55 66q-49 141 -211 211q-127 57 -301 57q-145 0 -228 -45l-4 82q18 72 56.5 99.5t113.5 27.5q66 0 95 -19q43 -29 43 -110h407q-23 342 -555 342q-197 0 -307 -37q-172 -57 -242 -211 q-16 -59 -27.5 -100t-17.5 -64q-29 -98 -98 -129zM643 348q0 78 59 125q53 41 136 41q80 0 131 -43t51 -121q0 -168 -193 -168q-184 0 -184 166z" />
<glyph unicode="7" horiz-adv-x="1576" d="M215 684h322q-10 127 73 158q31 10 152 10q47 0 77.5 -1t43.5 -3q-80 -115 -129 -178q-78 -106 -176 -125q10 -27 10 -53q0 -45 -94 -228q-92 -184 -93 -241v-23h623v180q-59 -4 -82 25q12 74 92 180q92 125 180 150q-12 20 -12 47q0 71 162 227v256h-1149v-381z" />
<glyph unicode="8" horiz-adv-x="1576" d="M141 322q51 -98 116 -168t146 -111q147 -74 379 -74q229 0 381 74q160 82 273 272q-104 127 -152 189q-39 20 -70.5 33.5t-58.5 17.5q82 18 148 94q47 53 73.5 82t32.5 33q-63 31 -84 74q-78 141 -266 209q-141 51 -303 51q-205 0 -340 -68q-150 -70 -248 -239 q131 -221 272 -236q-90 2 -174 -78q-27 -27 -125 -155zM596 303q0 66 57 105q53 35 119 34q68 0 119 -32q63 -40 63 -101q0 -66 -61 -102q-53 -31 -121 -31q-66 0 -117 29q-59 37 -59 98zM610 754q0 117 152 116q61 0 108 -28q58 -33 58 -90q0 -53 -54 -88q-45 -27 -104 -27 q-160 0 -160 117z" />
<glyph unicode="9" horiz-adv-x="1576" d="M92 686q43 -37 51 -65q92 -309 512 -310q207 0 297 54l6 -82q-33 -113 -182 -113q-160 0 -160 86q0 14 2 23h-473q47 -172 250 -252q147 -57 367 -58q260 0 430 90q207 113 229 353q3 47 64 131q-53 37 -64 92q-39 238 -227 358q-166 104 -422 105q-197 0 -358 -68 q-215 -88 -264 -278q-29 -43 -58 -66zM573 702q0 162 193 162q76 0 127 -39q57 -44 57 -116q0 -76 -63 -115q-53 -35 -131 -35q-72 0 -123 37q-59 41 -60 106z" />
<glyph unicode=":" horiz-adv-x="544" d="M86 -4h336v276h-336v-276zM86 502h336v276h-336v-276z" />
<glyph unicode=";" horiz-adv-x="538" d="M80 502h336v276h-336v-276zM86 -4h158q25 0 78 43l4 -39q-18 -39 -60 -84q-49 -49 -84 -45l41 -90q92 35 145.5 112t53.5 175q0 61 -29 122q-39 82 -104 82h-203v-276z" />
<glyph unicode="&#x3c;" horiz-adv-x="1398" d="M66 549l1155 -549l98 231l-662 312l662 317l-107 232z" />
<glyph unicode="=" horiz-adv-x="1048" d="M47 182h928v252h-928v-252zM47 684h928v252h-928v-252z" />
<glyph unicode="&#x3e;" horiz-adv-x="1318" d="M66 231l98 -231l1155 549l-1147 543l-106 -232l661 -311z" />
<glyph unicode="?" horiz-adv-x="1153" d="M27 729h368q-2 10 -2 31q0 125 127 125q63 0 84 -28t21 -93q0 -117 -101 -150l-53 -8q-59 -8 -93 -13t-42 -7q-94 -25 -94 -90v-158h336v59q0 47 79 64q29 4 57.5 6t57.5 6q117 14 170 62q47 53 87 98t69 80q-12 2 -39 32q-25 31 -25 46q8 174 -198 253q-141 53 -328 54 q-143 0 -275 -43q-207 -68 -206 -221v-105zM242 -4h336v276h-336v-276z" />
<glyph unicode="@" horiz-adv-x="1857" d="M66 420q0 -350 243 -557q229 -199 588 -199q365 0 637 211q-35 51 -59.5 86t-34.5 57q-250 -166 -527 -165q-285 0 -458 141q-188 152 -189 428q0 301 207 491q203 184 506 185q236 0 387 -152q150 -150 150 -391q0 -70 -25 -145q-37 -117 -111 -117q-25 0 -28 16v49 q0 84 53 113q-53 53 -53 72v143q0 80 -152 127q-104 33 -186 33q-174 0 -289 -72q-6 10 -4 37h-225v-205h231q12 43 68 64q45 18 96 18q129 0 129 -80q0 -27 -4 -30h-187q-285 0 -419 -232q27 -8 36 -39q82 -217 330 -217q78 0 158 29q6 2 51 31q41 27 49 26q-27 0 101 -43 q125 -43 190 -43q217 0 332 184q92 150 92 357q0 328 -250 506q-207 150 -514 149q-395 0 -653 -233q-266 -242 -266 -633zM786 342q0 80 144 80h96v-141q-39 -20 -102 -21q-137 0 -138 82z" />
<glyph unicode="A" horiz-adv-x="1660" d="M20 0h629v174h-94q-74 0 -74 59q0 25 25 72h412q24 -34 24 -63q0 -53 -53 -66q-10 -2 -29.5 -3t-52.5 1v-174h772v174q-94 0 -121 8q-29 10 -78 127q-47 111 -47 152q0 55 29 84q-76 2 -143 129q-51 94 -68 194q33 20 78 25h26q20 0 50 -2v174h-1006v-174h119 q29 0 63 -25q0 -68 -61 -180q-72 -135 -154 -143q33 -25 33 -62q0 -35 -45 -137q-16 -41 -31.5 -69.5t-27.5 -45.5q-44 -57 -101 -57h-4q-25 2 -43 2h-27v-174zM592 502l127 272l125 -272h-252z" />
<glyph unicode="B" horiz-adv-x="1609" d="M33 0h1132q59 0 138 41q78 43 112 92q16 27 43 107q8 31 43 49q-84 117 -135 160q-88 75 -213 75h-16q4 2 30.5 5t73.5 12q66 8 100 30q33 20 80 103q49 78 68 88q-88 164 -154 225q-88 78 -221 78h-1081v-174h145q80 0 80 -84q0 -12 -2 -34.5t-2 -35.5q0 -82 -6 -108 q-16 -66 -72 -80q57 -25 72 -94q6 -29 6 -113l2 -20v-37q0 -111 -66 -111h-157v-174zM690 176v252h182q45 0 80 -40t35 -85q0 -55 -36 -91t-91 -36h-170zM690 631v246h170q47 0 87 -36t40 -83q0 -49 -32.5 -88t-82.5 -39h-182z" />
<glyph unicode="C" horiz-adv-x="1417" d="M39 543q63 -35 96 -150q45 -164 68 -196q88 -147 352 -213q55 -14 164 -15q213 0 377 68q243 104 243 342v29h-409q-4 -119 -35 -168q-43 -70 -147 -70q-182 0 -183 201q0 117 72 172q-72 49 -72 145q0 86 43 141.5t129 55.5q174 0 174 -248h369v428h-311q0 -43 -4 -51 q-150 84 -306 84q-164 0 -288 -62q-145 -72 -193 -213q-16 -51 -27.5 -86t-17.5 -55q-31 -94 -94 -139z" />
<glyph unicode="D" horiz-adv-x="1581" d="M33 0h1061q88 0 182 63q82 57 117 148q10 47 22 92t25 92q27 99 82 148q-57 41 -64 71q-104 451 -371 451h-1054v-174h145q80 0 80 -90q0 -10 -2 -33t-2 -33q0 -45 -1 -71.5t-3 -36.5q-12 -53 -74 -84q59 -31 72 -82q6 -25 6 -119l2 -20v-37q0 -111 -66 -111h-157v-174z M690 176v275q0 14 24.5 49t39.5 43q-63 45 -64 92v256h170q68 0 109 -62q32 -50 32 -123q0 -123 -83 -163q55 -41 73 -88q10 -31 10 -88q0 -72 -28 -125q-35 -66 -101 -66h-182z" />
<glyph unicode="E" horiz-adv-x="1413" d="M33 0h1253v416h-297q2 -25 2 -41v-19q0 -182 -110 -182h-205v250h239v203h-239v258h139q33 0 88 -23q72 -31 72 -74v-143h317v420h-1259v-174h26q129 0 160 -37q20 -20 21 -129q0 -80 -4 -100q-14 -55 -76 -82q66 -25 78 -90q2 -6 2 -111v-90q-10 -78 -62 -78h-145v-174z " />
<glyph unicode="F" horiz-adv-x="1366" d="M33 0h889v174h-164q-23 0 -52.5 17.5t-29.5 37.5v195h246v203h-246v264h151q109 0 142 -76q15 -35 15 -117q0 -25 -1 -53h309v420h-1259v-174h26q129 0 160 -37q20 -20 21 -129q0 -80 -4 -100q-14 -55 -76 -82q66 -25 78 -90q2 -6 2 -111v-90q-10 -78 -62 -78h-145v-174z " />
<glyph unicode="G" horiz-adv-x="1488" d="M39 549q68 -47 108 -187q43 -158 82 -204q152 -188 467 -189q141 0 308 76q37 -23 45 -55h270v340q0 39 59 49h78v172h-668v-174q10 2 20.5 3t20.5 1q94 0 95 -72q0 -139 -166 -139q-92 0 -139.5 57.5t-47.5 149.5q0 106 72 172q-65 29 -65 140q0 202 192 202 q203 0 207 -234h336v408h-285q2 -31 -4 -45q-115 78 -328 78q-465 0 -542 -367q-29 -133 -115 -182z" />
<glyph unicode="H" horiz-adv-x="1654" d="M33 0h694v174q-104 0 -104 55v205h331v-209q0 -51 -102 -51v-174h700v174q-35 -6 -61 -6q-82 0 -96 55q-4 20 -4 111q0 90 6 119q14 63 71 96q-61 27 -73 94q-2 8 -3 30.5t-1 63.5q0 90 6 107q14 51 98 51q14 0 27.5 -1t29.5 -3v174h-700v-174q12 4 18 4q20 0 43 -8 q41 -16 41 -39v-203h-331v184q0 62 101 62h3v174h-694v-174q18 1 34 1q94 0 113 -30q8 -10 8 -125q0 -94 -2 -100q-16 -74 -75 -88q80 -41 79 -137v-35q-2 -10 -2 -21v-12q0 -100 -4 -121q-18 -51 -102 -51h-23q-12 0 -26 2v-174z" />
<glyph unicode="I" horiz-adv-x="968" d="M41 0h815v174h-131q-49 0 -59 72q-2 10 -2 96q0 100 2 107q12 68 75 98q-80 39 -79 131v31q2 10 2 16v10q-2 16 -3.5 29.5t-1.5 23.5q0 102 66 103h131v174h-815v-174q16 2 32.5 3t30.5 1q98 0 117 -43q6 -16 6 -115q0 -100 -2 -106q-12 -57 -75 -88q57 -31 73 -86 q4 -20 4 -115q0 -109 -6 -123q-18 -47 -115 -47h-30t-35 2v-174z" />
<glyph unicode="J" horiz-adv-x="1402" d="M6 199q0 -145 244 -199q135 -31 293 -31q575 0 575 228v256q0 16 31 53q29 35 47 39q-61 39 -74 92q-4 20 -4 98q0 102 8 117q23 41 115 41h27q14 0 30 -2v174h-770v-174h15q111 0 131 -29q8 -10 8 -125q0 -92 -2 -98q-12 -59 -76 -92q59 -37 76 -92q2 -10 2 -88 q0 -90 -8 -113q-25 -72 -115 -72q-27 0 -61 11q-55 18 -56 57v211h-436v-262z" />
<glyph unicode="K" horiz-adv-x="1542" d="M33 0h706v174q-96 4 -96 70q0 41 51 86q53 47 92 47q98 0 99 -76v-174q0 -43 47 -86q51 -41 92 -41h430v174q-13 -3 -30 -3q-22 0 -50 5q-74 12 -74 53v164q0 166 -210 193q-45 6 -79 10t-57 6q86 94 131 145.5t56 59.5q96 88 217 88q12 0 24.5 -1t26.5 -3v174h-575v-174 q6 1 12 1q27 0 45 -24q-76 -92 -136.5 -160.5t-107.5 -115.5l-4 244q6 59 76 59q8 0 20 -4v174h-706v-174q133 -4 162 -39q14 -16 14 -125q0 -37 -1 -59.5t-3 -32.5q-16 -66 -76 -92q57 -20 74 -84q6 -29 6 -109q0 -102 -10 -127q-20 -51 -117 -51h-23q-12 0 -26 2v-174z " />
<glyph unicode="L" horiz-adv-x="1341" d="M41 0h1206v455h-311v-152q0 -63 -66 -98q-53 -29 -122 -29q-23 0 -37.5 1t-22.5 3v273q0 18 33 51q37 37 53 39q-63 33 -80 90q-6 20 -6 98q0 102 12 125q20 37 121 37h31q16 0 37 -2v174h-848v-174h137q78 0 78 -96v-15q0 -8 -2 -18v-27q0 -10 2 -29.5t2 -29.5 q0 -84 -82 -133q61 -25 74 -97q4 -20 4 -104l2 -20v-37q0 -111 -66 -111h-149v-174z" />
<glyph unicode="M" horiz-adv-x="1781" d="M33 0h479v174q-10 -1 -19 -1q-92 0 -92 56v519l224 -748h258l235 721v-496q0 -52 -90 -52q-9 0 -20 1v-174h667v174q-12 -2 -24 -2h-23q-84 0 -102 53q-4 16 -4 117v14q0 10 -2 21v33q0 90 79 137q-59 31 -73 86q-4 20 -4 102q0 104 8 119q22 38 111 38q16 0 34 -1v170 h-686q-47 -199 -83 -340t-58 -227q-4 4 -6 7t-4 5q-41 221 -111 559h-694v-174q14 2 24 2h23q82 0 98 -43q4 -16 4 -113q0 -92 -2 -98q-16 -59 -76 -92q57 -33 74 -96q2 -10 3 -37t1 -72q0 -100 -4 -117q-18 -53 -98 -53h-23q-10 0 -24 2v-174z" />
<glyph unicode="N" horiz-adv-x="1529" d="M41 0h549v174q-16 -2 -32 -2q-24 0 -48 4q-76 8 -76 60v499l322 -735h497v453q4 20 31 53q33 37 49 39q-59 31 -73 86q-4 20 -5 100q0 111 13 127q26 33 148 33h14v174h-533v-174q19 2 36 2q95 0 95 -59v-451l-301 682h-686v-174q18 1 34 1q92 0 111 -30q8 -10 9 -125 q0 -98 -2 -104q-14 -57 -82 -90q66 -18 79 -88q2 -10 3.5 -38t1.5 -75q0 -100 -5 -117q-18 -53 -102 -53h-22t-25 2v-174z" />
<glyph unicode="O" horiz-adv-x="1583" d="M23 543q29 -16 45 -28.5t20 -18.5q33 -49 39 -97q20 -158 154 -282q137 -125 294 -133q113 -8 161 -11.5t32 -3.5q276 0 434 103q172 117 236 372q38 70 63 99q-20 14 -53 57q-31 39 -37 68q-115 430 -653 430q-426 0 -580 -248q-14 -20 -55 -162q-31 -102 -100 -145z M571 373q0 49 22.5 101t63.5 69q-57 45 -71 82q-8 18 -8 73q0 193 190 193q195 0 195 -186q0 -106 -78 -162q84 -35 84 -176q0 -205 -193 -205q-94 0 -149.5 58.5t-55.5 152.5z" />
<glyph unicode="P" horiz-adv-x="1472" d="M33 0h823v174h-131q-29 0 -52.5 26.5t-23.5 55.5v135h381q61 0 160 41q92 39 127 90q20 31 49 121q21 69 64 102h-2q-23 0 -60 68l-61 115q-39 55 -136 94q-98 43 -167 43h-971v-174q20 2 37.5 3t33.5 1q96 0 111 -39q6 -16 6 -121q0 -94 -2 -100q-16 -61 -76 -92 q57 -25 74 -86q2 -10 3 -38t1 -75q0 -115 -12 -129q-26 -42 -144 -42q-15 0 -32 1v-174zM657 573v310h170q43 0 78 -60q31 -53 31 -98q0 -55 -31 -100q-37 -51 -90 -52h-158z" />
<glyph unicode="Q" horiz-adv-x="1509" d="M20 543q51 -8 62 -47q55 -193 162 -332q141 -188 327 -189h27q12 0 27 2q-18 -8 -31.5 -13t-22.5 -9q35 -41 59.5 -71.5t41.5 -51.5q51 33 85 33h7l373 -129q7 -1 13 -1q67 0 146 54q86 59 121 131q-23 33 -45 61.5t-49 51.5q-45 -57 -115 -58q-84 0 -168 48 q201 66 277 200q18 31 57 170q33 111 76 150q-12 6 -27.5 21.5t-29 31.5t-23.5 33.5t-10 29.5q-29 242 -250 355q-164 84 -373 84q-444 0 -579 -307q-16 -57 -26.5 -88t-12.5 -37q-35 -90 -99 -123zM565 365q0 113 84 178q-84 59 -84 162q0 86 45 142t127 56q186 0 187 -190 q0 -102 -72 -164q84 -78 84 -172q0 -215 -184 -215q-186 0 -187 203z" />
<glyph unicode="R" horiz-adv-x="1595" d="M33 0h753v174q-92 4 -100 6q-37 14 -37 76v154h172q33 0 74 -31t41 -64v-174q0 -49 57 -94q59 -47 109 -47h399v174q-6 -2 -16 -2q-18 0 -49 10q-45 14 -45 41v139q0 63 -88 115q-53 33 -113 45q84 4 170 103q27 29 53.5 62.5t54.5 70.5q-41 29 -43 45q-35 133 -180 207 q-111 55 -229 55h-983v-174q20 2 37.5 3t33.5 1q96 0 111 -39q6 -16 6 -121q0 -98 -2 -104q-16 -74 -82 -88q61 -25 78 -80q6 -23 6 -119q0 -115 -12 -129q-26 -42 -144 -42q-15 0 -32 1v-174zM657 625v258h185q47 0 80.5 -39t33.5 -86t-30 -86q-35 -47 -78 -47h-191z" />
<glyph unicode="S" horiz-adv-x="1357" d="M51 692q0 -219 211 -286q16 -4 44 -8.5t69 -6.5q74 -4 110 -18q55 -20 97 -86q18 57 131 57q133 0 133 -84q0 -78 -180 -78q-231 0 -250 148h-350v-322h309q-6 18 -6 39q0 18 6 37q168 -102 373 -102q180 0 317 75q182 102 182 303q0 117 -49 183q-47 55 -160 104 q-53 10 -91 16.5t-60 10.5q-104 18 -135 86q-47 -45 -115 -45q-156 0 -156 98q0 90 168 90q117 0 170 -35q61 -41 72 -151h297v348h-264q1 -16 1 -28q0 -25 -5 -36q-145 96 -338 97q-190 0 -340 -88q-190 -111 -191 -318z" />
<glyph unicode="T" horiz-adv-x="1345" d="M33 637h311v199q0 49 76 49q25 0 29 -4v-246q0 -27 -78 -92q61 -31 73 -82q4 -20 5 -119v-111q-6 -47 -80 -55q-6 -2 -109 -2v-174h772v174q-16 -2 -31 -2h-28q-100 0 -121 49q-6 14 -6 121q0 102 2 109q16 80 82 92q-10 6 -23.5 17t-28 24.5t-24.5 27t-10 21.5v252h49 q16 0 35.5 -22.5t21.5 -41.5v-182h310v426h-1227v-428z" />
<glyph unicode="U" horiz-adv-x="1531" d="M27 891q16 2 29.5 3t27.5 1q82 0 100 -51q4 -16 4 -107q0 -88 -2 -98q-16 -61 -75 -94q16 -4 46.5 -41t30.5 -53v-238q0 -150 215 -207q137 -37 338 -37q506 0 506 260v224q0 18 29 53q33 37 49 39q-55 31 -72 90q-6 20 -6 96q0 111 15 127q29 33 153 33h15v174h-578 v-174q16 1 30 1q79 0 99 -38q6 -16 6 -119q0 -94 -2 -100q-14 -63 -76 -88q63 -37 76 -92q2 -6 2 -82q0 -55 -9 -92t-30.5 -58.5t-58.5 -31t-92 -9.5q-109 0 -135 25q-37 33 -37 151q0 86 2 93q14 63 75 96q-61 39 -75 90q-2 10 -2 98q0 45 1 69.5t3 33.5q14 57 94 57 q10 0 20.5 -1t22.5 -3v174h-739v-174z" />
<glyph unicode="V" horiz-adv-x="1597" d="M14 891q11 1 22 1q73 0 136 -24q25 -8 66 -110q41 -100 41 -137q0 -49 -31 -86q80 -29 135 -185q51 -145 83 -232t48 -118h473q29 59 80 201q23 66 43 116t37 82q53 106 121 138q-33 31 -33 61q0 20 41 121q45 106 82 143q29 29 82 29h80v174h-602v-174q104 0 135 -31 q-10 -76 -74 -237l-131 -324l-74 215q6 51 31 76q-47 4 -96 98q-45 88 -45 143q0 59 75 62q14 2 39 1t60 -3v174h-824v-174z" />
<glyph unicode="W" horiz-adv-x="1914" d="M8 891q16 1 30 1q89 0 126 -42q31 -33 55 -152q14 -63 14 -94q0 -20 -16 -50t-35 -38q70 -25 107 -123q10 -29 21.5 -78t25.5 -120q23 -137 49 -195h399q74 279 136 455l114 -455h396q10 33 22 81t22.5 113.5t22.5 114.5t23 82q33 96 92 131q-51 37 -51 80q0 20 28 125 q35 117 53 135q31 27 87 31h28q23 0 62 -2v174h-537v-174q13 1 25 1q54 0 77 -30q-16 -88 -38.5 -184t-49.5 -203l-153 590h-303l-174 -596l-88 354q-1 7 -1 13q0 28 29 43q27 14 70 14q20 0 31 -2v174h-699v-174z" />
<glyph unicode="X" horiz-adv-x="1538" d="M14 891q16 8 39 8q82 0 203 -129q68 -76 114 -128t72 -81q-82 -125 -137 -125q-6 0 -18 4q6 -16 6 -32q0 -55 -66 -138q-84 -102 -168 -102q-20 0 -39 6v-174h590v174h-69q-37 2 -54 37q29 80 121 172q143 -170 160 -190q-23 -18 -72 -19v-174h740v174q-20 -4 -31 -4 q-63 0 -137 68q-20 18 -51 53t-72 86q-37 47 -67.5 79.5t-57.5 53.5q27 37 45 62.5t29 39.5q39 57 106 68q-4 21 -4 38q0 23 8 38q74 137 215 137q21 0 29 -2v174h-576v-174h62q47 -6 47 -33q0 -25 -121 -176q-55 63 -95 109.5t-63 76.5q16 16 21 23q6 2 14 0t17 -2 q10 0 19 -1t20 -3v180h-779v-174z" />
<glyph unicode="Y" horiz-adv-x="1615" d="M8 891q31 10 53 10q86 0 183 -96q121 -121 121 -236q0 -10 -1.5 -17t-3.5 -15q72 -25 82 -31q10 -8 26.5 -25.5t39.5 -44.5q45 -51 45 -69v-148q0 -10 -22.5 -26.5t-34.5 -18.5h-138v-174h830v174h-137q-63 0 -64 115q0 84 55 157q52 69 124 69q8 0 16 -1q-12 27 -13 57 q0 80 91 187q123 141 241 141q27 0 45 -8v174h-655v-174h59q33 -6 51 -31q2 -39 -159 -242q-139 186 -140 230q0 31 48 41q31 6 49 2v174h-791v-174z" />
<glyph unicode="Z" horiz-adv-x="1267" d="M27 0v180l194 207q121 131 121 201q0 6 -4 18q12 -2 23 -2q55 0 102 41q16 14 40.5 43t59.5 70q70 88 107 116q-10 2 -41 3h-80q-113 0 -135 -9q-29 -8 -64 -96q-20 -49 -28 -82h-295v375h1116v-238q-20 -31 -162 -178q-98 -102 -98 -164q0 -20 8 -34h-9q-78 0 -161 -93 q-70 -78 -106.5 -118.5t-43.5 -46.5h207q95 23 95 172q0 12 -1 24h271v-389h-1116z" />
<glyph unicode="[" horiz-adv-x="720" d="M72 371q59 -66 59 -76v-649h498v153h-137q-18 2 -44 17.5t-26 31.5v455q0 29 65 64q-66 35 -65 65v424q0 6 8 15.5t20.5 17.5t25.5 15t22 7h131v154h-498v-612q0 -20 -19.5 -50t-39.5 -32z" />
<glyph unicode="\" horiz-adv-x="737" d="M-61 1208l641 -1372h153l-637 1372h-157z" />
<glyph unicode="]" horiz-adv-x="698" d="M27 -201v-153h505v651q1 25 60 78q-14 2 -37 25.5t-23 37.5v627h-505v-154h125q25 0 56.5 -19.5t31.5 -43.5v-416q0 -6 -7.5 -16t-17.5 -19.5t-21.5 -18.5t-17.5 -11q14 -6 39 -32t25 -40v-438q0 -57 -68 -58h-145z" />
<glyph unicode="^" horiz-adv-x="835" d="M27 860h213l127 180l122 -180h213l-202 324h-271z" />
<glyph unicode="_" horiz-adv-x="847" d="M0 -147v-78h942v78h-942z" />
<glyph unicode="`" d="M203 1180l223 -324h225l-71 324h-377z" />
<glyph unicode="a" d="M12 256q31 -31 37 -39q94 -248 373 -248q174 0 270 90q6 -29 4 -59h486v168q-16 -1 -29 -1q-54 0 -72 13q-28 17 -28 85q0 103 65 128q-10 6 -39 37q-27 29 -26 41v158q0 90 -170 143q-117 35 -207 35q-154 0 -307 -72q-10 8 -7 37h-251v-237h258q35 96 174 96 q145 0 145 -99q0 -20 -4 -24h-205q-317 0 -467 -252zM428 248q0 90 158 90q109 0 102 -2v-160q-35 -20 -110 -20q-150 0 -150 92z" />
<glyph unicode="b" horiz-adv-x="1310" d="M33 2h499q-6 20 -6 41q0 12 4 29q96 -90 267 -90q319 0 420 352q8 26 45 59q-49 31 -74 105q-16 47 -29.5 78.5t-23.5 46.5q-116 163 -325 163h-3q-147 0 -250 -84v363h-524v-160q41 -2 62.5 -3t23.5 -1q63 -12 63 -67v-369q0 -6 -6 -18.5t-15 -23.5t-18.5 -20.5 t-15.5 -9.5q55 -6 55 -110q0 -82 -35 -105q-20 -12 -71 -12q-19 0 -43 2v-166zM553 287q0 68 57 106q-18 4 -34.5 33t-16.5 51q0 47 41 81t88 34q119 0 119 -115q0 -51 -39 -84q35 -35 41 -55q4 -8 4 -39q0 -123 -127 -123q-55 0 -94 28.5t-39 82.5z" />
<glyph unicode="c" horiz-adv-x="1202" d="M6 393q8 0 18.5 -8t19.5 -19.5t16.5 -23.5t9.5 -20q74 -352 524 -353q170 0 315 62q199 90 201 268h-336q0 -66 -38 -104.5t-103 -38.5q-61 0 -106.5 35.5t-45.5 95.5q0 43 66 114q-29 6 -47.5 37t-18.5 62q0 110 138 110h2q145 0 153 -161h303v323h-270q0 -43 -4 -51 q-117 86 -260 86q-102 0 -211 -35q-119 -39 -180 -110q-16 -18 -64 -130q-43 -106 -82 -139z" />
<glyph unicode="d" horiz-adv-x="1269" d="M20 393q43 -31 50 -71q25 -160 137 -256q115 -96 274 -97q168 0 295 115q4 -20 4 -35q0 -23 -6 -47h479v166q-29 -1 -52 -1q-56 0 -71 7q-38 18 -38 98q0 98 59 121q-6 2 -16.5 12.5t-19.5 22.5t-16 24.5t-7 18.5v594h-539v-160h35q82 0 104 -8q35 -16 35 -98 q0 -45 -4 -58q-84 66 -236 66q-221 0 -348 -164q-23 -29 -53 -133q-27 -88 -66 -117zM449 498q0 120 124 120h2q61 0 100.5 -33.5t39.5 -92.5v-41q-8 -27 -45 -58q51 -32 51 -104q0 -113 -133 -113t-133 117q0 59 59 100q-41 33 -49 43q-16 23 -16 62z" />
<glyph unicode="e" horiz-adv-x="1261" d="M6 393q35 -16 49 -71q51 -178 211 -273q143 -80 342 -80q150 0 297 54q194 73 264 223h-413q-23 -102 -146 -103q-72 0 -116 33q-51 39 -52 107q0 27 4 30h717v101q0 188 -221 303q-176 90 -340 90q-416 0 -539 -342q-8 -27 -57 -72zM449 475v35q0 53 55 90q45 31 104 31 q61 0 112.5 -34t51.5 -93v-29h-323z" />
<glyph unicode="f" horiz-adv-x="860" d="M27 0h712v168h-137q-49 0 -49 96q0 45 4 58q8 33 53 71q-6 4 -16 12.5t-19.5 17.5t-15.5 18.5t-6 15.5v141h180v170h-180v55q0 16 11 29.5t28.5 24t38 15.5t39.5 5h90v219h-154q-217 0 -305 -51q-126 -73 -126 -267q0 -15 1 -30h-149v-170h155v-152q0 -18 -59 -53 q47 -41 55 -65q4 -16 4 -56q0 -74 -41 -96q-24 -8 -87 -8h-27v-168z" />
<glyph unicode="g" horiz-adv-x="1284" d="M6 393q43 -31 84 -133q43 -109 49 -117q137 -168 361 -168q49 0 114 17q74 16 103 47l4 -66q-18 -147 -229 -147q-158 0 -289 59l-53 -219q203 -80 370 -80q264 0 422 131q170 139 170 396v209q0 38 57 71q-67 36 -67 117q0 12 2 31.5t2 29.5q0 168 51 201h-389 q2 -43 -6 -63q-84 57 -123 73q-59 25 -139 25q-94 0 -183 -37q-100 -41 -149 -106q-37 -45 -72 -144q-23 -59 -90 -127zM449 287q0 90 65 106q-59 37 -59 94q0 49 36.5 83t86.5 34q47 0 89 -29.5t42 -76.5q0 -55 -66 -105q66 -24 66 -94q0 -123 -131 -123q-129 0 -129 111z " />
<glyph unicode="h" horiz-adv-x="1435" d="M27 0h641v168q-72 2 -88 12q-20 14 -21 80q0 55 21 88q2 8 36 45q-57 25 -57 76q0 47 53 82q45 27 101 27q125 0 125 -97q0 -53 -58 -90q45 -37 56 -65q2 -6 2 -60q0 -55 -4 -67q-14 -31 -72 -31h-14v-168h622v168q-109 2 -127 10q-26 14 -26 83v5q0 53 2 58q6 25 55 69 q-6 2 -16.5 12.5t-19.5 20.5t-15 21.5t-6 17.5v149q0 92 -152 152q-111 41 -195 41q-172 0 -307 -98v356h-536v-168q25 2 39 3t18 1q104 0 104 -59v-389q0 -8 -57 -66q57 -27 57 -117q0 -78 -26 -90q-10 -6 -135 -12v-168z" />
<glyph unicode="i" horiz-adv-x="737" d="M41 0h659v168q-31 -2 -53 -2q-37 0 -51 6q-37 14 -37 88q0 53 2 59q8 39 57 74q-59 41 -59 58v315h-518v-160q16 2 29 2h24q57 0 75.5 -22.5t18.5 -81.5q0 -47 -4 -60q-14 -31 -61 -51q65 -23 65 -120q0 -79 -36 -97q-22 -8 -85 -8h-26v-168zM125 858h393v240h-393v-240z " />
<glyph unicode="j" horiz-adv-x="706" d="M-127 -354q109 -59 260 -60q129 0 252 58q174 80 174 231v447q0 12 27 38q31 31 39 33q-66 35 -66 58v315h-518v-168q39 3 64 3q34 0 45 -5q38 -14 38 -84q0 -53 -8 -70q-12 -29 -57 -49q6 -4 17.5 -13t22.5 -19.5t18 -21.5t7 -17v-381q0 -55 -48 -91t-105 -36t-96 18z M125 858h393v240h-393v-240z" />
<glyph unicode="k" horiz-adv-x="1263" d="M27 0h602v168q-41 -4 -51 0q-18 8 -19 43q0 29 22.5 58.5t49.5 29.5q66 0 86 -76q4 -16 20 -145q29 -78 131 -78h326v168q-29 -6 -51 -6q-68 0 -80 80q-18 121 -35 149q-51 82 -215 82q45 43 80 76t61 55h170v162h-315q-121 -121 -246 -234v533h-536v-168q25 2 39 3t18 1 q104 0 104 -59v-389q0 -18 -65 -60q49 -35 61 -67q4 -16 4 -56q0 -78 -30 -92q-6 -2 -39 -4t-92 -6v-168z" />
<glyph unicode="l" horiz-adv-x="753" d="M27 0h641v168q-72 2 -88 12q-20 14 -21 80q0 25 1 40t3 24q12 43 62 69q-66 35 -66 58v614h-532v-168h88q74 -10 73 -49v-389q0 -14 -24.5 -36t-40.5 -30q49 -35 61 -67q4 -16 4 -56q0 -78 -30 -92q-6 -2 -39 -4t-92 -6v-168z" />
<glyph unicode="m" horiz-adv-x="1935" d="M33 0h583v168q-59 4 -75 33q-8 14 -9 65q0 47 5 60q8 27 55 67q-53 29 -53 82q0 47 41 75t90 28q45 0 74.5 -29t29.5 -74q0 -27 -17.5 -52.5t-41.5 -29.5q51 -39 61 -69q4 -12 4 -58q0 -53 -4 -65q-12 -29 -67 -33v-168h493v168q-78 6 -78 96q0 41 4 58q8 31 56 71 q-39 18 -45 39q-2 2 -2 33q0 106 125 106q104 0 104 -94q0 -33 -12 -53q-10 -10 -18.5 -19.5t-16.5 -19.5q41 -25 49 -57q4 -12 4 -58q0 -51 -10 -67q-16 -29 -68 -35v-168h545v168h-18q-66 0 -84 27q-14 16 -15 75q0 43 4 56q8 20 56 67q-6 2 -16.5 12.5t-19.5 22.5 t-16.5 24.5t-7.5 18.5v150q0 104 -143 153q-92 33 -188 33q-215 0 -316 -137q-98 137 -276 137q-174 0 -287 -125q-6 20 -6 41q0 20 6 43h-479v-160q22 1 40 1q28 0 48 -2q33 -3 43 -7q31 -16 31 -98q0 -45 -5 -58q-10 -25 -61 -49q53 -35 61 -65q4 -16 5 -58q0 -78 -27 -90 q-10 -6 -135 -12v-168z" />
<glyph unicode="n" horiz-adv-x="1419" d="M33 0h610v168q-82 4 -92 10q-18 12 -19 82q0 49 5 62q10 39 55 71q-53 35 -53 78q0 25 12 46.5t32.5 38.5t46 26.5t50.5 9.5q119 0 119 -105q0 -45 -2 -51q-6 -25 -49 -43q65 -40 65 -124q0 -50 -10 -70q-18 -33 -63 -33q-11 0 -23 2v-168h608v168q-111 2 -129 10 q-27 14 -27 88q0 45 5 62q10 33 55 65q-6 2 -16.5 12.5t-19.5 20.5t-16.5 21.5t-7.5 17.5v137q0 104 -145 164q-106 41 -195 41q-180 0 -317 -125q-6 20 -6 41q0 20 6 43h-479v-160q22 1 40 1q28 0 48 -2q33 -3 43 -7q31 -16 31 -98q0 -45 -5 -58q-10 -25 -61 -49 q53 -35 61 -65q4 -16 5 -58q0 -78 -27 -90q-10 -6 -135 -12v-168z" />
<glyph unicode="o" horiz-adv-x="1277" d="M20 393q8 -6 19.5 -18.5t21 -26.5t17.5 -28.5t10 -24.5q47 -188 242 -270q135 -55 303 -56q430 0 565 377q12 35 43 47q-55 68 -70 99q-135 315 -544 315q-418 0 -551 -348q-10 -23 -56 -66zM487 487q0 123 140 123q55 0 98 -32.5t43 -85.5q0 -61 -53 -93q2 -4 30 -37 q14 -14 15 -63q0 -59 -38 -98t-97 -39q-55 0 -93 34.5t-38 90.5q0 76 59 106q-66 43 -66 94z" />
<glyph unicode="p" horiz-adv-x="1310" d="M8 598q33 1 58 1q63 0 79 -7q37 -16 37 -94q0 -37 -4 -54q-8 -27 -47 -59q6 0 15.5 -9t17.5 -21.5t13 -26t5 -21.5v-463q0 -59 -63 -67l-92 -4v-160h694v160q-104 0 -125 10q-49 27 -49 102l6 66q2 29 3 49t-1 31q119 -61 244 -62q217 0 348 168q31 41 57 137 q25 86 70 119q-39 23 -57 72q-127 342 -408 342q-145 0 -272 -113q-4 20 -5 33q0 16 7 39h-531v-168zM571 287q0 82 60 106q-20 8 -36.5 32t-16.5 46q0 106 131 107q116 0 116 -99q0 -65 -51 -86q57 -51 57 -100q0 -53 -34.5 -89t-87.5 -36q-57 0 -97.5 30.5t-40.5 88.5z " />
<glyph unicode="q" horiz-adv-x="1394" d="M20 393q53 -53 56 -78q25 -154 145 -243q113 -82 273 -82q156 0 235 49l6 -176q2 -92 -119 -92h-16q-10 0 -33 2v-160h699v160l-97 4q-63 8 -63 65v473q0 6 6 18.5t15.5 25t19.5 21.5t16 13q-57 20 -57 105q0 76 43 94q19 6 95 6h42v168h-538q6 -25 6 -43q0 -14 -4 -27 q-115 111 -273 111q-213 0 -332 -178q-10 -14 -23 -44t-30 -77q-27 -72 -72 -115zM461 305q0 53 53 88q-4 4 -13 15.5t-20 31.5q-20 39 -20 54q0 43 37 73.5t80 30.5q55 0 93 -30.5t38 -84.5q0 -57 -52 -90q58 -33 58 -90q0 -115 -137 -115q-117 0 -117 117z" />
<glyph unicode="r" horiz-adv-x="1001" d="M41 0h674v168q-119 0 -131 4q-31 12 -31 84q0 57 2 63q8 39 59 74q-55 27 -55 62q0 33 33 53q27 18 61 18h250v240h-235q-27 0 -54.5 -10.5t-51 -28.5t-42 -41.5t-28.5 -48.5q-2 16 -3.5 31.5t-1.5 31.5t1 33t4 33h-451v-160q17 1 32 1q21 0 37 -2q26 -3 37 -7 q35 -16 35 -90q0 -47 -4 -64q-8 -33 -55 -51q47 -35 55 -65q4 -16 4 -58q0 -74 -28 -90q-18 -12 -91 -12h-22v-168z" />
<glyph unicode="s" horiz-adv-x="1120" d="M39 487q0 -131 106 -182q66 -31 211 -49q127 -16 148 -41q35 33 94 33q72 0 72 -47q0 -78 -133 -78q-143 0 -220 110h-245v-233h239q-1 16 -1 29q0 26 5 37q106 -96 306 -97q154 0 266 72q127 86 127 235q0 137 -131 195q-86 41 -223 41h-25q-53 23 -66 41 q-33 -33 -94 -33q-98 0 -98 58q0 65 119 65h4q143 0 178 -90h264v219h-240q2 -27 -4 -37q-115 72 -256 72q-145 0 -258 -68q-145 -90 -145 -252z" />
<glyph unicode="t" horiz-adv-x="860" d="M0 598h162v-152q0 -6 -7.5 -15t-17.5 -17t-21.5 -14.5t-17.5 -6.5q63 -45 64 -71v-181q0 -63 88 -106q74 -35 125 -35h358v168h-151q-49 0 -50 96q0 45 5 62q12 33 61 67q-18 2 -42 24.5t-24 39.5v141h216v170h-216v238h-370v-238h-162v-170z" />
<glyph unicode="u" horiz-adv-x="1300" d="M20 598h13q69 0 88 -20q16 -16 16 -78q0 -45 -4 -62q-10 -33 -55 -65q16 -8 37.5 -32t21.5 -40v-135q0 -106 150 -162q104 -35 194 -35q197 0 328 121q2 -10 3 -20.5t1 -20.5q0 -27 -6 -47h473v160q-33 -1 -59 -1q-63 0 -74 7q-29 16 -29 98q0 49 4 62q10 25 62 45 q-66 47 -66 71v322h-454v-168q92 0 106 -14q10 -10 10 -76q0 -55 -6 -70q-8 -27 -53 -65q47 -25 53 -72v-78q-14 -18 -65 -33q-45 -14 -78 -14q-123 0 -123 103v47q10 25 51 51q-66 43 -65 88v301h-474v-168z" />
<glyph unicode="v" horiz-adv-x="1318" d="M2 598q8 2 25 2q53 0 88 -30.5t35 -82.5q0 -37 -27 -81q72 -18 149 -173q53 -106 83 -164.5t36 -68.5h400l149 250q90 147 143 162q-17 36 -17 61q0 5 1 10q8 45 43 84t78 39q19 0 33 -8v168h-473v-168h47q27 0 45 -23v-6q0 -50 -62 -157l-98 -172q-55 104 -55 137 q0 29 28 63q-106 37 -106 99q0 61 67 61h13q8 0 16 -2v168h-641v-168z" />
<glyph unicode="w" horiz-adv-x="1759" d="M0 598q12 1 23 1q106 0 106 -107q0 -47 -31 -80q84 -31 123 -138q88 -229 113 -274h328l153 350l135 -350h355q94 203 96 211q16 41 28.5 67.5t18.5 43.5q37 79 91 79h1q8 0 21 -4q-35 35 -37 45q-2 4 -2 35q0 57 39 92q33 30 80 30q8 0 16 -1v168h-453v-168q20 2 33 2 h16q29 -4 41 -18q-4 -47 -37 -111l-65 -127l-166 422h-244l-188 -408l-74 195q0 49 68 49q6 0 22 -4v168h-610v-168z" />
<glyph unicode="x" horiz-adv-x="1409" d="M8 0h486v156q-61 0 -78 22q29 39 57.5 70t56.5 57l72 -59q47 -41 47 -66q-15 -24 -71 -24h-5v-156h719v168q-14 -2 -29 -2q-142 0 -307 176q61 86 109 86q8 0 20 -4q-8 14 -8 33q0 57 62 104q57 39 118 39h19q8 0 16 -2v168h-497v-160q-6 2 57 2q29 0 33 -24 q-29 -41 -54.5 -71t-48.5 -52q-133 115 -133 131q0 8 6 12h72v162h-719v-168h117q68 0 240 -160q-41 -55 -97 -55q-25 0 -26 2q8 -18 8 -45q0 -51 -51 -102q-74 -74 -160 -74q-10 0 -31 4v-168z" />
<glyph unicode="y" horiz-adv-x="1478" d="M8 598v168h668v-166q-2 -2 -51 0q-31 4 -47 -18q0 -23 11 -44.5t30.5 -39t43 -27.5t48.5 -10q-23 -45 -23 -62q0 -39 64 -100q63 76 63 121q0 23 -16 39q57 8 77.5 35.5t20.5 87.5q-23 20 -55 18q-59 -4 -62 0v166h635v-168q-25 10 -49 10q-43 0 -90 -20q-88 -33 -88 -92 q0 -30 26 -58q-94 -20 -219 -217l-10 -16q-152 -238 -209 -332q-96 -152 -196 -203q-57 -32 -174 -32h-7q-80 0 -190 40v220q4 -4 82 -17q35 -4 59.5 -6t34.5 -4h7q72 0 138 82l-184 276q-115 168 -203 183q33 31 33 65q0 53 -45 88t-100 35q-16 0 -23 -2z" />
<glyph unicode="z" horiz-adv-x="1159" d="M27 0h1011v305h-219q2 -10 3 -18t1 -17q0 -78 -73 -96q-20 -4 -117 -4h-74t-39 2l123 111q68 61 131 61q8 0 22.5 -2t22.5 -2q-4 16 -4 27q0 57 74 118q117 98 119 103v178h-961v-264h219q-2 10 -2 30q0 59 49 76q10 2 97 2q41 0 64.5 -1t33.5 -3q-35 -31 -70 -61.5 t-69 -63.5q-65 -48 -142 -48q-9 0 -18 1q12 -16 12 -33q0 -53 -82 -122q-41 -35 -68.5 -59.5t-43.5 -39.5v-180z" />
<glyph unicode="{" horiz-adv-x="776" d="M66 371q59 -41 59 -97q41 4 63 -6v-622h500v153h-137q-20 2 -45 19.5t-25 36.5v417q-37 -4 -59 7q6 14 -21 47q-25 31 -43 41q16 2 43 39q18 25 27 51h53v393q0 18 28 38.5t48 22.5h131v154h-500v-604h-63q0 -61 -59 -90z" />
<glyph unicode="|" horiz-adv-x="559" d="M131 -354h291v1419h-291v-1419z" />
<glyph unicode="}" horiz-adv-x="720" d="M47 -201v-153h500v628h63q1 68 60 93q-25 10 -43.5 38.5t-16.5 55.5q-49 0 -63 6v598h-500v-154h125q23 -2 52.5 -19.5t29.5 -37.5v-397q35 4 59 -6q-4 -35 64 -84q-39 -16 -53 -48q-4 -10 -8.5 -22t-8.5 -25h-53v-422q0 -18 -23.5 -33.5t-46.5 -17.5h-137z" />
<glyph unicode="~" horiz-adv-x="827" d="M12 1024l101 -166q53 37 118 60l252 -54q123 -4 213 121q-88 94 -121 133q-72 -55 -108 -55q-6 0 -14 4l-242 45q-168 -14 -199 -88z" />
<glyph unicode="&#xa1;" horiz-adv-x="784" d="M29 348q43 -37 63 -96q14 -39 29 -121q61 -135 241 -135q170 0 236 129q10 25 33 125q16 72 57 98q-106 47 -139 184q-20 78 -23 213h-336q19 -303 -161 -397zM190 819h336v279h-336v-279z" />
<glyph unicode="&#xa2;" horiz-adv-x="825" d="M29 432q12 -12 31.5 -38.5t45.5 -67.5q51 -80 87 -113q59 -53 141 -63v-150h153q-2 35 -2 61v48q0 39 2 41q74 -10 154 43q82 50 82 126v56h-201q4 -35 -26.5 -59.5t-65.5 -24.5q-109 0 -108 131q0 55 26 94q27 49 80 49q41 0 71.5 -32.5t22.5 -71.5h180v225h-133 q0 -29 -6 -31q-53 31 -80 43v152h-149v-143q-98 -35 -105 -37q-53 -25 -88 -68q-4 -6 -19.5 -31.5t-37.5 -72.5q-35 -66 -55 -66z" />
<glyph unicode="&#xa3;" horiz-adv-x="1316" d="M27 0h1194v401h-330q8 -227 -127 -227h-180l55 186v121h270v176h-245v68q0 39 30 92q35 59 70 60q59 0 59 -68q0 -8 -4 -21h377v21q-74 289 -483 289q-428 0 -465 -441h-150v-176h144v-28q0 -63 -105 -119q16 -8 40 -33t24 -41q0 -55 -76 -74l-98 -12v-174z" />
<glyph unicode="&#xa4;" horiz-adv-x="1062" d="M43 106l107 -106l157 156q117 -51 195 -52q131 0 188 58l162 -162l109 106q-102 111 -158 170q53 78 53 183q0 98 -53 186l158 164l-109 106q-125 -125 -162 -155q-88 53 -186 53q-102 0 -197 -53l-157 155l-107 -106l156 -170q-23 -23 -37 -86q-14 -51 -15 -94 q0 -104 52 -189q-59 -59 -97.5 -100t-58.5 -64zM303 459q0 41 16.5 76.5t44 62.5t63.5 42t77 15t76.5 -16t62.5 -44t42 -63.5t15 -76.5q0 -78 -59 -138q-57 -57 -137 -57q-41 0 -77 16.5t-63.5 43t-44 62.5t-16.5 77z" />
<glyph unicode="&#xa5;" horiz-adv-x="1626" d="M8 481h469q10 -18 47 -63q29 -39 29 -45v-154q0 -10 -22.5 -26.5t-34.5 -18.5h-138v-174h830v174h-137q-63 27 -64 49v139q0 16 90 119h475v178h-356q156 236 307 236q10 0 21.5 -1t21.5 -3v174h-655v-174h59q33 -6 51 -31q2 -35 -43 -92q-80 -102 -84 -113h-57 q-14 20 -29.5 44t-33.5 53q-51 78 -52 96q0 31 48 41q31 6 49 2v174h-791v-174q25 6 49 6q178 0 287 -238h-336v-178z" />
<glyph unicode="&#xa6;" horiz-adv-x="409" d="M49 -319h309v641h-309v-641zM49 598h309v645h-309v-645z" />
<glyph unicode="&#xa7;" horiz-adv-x="952" d="M45 432q0 -106 76 -149q41 -25 166 -45q129 -23 172 -43q57 31 88 30q61 0 61 -43q0 -74 -116 -73q-137 0 -193 100h-221v-209h209q0 49 4 57q125 -94 272 -94q145 0 242 68q108 78 108 215q0 102 -79 155q80 76 79 187q0 106 -79 153q-29 16 -162 50q-123 31 -150 53 q-35 -37 -88 -37q-82 0 -82 55t107 56q111 0 157 -72h232v186h-211q4 -31 -4 -35q-88 66 -225 66q-147 0 -248 -64q-115 -78 -115 -219q0 -66 27 -94q49 -51 53 -63q-80 -84 -80 -191zM315 526q0 47 64 47q39 0 80 -34q41 29 88 28q61 0 61 -43q0 -74 -143 -73q-41 0 -90 16 q-59 23 -60 59z" />
<glyph unicode="&#xa8;" d="M270 858h281v240h-281v-240zM647 856h281v240h-281v-240z" />
<glyph unicode="&#xa9;" horiz-adv-x="1208" d="M20 449q0 -213 189 -340q162 -109 354 -109q190 0 352 102q197 126 197 347q0 209 -190 337q-164 111 -359 111q-190 0 -354 -109q-188 -127 -189 -339zM143 449q0 158 136 256q121 88 284 88q150 0 275 -82q149 -98 149 -262q0 -172 -158 -269q-121 -76 -266 -76 q-164 0 -284 89q-135 98 -136 256zM186 446q33 -16 47 -73q10 -35 18.5 -58.5t16.5 -38.5q43 -74 174 -106q31 -8 80 -8q117 0 203 41q104 55 104 164v14h-200q-2 -119 -92 -119t-91 100q0 55 37 84q-37 25 -37 74q0 96 86 96t86 -122h183v213h-154q0 -25 -2 -27 q-74 43 -151 43q-195 0 -240 -137q-39 -117 -68 -140z" />
<glyph unicode="&#xab;" horiz-adv-x="1191" d="M33 397l217 -397h368l-165 397l165 400h-368zM545 397l217 -397h368l-165 397l165 400h-368z" />
<glyph unicode="&#xac;" horiz-adv-x="0" />
<glyph unicode="&#xad;" horiz-adv-x="665" d="M66 229h557v283h-557v-283z" />
<glyph unicode="&#xae;" horiz-adv-x="1224" d="M20 453q0 -217 191 -347q156 -106 354 -106q193 0 350 102q197 126 197 351q0 207 -190 335q-164 109 -357 109q-190 0 -354 -109q-190 -129 -191 -335zM143 453q0 164 152 260q125 80 270 80q162 0 283 -88q139 -98 139 -252q0 -174 -149 -269q-123 -80 -273 -80 q-162 0 -284 93q-137 100 -138 256zM272 242h299v67l-41 4q-14 2 -14 29v61h68q14 0 30.5 -12t16.5 -24v-70q0 -18 23.5 -36.5t41.5 -18.5h158v69q-12 -2 -27 0q-18 6 -18 19v55q0 45 -78 64q33 0 111 92q-16 8 -19 18q-8 45 -63 78q-45 27 -98 27h-390v-70q61 4 70 -10 q4 -8 4 -52q0 -68 -33 -75q33 -12 33 -80q0 -39 -4 -51q-12 -18 -70 -17v-67zM520 487v103h72q45 0 45 -49q0 -53 -43 -54h-74z" />
<glyph unicode="&#xb0;" horiz-adv-x="765" d="M12 797q0 -125 90 -215q88 -88 217 -88q127 0 216 88q90 90 90 215q0 123 -90 213q-88 88 -216 88q-129 0 -217 -88q-90 -90 -90 -213zM188 797q0 55 36 91t91 36t94.5 -36t39.5 -91q0 -57 -38 -92t-96 -35q-53 0 -90 36.5t-37 90.5z" />
<glyph unicode="&#xb4;" d="M557 856h225l224 324h-377z" />
<glyph unicode="&#xb6;" horiz-adv-x="1548" d="M39 737q47 -35 63 -88q29 -100 56 -133q33 -47 129 -86q98 -41 153 -41h172v-389h111v389h94v-389h619v174q-141 -6 -176 41q-12 18 -13 129q0 47 1 72.5t3 34.5q12 82 74 96q-55 2 -72 80q-6 33 -6 108q0 104 6 117q23 41 121 41h29q16 0 33 -2v174h-971q-74 0 -168 -41 q-96 -41 -133 -96q-8 -10 -22.5 -35t-37.5 -64q-35 -61 -65 -92zM539 727q0 47 8 64q12 37 61 79v-284q-70 43 -69 141zM723 573v310h88v-310h-88z" />
<glyph unicode="&#xb7;" horiz-adv-x="577" d="M92 391h336v277h-336v-277z" />
<glyph unicode="&#xb8;" horiz-adv-x="1202" d="M334 -348q111 -47 237 -47q98 0 166 37q82 39 82 118q0 135 -157 136q-16 0 -31 -1t-29 -4l68 109h-150l-90 -147l53 -60q35 10 62 10q76 0 76 -47q0 -18 -30 -29.5t-56 -11.5q-57 0 -156 39z" />
<glyph unicode="&#xbb;" horiz-adv-x="1191" d="M33 0l166 397l-166 400h368l217 -400l-217 -397h-368zM545 0l166 397l-166 400h368l217 -400l-217 -397h-368z" />
<glyph unicode="&#xbf;" horiz-adv-x="1153" d="M27 379q12 -2 39 -35q25 -29 24 -43q-8 -174 199 -254q135 -51 327 -51q139 0 275 41q207 68 207 221v104h-369q2 -10 2 -30q0 -125 -127 -125q-66 0 -86 31q-18 25 -18 90q0 117 100 149l53 8q59 8 93 13.5t42 7.5q94 25 95 90v158h-336v-60q0 -49 -80 -63 q-29 -4 -57.5 -6t-57.5 -7q-117 -14 -170 -61q-47 -53 -86.5 -98t-68.5 -80zM547 819h336v279h-336v-279z" />
<glyph unicode="&#xc0;" horiz-adv-x="1660" d="M20 0h629v174h-94q-74 0 -74 59q0 25 25 72h412q25 -35 24 -65q0 -51 -53 -64q-10 -2 -29.5 -3t-52.5 1v-174h772v174q-94 0 -121 8q-29 10 -78 127q-47 111 -47 152q0 55 29 84q-76 2 -143 129q-51 94 -68 194q33 20 78 25h26q20 0 50 -2v174h-1006v-174h119 q29 0 63 -25q0 -68 -61 -180q-72 -135 -154 -143q33 -25 33 -62q0 -35 -45 -137q-16 -41 -31.5 -69.5t-27.5 -45.5q-45 -59 -105 -57q-25 2 -43 2h-27v-174zM457 1470l223 -323h225l-71 323h-377zM592 502l127 272l125 -272h-252z" />
<glyph unicode="&#xc1;" horiz-adv-x="1660" d="M20 0h629v174h-94q-74 0 -74 59q0 25 25 72h412q25 -35 24 -65q0 -51 -53 -64q-10 -2 -29.5 -3t-52.5 1v-174h772v174q-94 0 -121 8q-29 10 -78 127q-47 111 -47 152q0 55 29 84q-76 2 -143 129q-51 94 -68 194q33 20 78 25h26q20 0 50 -2v174h-1006v-174h119 q29 0 63 -25q0 -68 -61 -180q-72 -135 -154 -143q33 -25 33 -62q0 -35 -45 -137q-16 -41 -31.5 -69.5t-27.5 -45.5q-45 -59 -105 -57q-25 2 -43 2h-27v-174zM592 502l127 272l125 -272h-252zM758 1147h225l223 323h-377z" />
<glyph unicode="&#xc2;" horiz-adv-x="1660" d="M20 0h629v174h-94q-74 0 -74 59q0 25 25 72h412q25 -35 24 -65q0 -51 -53 -64q-10 -2 -29.5 -3t-52.5 1v-174h772v174q-94 0 -121 8q-29 10 -78 127q-47 111 -47 152q0 55 29 84q-76 2 -143 129q-51 94 -68 194q33 20 78 25h26q20 0 50 -2v174h-1006v-174h119 q29 0 63 -25q0 -68 -61 -180q-72 -135 -154 -143q33 -25 33 -62q0 -35 -45 -137q-16 -41 -31.5 -69.5t-27.5 -45.5q-45 -59 -105 -57q-25 2 -43 2h-27v-174zM469 1147h213l127 180l123 -180h213l-203 323h-270zM592 502l127 272l125 -272h-252z" />
<glyph unicode="&#xc3;" horiz-adv-x="1660" d="M20 0h629v174h-94q-74 0 -74 59q0 25 25 72h412q25 -35 24 -65q0 -51 -53 -64q-10 -2 -29.5 -3t-52.5 1v-174h772v174q-94 0 -121 8q-29 10 -78 127q-47 111 -47 152q0 55 29 84q-76 2 -143 129q-51 94 -68 194q33 20 78 25h26q20 0 50 -2v174h-1006v-174h119 q29 0 63 -25q0 -68 -61 -180q-72 -135 -154 -143q33 -25 33 -62q0 -35 -45 -137q-16 -41 -31.5 -69.5t-27.5 -45.5q-45 -59 -105 -57q-25 2 -43 2h-27v-174zM467 1307l100 -166q53 37 119 59l252 -53q123 -4 213 121q-88 94 -121 133q-72 -55 -108 -55q-6 0 -15 4l-241 45 q-168 -14 -199 -88zM592 502l127 272l125 -272h-252z" />
<glyph unicode="&#xc4;" horiz-adv-x="1660" d="M20 0h629v174h-94q-74 0 -74 59q0 25 25 72h412q25 -35 24 -65q0 -51 -53 -64q-10 -2 -29.5 -3t-52.5 1v-174h772v174q-94 0 -121 8q-29 10 -78 127q-47 111 -47 152q0 55 29 84q-76 2 -143 129q-51 94 -68 194q33 20 78 25h26q20 0 50 -2v174h-1006v-174h119 q29 0 63 -25q0 -68 -61 -180q-72 -135 -154 -143q33 -25 33 -62q0 -35 -45 -137q-16 -41 -31.5 -69.5t-27.5 -45.5q-45 -59 -105 -57q-25 2 -43 2h-27v-174zM401 1149h281v240h-281v-240zM592 502l127 272l125 -272h-252zM778 1147h281v239h-281v-239z" />
<glyph unicode="&#xc5;" horiz-adv-x="1660" d="M20 0h629v174h-94q-74 0 -74 59q0 25 25 72h412q25 -35 24 -65q0 -51 -53 -64q-10 -2 -29.5 -3t-52.5 1v-174h772v174q-94 0 -121 8q-29 10 -78 127q-47 111 -47 152q0 55 29 84q-76 2 -143 129q-51 94 -68 194q33 20 78 25h26q20 0 50 -2v174h-1006v-174h119 q29 0 63 -25q0 -68 -61 -180q-72 -135 -154 -143q33 -25 33 -62q0 -35 -45 -137q-16 -41 -31.5 -69.5t-27.5 -45.5q-45 -59 -105 -57q-25 2 -43 2h-27v-174zM512 1364q0 -92 62.5 -154.5t154.5 -62.5q88 0 152 63q65 66 65 154t-65 154q-63 63 -152 63q-92 0 -154.5 -62.5 t-62.5 -154.5zM592 502l127 272l125 -272h-252zM641 1364q0 39 24.5 63.5t63.5 24.5q37 0 62.5 -25.5t25.5 -62.5t-25.5 -62.5t-62.5 -25.5q-39 0 -63.5 25.5t-24.5 62.5z" />
<glyph unicode="&#xc6;" horiz-adv-x="1898" d="M20 0h629v174h-94q-74 0 -74 59q0 25 25 72h412q25 -35 24 -65q0 -51 -53 -64q-6 -2 -17 -2h-65v-174h967v416h-297q2 -25 2 -41v-19q0 -182 -111 -182h-76q-113 0 -129 14v236h240v203h-240v258h140q33 0 88 -23q72 -31 71 -74v-143h318v420h-1481v-174h119q29 0 63 -25 q0 -68 -61 -180q-72 -135 -154 -143q33 -25 33 -62q0 -35 -45 -137q-16 -41 -31.5 -69.5t-27.5 -45.5q-45 -59 -105 -57q-25 2 -43 2h-27v-174zM592 502l127 272l125 -272h-252z" />
<glyph unicode="&#xc7;" horiz-adv-x="1417" d="M39 543q63 -35 96 -150q45 -164 68 -196q88 -147 352 -213q37 -10 92 -13l-72 -118l54 -60q35 10 61 10q76 0 76 -47q0 -18 -29.5 -29.5t-56.5 -11.5q-57 0 -156 39l-45 -102q111 -47 238 -47q98 0 166 37q82 39 82 118q0 135 -158 136q-16 0 -30.5 -1t-28.5 -4l49 80 q164 8 299 66q244 104 243 342v29h-409q-4 -119 -35 -168q-43 -70 -147 -70q-182 0 -183 201q0 117 72 172q-72 49 -72 145q0 86 43 141.5t129 55.5q174 0 174 -248h369v428h-311q0 -43 -4 -51q-150 84 -306 84q-164 0 -288 -62q-145 -72 -193 -213q-16 -51 -27.5 -86 t-17.5 -55q-31 -94 -94 -139z" />
<glyph unicode="&#xc8;" horiz-adv-x="1413" d="M33 0h1253v416h-297q2 -25 2 -41v-19q0 -182 -110 -182h-205v250h239v203h-239v258h139q33 0 88 -23q72 -31 72 -74v-143h317v420h-1259v-174q152 4 186 -37q20 -20 21 -129q0 -80 -4 -100q-14 -55 -76 -82q66 -25 78 -90q2 -6 2 -111v-90q-10 -78 -62 -78h-145v-174z M449 1470l223 -323h225l-72 323h-376z" />
<glyph unicode="&#xc9;" horiz-adv-x="1413" d="M33 0h1253v416h-297q2 -25 2 -41v-19q0 -182 -110 -182h-205v250h239v203h-239v258h139q33 0 88 -23q72 -31 72 -74v-143h317v420h-1259v-174q152 4 186 -37q20 -20 21 -129q0 -80 -4 -100q-14 -55 -76 -82q66 -25 78 -90q2 -6 2 -111v-90q-10 -78 -62 -78h-145v-174z M684 1147h225l224 323h-377z" />
<glyph unicode="&#xca;" horiz-adv-x="1413" d="M33 0h1253v416h-297q2 -25 2 -41v-19q0 -182 -110 -182h-205v250h239v203h-239v258h139q33 0 88 -23q72 -31 72 -74v-143h317v420h-1259v-174q152 4 186 -37q20 -20 21 -129q0 -80 -4 -100q-14 -55 -76 -82q66 -25 78 -90q2 -6 2 -111v-90q-10 -78 -62 -78h-145v-174z " />
<glyph unicode="&#xcb;" horiz-adv-x="1413" d="M33 0h1253v416h-297q2 -25 2 -41v-19q0 -182 -110 -182h-205v250h239v203h-239v258h139q33 0 88 -23q72 -31 72 -74v-143h317v420h-1259v-174q152 4 186 -37q20 -20 21 -129q0 -80 -4 -100q-14 -55 -76 -82q66 -25 78 -90q2 -6 2 -111v-90q-10 -78 -62 -78h-145v-174z M387 1149h281v240h-281v-240zM764 1147h280v239h-280v-239z" />
<glyph unicode="&#xcc;" horiz-adv-x="968" d="M4 1470l223 -323h226l-72 323h-377zM41 0h815v174h-131q-49 0 -59 72q-2 10 -2 96q0 100 2 107q12 68 75 98q-80 39 -79 131v31q2 10 2 16v10q-2 16 -3.5 29.5t-1.5 23.5q0 102 66 103h131v174h-815v-174q16 2 32.5 3t30.5 1q98 0 117 -43q6 -16 6 -115q0 -100 -2 -106 q-12 -57 -75 -88q57 -31 73 -86q4 -20 4 -115q0 -109 -6 -123q-18 -47 -115 -47h-30t-35 2v-174z" />
<glyph unicode="&#xcd;" horiz-adv-x="968" d="M41 0h815v174h-131q-49 0 -59 72q-2 10 -2 96q0 100 2 107q12 68 75 98q-80 39 -79 131v31q2 10 2 16v10q-2 16 -3.5 29.5t-1.5 23.5q0 102 66 103h131v174h-815v-174q16 2 32.5 3t30.5 1q98 0 117 -43q6 -16 6 -115q0 -100 -2 -106q-12 -57 -75 -88q57 -31 73 -86 q4 -20 4 -115q0 -109 -6 -123q-18 -47 -115 -47h-30t-35 2v-174zM477 1147h225l224 323h-377z" />
<glyph unicode="&#xce;" horiz-adv-x="968" d="M41 0h815v174h-131q-49 0 -59 72q-2 10 -2 96q0 100 2 107q12 68 75 98q-80 39 -79 131v31q2 10 2 16v10q-2 16 -3.5 29.5t-1.5 23.5q0 102 66 103h131v174h-815v-174q16 2 32.5 3t30.5 1q98 0 117 -43q6 -16 6 -115q0 -100 -2 -106q-12 -57 -75 -88q57 -31 73 -86 q4 -20 4 -115q0 -109 -6 -123q-18 -47 -115 -47h-30t-35 2v-174zM117 1147h213l127 180l123 -180h213l-203 323h-271z" />
<glyph unicode="&#xcf;" horiz-adv-x="968" d="M41 0h815v174h-131q-49 0 -59 72q-2 10 -2 96q0 100 2 107q12 68 75 98q-80 39 -79 131v31q2 10 2 16v10q-2 16 -3.5 29.5t-1.5 23.5q0 102 66 103h131v174h-815v-174q16 2 32.5 3t30.5 1q98 0 117 -43q6 -16 6 -115q0 -100 -2 -106q-12 -57 -75 -88q57 -31 73 -86 q4 -20 4 -115q0 -109 -6 -123q-18 -47 -115 -47h-30t-35 2v-174zM123 1149h280v240h-280v-240zM500 1147h280v239h-280v-239z" />
<glyph unicode="&#xd1;" horiz-adv-x="1529" d="M41 0h549v174q-41 -4 -80 2q-76 8 -76 60v499l322 -735h497v453q4 20 31 53q33 37 49 39q-59 31 -73 86q-4 20 -5 100q0 111 13 127q27 35 162 33v174h-533v-174q131 12 131 -57v-451l-301 682h-686v-174q123 6 145 -29q8 -10 9 -125q0 -98 -2 -104q-14 -57 -82 -90 q66 -18 79 -88q2 -10 3.5 -38t1.5 -75q0 -100 -5 -117q-18 -53 -102 -53h-22t-25 2v-174zM467 1307l100 -166q53 37 119 59l252 -53q123 -4 213 121q-88 94 -121 133q-72 -55 -108 -55q-6 0 -15 4l-241 45q-168 -14 -199 -88z" />
<glyph unicode="&#xd2;" horiz-adv-x="1583" d="M23 543q29 -16 45 -28.5t20 -18.5q33 -49 39 -97q20 -158 154 -282q137 -125 294 -133q113 -8 161 -11.5t32 -3.5q276 0 434 103q172 117 236 372q38 70 63 99q-20 14 -53 57q-31 39 -37 68q-115 430 -653 430q-426 0 -580 -248q-14 -20 -55 -162q-31 -102 -100 -145z M418 1470l223 -323h225l-71 323h-377zM571 373q0 49 22.5 101t63.5 69q-57 45 -71 82q-8 18 -8 73q0 193 190 193q195 0 195 -186q0 -106 -78 -162q84 -35 84 -176q0 -205 -193 -205q-94 0 -149.5 58.5t-55.5 152.5z" />
<glyph unicode="&#xd3;" horiz-adv-x="1583" d="M23 543q29 -16 45 -28.5t20 -18.5q33 -49 39 -97q20 -158 154 -282q137 -125 294 -133q113 -8 161 -11.5t32 -3.5q276 0 434 103q172 117 236 372q38 70 63 99q-20 14 -53 57q-31 39 -37 68q-115 430 -653 430q-426 0 -580 -248q-14 -20 -55 -162q-31 -102 -100 -145z M571 373q0 49 22.5 101t63.5 69q-57 45 -71 82q-8 18 -8 73q0 193 190 193q195 0 195 -186q0 -106 -78 -162q84 -35 84 -176q0 -205 -193 -205q-94 0 -149.5 58.5t-55.5 152.5zM637 1147h225l223 323h-376z" />
<glyph unicode="&#xd4;" horiz-adv-x="1583" d="M23 543q29 -16 45 -28.5t20 -18.5q33 -49 39 -97q20 -158 154 -282q137 -125 294 -133q113 -8 161 -11.5t32 -3.5q276 0 434 103q172 117 236 372q38 70 63 99q-20 14 -53 57q-31 39 -37 68q-115 430 -653 430q-426 0 -580 -248q-14 -20 -55 -162q-31 -102 -100 -145z M426 1147h213l127 180l123 -180h213l-203 323h-270zM571 373q0 49 22.5 101t63.5 69q-57 45 -71 82q-8 18 -8 73q0 193 190 193q195 0 195 -186q0 -106 -78 -162q84 -35 84 -176q0 -205 -193 -205q-94 0 -149.5 58.5t-55.5 152.5z" />
<glyph unicode="&#xd5;" horiz-adv-x="1583" d="M23 543q29 -16 45 -28.5t20 -18.5q33 -49 39 -97q20 -158 154 -282q137 -125 294 -133q113 -8 161 -11.5t32 -3.5q276 0 434 103q172 117 236 372q38 70 63 99q-20 14 -53 57q-31 39 -37 68q-115 430 -653 430q-426 0 -580 -248q-14 -20 -55 -162q-31 -102 -100 -145z M467 1307l100 -166q53 37 119 59l252 -53q123 -4 213 121q-88 94 -121 133q-72 -55 -108 -55q-6 0 -15 4l-241 45q-168 -14 -199 -88zM571 373q0 49 22.5 101t63.5 69q-57 45 -71 82q-8 18 -8 73q0 193 190 193q195 0 195 -186q0 -106 -78 -162q84 -35 84 -176 q0 -205 -193 -205q-94 0 -149.5 58.5t-55.5 152.5z" />
<glyph unicode="&#xd6;" horiz-adv-x="1583" d="M23 543q29 -16 45 -28.5t20 -18.5q33 -49 39 -97q20 -158 154 -282q137 -125 294 -133q113 -8 161 -11.5t32 -3.5q276 0 434 103q172 117 236 372q38 70 63 99q-20 14 -53 57q-31 39 -37 68q-115 430 -653 430q-426 0 -580 -248q-14 -20 -55 -162q-31 -102 -100 -145z M438 1149h281v240h-281v-240zM571 373q0 49 22.5 101t63.5 69q-57 45 -71 82q-8 18 -8 73q0 193 190 193q195 0 195 -186q0 -106 -78 -162q84 -35 84 -176q0 -205 -193 -205q-94 0 -149.5 58.5t-55.5 152.5zM815 1147h281v239h-281v-239z" />
<glyph unicode="&#xd7;" horiz-adv-x="995" d="M96 664l238 -238l-234 -233l176 -177l234 234l238 -240l180 180l-240 240l238 238l-174 174l-238 -238l-238 238z" />
<glyph unicode="&#xd8;" horiz-adv-x="1583" d="M23 543q29 -16 45 -28.5t20 -18.5q33 -49 39 -97q20 -158 154 -282q137 -125 294 -133q113 -8 161 -11.5t32 -3.5q276 0 434 103q172 117 236 372q38 70 63 99q-20 14 -53 57q-31 39 -37 68q-115 430 -653 430q-426 0 -580 -248q-14 -20 -55 -162q-31 -102 -100 -145z M571 373q0 49 22.5 101t63.5 69q-57 45 -71 82q-8 18 -8 73q0 193 190 193q195 0 195 -186q0 -106 -78 -162q84 -35 84 -176q0 -205 -193 -205q-94 0 -149.5 58.5t-55.5 152.5z" />
<glyph unicode="&#xd9;" horiz-adv-x="1531" d="M27 891q16 2 29.5 3t27.5 1q82 0 100 -51q4 -16 4 -107q0 -88 -2 -98q-16 -61 -75 -94q16 -4 46.5 -41t30.5 -53v-238q0 -150 215 -207q137 -37 338 -37q506 0 506 260v224q0 18 29 53q33 37 49 39q-55 31 -72 90q-6 20 -6 96q0 111 15 127q31 35 168 33v174h-578v-174 q106 8 129 -37q6 -16 6 -119q0 -94 -2 -100q-14 -63 -76 -88q63 -37 76 -92q2 -6 2 -82q0 -55 -9 -92t-30.5 -58.5t-58.5 -31t-92 -9.5q-109 0 -135 25q-37 33 -37 151q0 86 2 93q14 63 75 96q-61 39 -75 90q-2 10 -2 98q0 45 1 69.5t3 33.5q14 57 94 57q10 0 20.5 -1 t22.5 -3v174h-739v-174zM457 1470l223 -323h225l-71 323h-377z" />
<glyph unicode="&#xda;" horiz-adv-x="1531" d="M27 891q16 2 29.5 3t27.5 1q82 0 100 -51q4 -16 4 -107q0 -88 -2 -98q-16 -61 -75 -94q16 -4 46.5 -41t30.5 -53v-238q0 -150 215 -207q137 -37 338 -37q506 0 506 260v224q0 18 29 53q33 37 49 39q-55 31 -72 90q-6 20 -6 96q0 111 15 127q31 35 168 33v174h-578v-174 q106 8 129 -37q6 -16 6 -119q0 -94 -2 -100q-14 -63 -76 -88q63 -37 76 -92q2 -6 2 -82q0 -55 -9 -92t-30.5 -58.5t-58.5 -31t-92 -9.5q-109 0 -135 25q-37 33 -37 151q0 86 2 93q14 63 75 96q-61 39 -75 90q-2 10 -2 98q0 45 1 69.5t3 33.5q14 57 94 57q10 0 20.5 -1 t22.5 -3v174h-739v-174zM698 1147h226l223 323h-377z" />
<glyph unicode="&#xdb;" horiz-adv-x="1531" d="M27 891q16 2 29.5 3t27.5 1q82 0 100 -51q4 -16 4 -107q0 -88 -2 -98q-16 -61 -75 -94q16 -4 46.5 -41t30.5 -53v-238q0 -150 215 -207q137 -37 338 -37q506 0 506 260v224q0 18 29 53q33 37 49 39q-55 31 -72 90q-6 20 -6 96q0 111 15 127q31 35 168 33v174h-578v-174 q106 8 129 -37q6 -16 6 -119q0 -94 -2 -100q-14 -63 -76 -88q63 -37 76 -92q2 -6 2 -82q0 -55 -9 -92t-30.5 -58.5t-58.5 -31t-92 -9.5q-109 0 -135 25q-37 33 -37 151q0 86 2 93q14 63 75 96q-61 39 -75 90q-2 10 -2 98q0 45 1 69.5t3 33.5q14 57 94 57q10 0 20.5 -1 t22.5 -3v174h-739v-174zM469 1147h213l127 180l123 -180h213l-203 323h-270z" />
<glyph unicode="&#xdc;" horiz-adv-x="1531" d="M27 891q16 2 29.5 3t27.5 1q82 0 100 -51q4 -16 4 -107q0 -88 -2 -98q-16 -61 -75 -94q16 -4 46.5 -41t30.5 -53v-238q0 -150 215 -207q137 -37 338 -37q506 0 506 260v224q0 18 29 53q33 37 49 39q-55 31 -72 90q-6 20 -6 96q0 111 15 127q31 35 168 33v174h-578v-174 q106 8 129 -37q6 -16 6 -119q0 -94 -2 -100q-14 -63 -76 -88q63 -37 76 -92q2 -6 2 -82q0 -55 -9 -92t-30.5 -58.5t-58.5 -31t-92 -9.5q-109 0 -135 25q-37 33 -37 151q0 86 2 93q14 63 75 96q-61 39 -75 90q-2 10 -2 98q0 45 1 69.5t3 33.5q14 57 94 57q10 0 20.5 -1 t22.5 -3v174h-739v-174zM485 1149h281v240h-281v-240zM862 1147h281v239h-281v-239z" />
<glyph unicode="&#xdd;" horiz-adv-x="1615" d="M8 891q31 10 53 10q86 0 183 -96q121 -121 121 -236q0 -10 -1.5 -17t-3.5 -15q72 -25 82 -31q10 -8 26.5 -25.5t39.5 -44.5q45 -51 45 -69v-148q0 -10 -22.5 -26.5t-34.5 -18.5h-138v-174h830v174h-137q-63 0 -64 115q0 84 55 157q57 76 140 68q-12 27 -13 57 q0 80 91 187q123 141 241 141q27 0 45 -8v174h-655v-174h59q33 -6 51 -31q2 -39 -159 -242q-139 186 -140 230q0 31 48 41q31 6 49 2v174h-791v-174zM725 1147h225l224 323h-377z" />
<glyph unicode="&#xdf;" horiz-adv-x="1306" d="M27 0h532v322q0 29 59 71q-59 29 -59 58v145h68q41 0 77.5 -16.5t65.5 -44t45 -64.5t16 -78q0 -74 -40.5 -126t-114.5 -52q-43 0 -58 6v-219q88 -20 173 -20q250 0 350 137q10 16 23.5 45t27.5 72q26 75 63 106q-49 29 -71 88q-29 82 -49 102q-39 43 -109 76 q-20 10 -54 22.5t-81 28.5q127 4 246 236q-25 20 -60 88q-33 70 -65 92q-41 29 -185 47q-57 8 -101 11.5t-79 3.5q-242 0 -332 -47q-145 -78 -133 -324h-155v-168h161v-145q0 -18 -65 -60q66 -41 65 -121q0 -76 -38 -94q-27 -12 -123 -10v-168zM559 618v203q0 43 24.5 79 t65.5 36q92 0 92 -117q0 -137 -159 -201h-23z" />
<glyph unicode="&#xe0;" d="M12 256q31 -31 37 -39q94 -248 373 -248q174 0 270 90q6 -29 4 -59h486v168q-78 -4 -101 12q-29 18 -28 90q0 98 65 123q-10 6 -39 37q-27 29 -26 41v158q0 90 -170 143q-117 35 -207 35q-154 0 -307 -72q-10 8 -7 37h-251v-237h258q35 96 174 96q145 0 145 -99 q0 -20 -4 -24h-205q-317 0 -467 -252zM203 1180l223 -324h225l-71 324h-377zM428 248q0 90 158 90q109 0 102 -2v-160q-35 -20 -110 -20q-150 0 -150 92z" />
<glyph unicode="&#xe1;" d="M12 256q31 -31 37 -39q94 -248 373 -248q174 0 270 90q6 -29 4 -59h486v168q-78 -4 -101 12q-29 18 -28 90q0 98 65 123q-10 6 -39 37q-27 29 -26 41v158q0 90 -170 143q-117 35 -207 35q-154 0 -307 -72q-10 8 -7 37h-251v-237h258q35 96 174 96q145 0 145 -99 q0 -20 -4 -24h-205q-317 0 -467 -252zM428 248q0 90 158 90q109 0 102 -2v-160q-35 -20 -110 -20q-150 0 -150 92zM557 856h225l224 324h-377z" />
<glyph unicode="&#xe2;" d="M12 256q31 -31 37 -39q94 -248 373 -248q174 0 270 90q6 -29 4 -59h486v168q-78 -4 -101 12q-29 18 -28 90q0 98 65 123q-10 6 -39 37q-27 29 -26 41v158q0 90 -170 143q-117 35 -207 35q-154 0 -307 -72q-10 8 -7 37h-251v-237h258q35 96 174 96q145 0 145 -99 q0 -20 -4 -24h-205q-317 0 -467 -252zM266 856h213l127 180l123 -180h213l-203 324h-270zM428 248q0 90 158 90q109 0 102 -2v-160q-35 -20 -110 -20q-150 0 -150 92z" />
<glyph unicode="&#xe3;" d="M12 256q31 -31 37 -39q94 -248 373 -248q174 0 270 90q6 -29 4 -59h486v168q-78 -4 -101 12q-29 18 -28 90q0 98 65 123q-10 6 -39 37q-27 29 -26 41v158q0 90 -170 143q-117 35 -207 35q-154 0 -307 -72q-10 8 -7 37h-251v-237h258q35 96 174 96q145 0 145 -99 q0 -20 -4 -24h-205q-317 0 -467 -252zM260 1014l100 -166q53 37 119 59l252 -53q123 -4 213 121q-88 94 -121 133q-72 -55 -108 -55q-6 0 -15 4l-241 45q-168 -14 -199 -88zM428 248q0 90 158 90q109 0 102 -2v-160q-35 -20 -110 -20q-150 0 -150 92z" />
<glyph unicode="&#xe4;" d="M12 256q31 -31 37 -39q94 -248 373 -248q174 0 270 90q6 -29 4 -59h486v168q-78 -4 -101 12q-29 18 -28 90q0 98 65 123q-10 6 -39 37q-27 29 -26 41v158q0 90 -170 143q-117 35 -207 35q-154 0 -307 -72q-10 8 -7 37h-251v-237h258q35 96 174 96q145 0 145 -99 q0 -20 -4 -24h-205q-317 0 -467 -252zM270 858h281v240h-281v-240zM428 248q0 90 158 90q109 0 102 -2v-160q-35 -20 -110 -20q-150 0 -150 92zM647 856h281v240h-281v-240z" />
<glyph unicode="&#xe5;" d="M12 256q31 -31 37 -39q94 -248 373 -248q174 0 270 90q6 -29 4 -59h486v168q-78 -4 -101 12q-29 18 -28 90q0 98 65 123q-10 6 -39 37q-27 29 -26 41v158q0 90 -170 143q-117 35 -207 35q-154 0 -307 -72q-10 8 -7 37h-251v-237h258q35 96 174 96q145 0 145 -99 q0 -20 -4 -24h-205q-317 0 -467 -252zM395 1077q0 -92 62.5 -154.5t154.5 -62.5q88 0 152 64q65 65 65 153t-65 154q-63 63 -152 63q-92 0 -154.5 -62.5t-62.5 -154.5zM428 248q0 90 158 90q109 0 102 -2v-160q-35 -20 -110 -20q-150 0 -150 92zM524 1077q0 39 24.5 63.5 t63.5 24.5q37 0 62.5 -25.5t25.5 -62.5t-25.5 -62.5t-62.5 -25.5q-39 0 -63.5 25.5t-24.5 62.5z" />
<glyph unicode="&#xe6;" horiz-adv-x="1748" d="M6 258q16 -16 25.5 -26.5t11.5 -12.5q14 -29 24.5 -50.5t18.5 -37.5q104 -160 330 -160q174 0 270 90q6 -25 4 -43v-16q96 -2 150 -2h63q8 0 78 -14q39 -8 67.5 -12.5t51.5 -4.5q174 0 321 64q177 78 240 213h-414q-23 -102 -145 -103q-33 0 -84 13q-18 8 -19 12 q-66 41 -65 115q0 14 4 30h717v101q0 176 -199 293q-170 100 -362 100q-72 0 -111 -12q-8 -4 -33.5 -14.5t-66.5 -30.5q-137 59 -213 59q-154 0 -308 -72q-8 8 -6 27v10h-252v-237h258q35 96 175 96q145 0 145 -98q0 -12 -4 -25q-287 0 -381 -25q-182 -45 -291 -227z M422 250q0 90 158 90q94 0 102 -2v-160q-35 -20 -111 -20q-150 0 -149 92zM940 475v35q0 53 55 90q45 31 105 31q61 0 112.5 -34t51.5 -93v-29h-324z" />
<glyph unicode="&#xe7;" horiz-adv-x="1202" d="M6 393q8 0 18.5 -8t19.5 -19.5t16.5 -23.5t9.5 -20q72 -326 458 -351l-71 -118l53 -60q35 10 61 10q76 0 76 -47q0 -18 -29.5 -29.5t-56.5 -11.5q-57 0 -155 39l-46 -102q111 -47 238 -47q98 0 166 37q82 39 82 118q0 135 -158 136q-16 0 -30.5 -1t-28.5 -4l49 82 q127 12 231 58q199 90 201 268h-336q0 -66 -38 -104.5t-103 -38.5q-61 0 -106.5 35.5t-45.5 95.5q0 43 66 114q-29 6 -47.5 37t-18.5 62q0 111 140 110q145 0 153 -161h303v323h-270q0 -43 -4 -51q-117 86 -260 86q-102 0 -211 -35q-119 -39 -180 -110q-16 -18 -64 -130 q-43 -106 -82 -139z" />
<glyph unicode="&#xe8;" horiz-adv-x="1261" d="M6 393q35 -16 49 -71q51 -178 211 -273q143 -80 342 -80q150 0 297 54q194 73 264 223h-413q-23 -102 -146 -103q-72 0 -116 33q-51 39 -52 107q0 27 4 30h717v101q0 188 -221 303q-176 90 -340 90q-416 0 -539 -342q-8 -27 -57 -72zM203 1180l223 -324h225l-71 324h-377 zM449 475v35q0 53 55 90q45 31 104 31q61 0 112.5 -34t51.5 -93v-29h-323z" />
<glyph unicode="&#xe9;" horiz-adv-x="1261" d="M6 393q35 -16 49 -71q51 -178 211 -273q143 -80 342 -80q150 0 297 54q194 73 264 223h-413q-23 -102 -146 -103q-72 0 -116 33q-51 39 -52 107q0 27 4 30h717v101q0 188 -221 303q-176 90 -340 90q-416 0 -539 -342q-8 -27 -57 -72zM449 475v35q0 53 55 90q45 31 104 31 q61 0 112.5 -34t51.5 -93v-29h-323zM557 856h225l224 324h-377z" />
<glyph unicode="&#xea;" horiz-adv-x="1261" d="M6 393q35 -16 49 -71q51 -178 211 -273q143 -80 342 -80q150 0 297 54q194 73 264 223h-413q-23 -102 -146 -103q-72 0 -116 33q-51 39 -52 107q0 27 4 30h717v101q0 188 -221 303q-176 90 -340 90q-416 0 -539 -342q-8 -27 -57 -72zM266 856h213l127 180l123 -180h213 l-203 324h-270zM449 475v35q0 53 55 90q45 31 104 31q61 0 112.5 -34t51.5 -93v-29h-323z" />
<glyph unicode="&#xeb;" horiz-adv-x="1261" d="M6 393q35 -16 49 -71q51 -178 211 -273q143 -80 342 -80q150 0 297 54q194 73 264 223h-413q-23 -102 -146 -103q-72 0 -116 33q-51 39 -52 107q0 27 4 30h717v101q0 188 -221 303q-176 90 -340 90q-416 0 -539 -342q-8 -27 -57 -72zM270 858h281v240h-281v-240zM449 475 v35q0 53 55 90q45 31 104 31q61 0 112.5 -34t51.5 -93v-29h-323zM647 856h281v240h-281v-240z" />
<glyph unicode="&#xec;" horiz-adv-x="737" d="M-45 1180l221 -324h225l-71 324h-375zM41 0h659v168q-82 -6 -104 4q-37 14 -37 88q0 53 2 59q8 39 57 74q-59 41 -59 58v315h-518v-160q16 2 29 2h24q57 0 75.5 -22.5t18.5 -81.5q0 -47 -4 -60q-14 -31 -61 -51q66 -23 65 -123q0 -76 -36 -94q-27 -10 -111 -8v-168z" />
<glyph unicode="&#xed;" horiz-adv-x="737" d="M41 0h659v168q-82 -6 -104 4q-37 14 -37 88q0 53 2 59q8 39 57 74q-59 41 -59 58v315h-518v-160q16 2 29 2h24q57 0 75.5 -22.5t18.5 -81.5q0 -47 -4 -60q-14 -31 -61 -51q66 -23 65 -123q0 -76 -36 -94q-27 -10 -111 -8v-168zM338 856h225l223 324h-376z" />
<glyph unicode="&#xee;" horiz-adv-x="737" d="M20 856h213l127 180l123 -180h213l-202 324h-271zM41 0h659v168q-82 -6 -104 4q-37 14 -37 88q0 53 2 59q8 39 57 74q-59 41 -59 58v315h-518v-160q16 2 29 2h24q57 0 75.5 -22.5t18.5 -81.5q0 -47 -4 -60q-14 -31 -61 -51q66 -23 65 -123q0 -76 -36 -94q-27 -10 -111 -8 v-168z" />
<glyph unicode="&#xef;" horiz-adv-x="737" d="M8 858h281v240h-281v-240zM41 0h659v168q-82 -6 -104 4q-37 14 -37 88q0 53 2 59q8 39 57 74q-59 41 -59 58v315h-518v-160q16 2 29 2h24q57 0 75.5 -22.5t18.5 -81.5q0 -47 -4 -60q-14 -31 -61 -51q66 -23 65 -123q0 -76 -36 -94q-27 -10 -111 -8v-168zM385 856h281v240 h-281v-240z" />
<glyph unicode="&#xf1;" horiz-adv-x="1419" d="M33 0h610v168q-82 4 -92 10q-18 12 -19 82q0 49 5 62q10 39 55 71q-53 35 -53 78q0 25 12 46.5t32.5 38.5t46 26.5t50.5 9.5q119 0 119 -105q0 -45 -2 -51q-6 -25 -49 -43q66 -41 65 -127q0 -47 -10 -67q-23 -41 -86 -31v-168h608v168q-111 2 -129 10q-27 14 -27 88 q0 45 5 62q10 33 55 65q-6 2 -16.5 12.5t-19.5 20.5t-16.5 21.5t-7.5 17.5v137q0 104 -145 164q-106 41 -195 41q-180 0 -317 -125q-6 20 -6 41q0 20 6 43h-479v-160q55 2 88 -1t43 -7q31 -16 31 -98q0 -45 -5 -58q-10 -25 -61 -49q53 -35 61 -65q4 -16 5 -58q0 -78 -27 -90 q-10 -6 -135 -12v-168zM260 1014l100 -166q53 37 119 59l252 -53q123 -4 213 121q-88 94 -121 133q-72 -55 -108 -55q-6 0 -15 4l-241 45q-168 -14 -199 -88z" />
<glyph unicode="&#xf2;" horiz-adv-x="1277" d="M20 393q8 -6 19.5 -18.5t21 -26.5t17.5 -28.5t10 -24.5q47 -188 242 -270q135 -55 303 -56q430 0 565 377q12 35 43 47q-55 68 -70 99q-135 315 -544 315q-418 0 -551 -348q-10 -23 -56 -66zM203 1180l223 -324h225l-71 324h-377zM487 487q0 123 140 123q55 0 98 -32.5 t43 -85.5q0 -61 -53 -93q2 -4 30 -37q14 -14 15 -63q0 -59 -38 -98t-97 -39q-55 0 -93 34.5t-38 90.5q0 76 59 106q-66 43 -66 94z" />
<glyph unicode="&#xf3;" horiz-adv-x="1277" d="M20 393q8 -6 19.5 -18.5t21 -26.5t17.5 -28.5t10 -24.5q47 -188 242 -270q135 -55 303 -56q430 0 565 377q12 35 43 47q-55 68 -70 99q-135 315 -544 315q-418 0 -551 -348q-10 -23 -56 -66zM487 487q0 123 140 123q55 0 98 -32.5t43 -85.5q0 -61 -53 -93q2 -4 30 -37 q14 -14 15 -63q0 -59 -38 -98t-97 -39q-55 0 -93 34.5t-38 90.5q0 76 59 106q-66 43 -66 94zM557 856h225l224 324h-377z" />
<glyph unicode="&#xf4;" horiz-adv-x="1277" d="M20 393q8 -6 19.5 -18.5t21 -26.5t17.5 -28.5t10 -24.5q47 -188 242 -270q135 -55 303 -56q430 0 565 377q12 35 43 47q-55 68 -70 99q-135 315 -544 315q-418 0 -551 -348q-10 -23 -56 -66zM266 856h213l127 180l123 -180h213l-203 324h-270zM487 487q0 123 140 123 q55 0 98 -32.5t43 -85.5q0 -61 -53 -93q2 -4 30 -37q14 -14 15 -63q0 -59 -38 -98t-97 -39q-55 0 -93 34.5t-38 90.5q0 76 59 106q-66 43 -66 94z" />
<glyph unicode="&#xf5;" horiz-adv-x="1277" d="M20 393q8 -6 19.5 -18.5t21 -26.5t17.5 -28.5t10 -24.5q47 -188 242 -270q135 -55 303 -56q430 0 565 377q12 35 43 47q-55 68 -70 99q-135 315 -544 315q-418 0 -551 -348q-10 -23 -56 -66zM287 1014l100 -166q53 37 119 59l252 -53q123 -4 213 121q-88 94 -121 133 q-72 -55 -109 -55q-6 0 -14 4l-242 45q-168 -14 -198 -88zM487 487q0 123 140 123q55 0 98 -32.5t43 -85.5q0 -61 -53 -93q2 -4 30 -37q14 -14 15 -63q0 -59 -38 -98t-97 -39q-55 0 -93 34.5t-38 90.5q0 76 59 106q-66 43 -66 94z" />
<glyph unicode="&#xf6;" horiz-adv-x="1277" d="M20 393q8 -6 19.5 -18.5t21 -26.5t17.5 -28.5t10 -24.5q47 -188 242 -270q135 -55 303 -56q430 0 565 377q12 35 43 47q-55 68 -70 99q-135 315 -544 315q-418 0 -551 -348q-10 -23 -56 -66zM301 858h281v240h-281v-240zM487 487q0 123 140 123q55 0 98 -32.5t43 -85.5 q0 -61 -53 -93q2 -4 30 -37q14 -14 15 -63q0 -59 -38 -98t-97 -39q-55 0 -93 34.5t-38 90.5q0 76 59 106q-66 43 -66 94zM678 856h280v240h-280v-240z" />
<glyph unicode="&#xf7;" horiz-adv-x="978" d="M53 299h922v252h-922v-252zM358 -37h304v244h-304v-244zM358 645h304v244h-304v-244z" />
<glyph unicode="&#xf8;" horiz-adv-x="1277" d="M20 393q8 -6 19.5 -18.5t21 -26.5t17.5 -28.5t10 -24.5q47 -188 242 -270q135 -55 303 -56q430 0 565 377q12 35 43 47q-55 68 -70 99q-135 315 -544 315q-418 0 -551 -348q-10 -23 -56 -66zM487 487q0 123 140 123q55 0 98 -32.5t43 -85.5q0 -61 -53 -93q2 -4 30 -37 q14 -14 15 -63q0 -59 -38 -98t-97 -39q-55 0 -93 34.5t-38 90.5q0 76 59 106q-66 43 -66 94z" />
<glyph unicode="&#xf9;" horiz-adv-x="1300" d="M20 598q80 2 101 -20q16 -16 16 -78q0 -45 -4 -62q-10 -33 -55 -65q16 -8 37.5 -32t21.5 -40v-135q0 -106 150 -162q104 -35 194 -35q197 0 328 121q2 -10 3 -20.5t1 -20.5q0 -27 -6 -47h473v160q-117 -4 -133 6q-29 16 -29 98q0 49 4 62q10 25 62 45q-66 47 -66 71v322 h-454v-168q92 0 106 -14q10 -10 10 -76q0 -55 -6 -70q-8 -27 -53 -65q47 -25 53 -72v-78q-14 -18 -65 -33q-45 -14 -78 -14q-123 0 -123 103v47q10 25 51 51q-66 43 -65 88v301h-474v-168zM203 1180l223 -324h225l-71 324h-377z" />
<glyph unicode="&#xfa;" horiz-adv-x="1300" d="M20 598q80 2 101 -20q16 -16 16 -78q0 -45 -4 -62q-10 -33 -55 -65q16 -8 37.5 -32t21.5 -40v-135q0 -106 150 -162q104 -35 194 -35q197 0 328 121q2 -10 3 -20.5t1 -20.5q0 -27 -6 -47h473v160q-117 -4 -133 6q-29 16 -29 98q0 49 4 62q10 25 62 45q-66 47 -66 71v322 h-454v-168q92 0 106 -14q10 -10 10 -76q0 -55 -6 -70q-8 -27 -53 -65q47 -25 53 -72v-78q-14 -18 -65 -33q-45 -14 -78 -14q-123 0 -123 103v47q10 25 51 51q-66 43 -65 88v301h-474v-168zM557 856h225l224 324h-377z" />
<glyph unicode="&#xfb;" horiz-adv-x="1300" d="M20 598q80 2 101 -20q16 -16 16 -78q0 -45 -4 -62q-10 -33 -55 -65q16 -8 37.5 -32t21.5 -40v-135q0 -106 150 -162q104 -35 194 -35q197 0 328 121q2 -10 3 -20.5t1 -20.5q0 -27 -6 -47h473v160q-117 -4 -133 6q-29 16 -29 98q0 49 4 62q10 25 62 45q-66 47 -66 71v322 h-454v-168q92 0 106 -14q10 -10 10 -76q0 -55 -6 -70q-8 -27 -53 -65q47 -25 53 -72v-78q-14 -18 -65 -33q-45 -14 -78 -14q-123 0 -123 103v47q10 25 51 51q-66 43 -65 88v301h-474v-168zM252 856h213l127 180l123 -180h213l-203 324h-270z" />
<glyph unicode="&#xfc;" horiz-adv-x="1300" d="M20 598q80 2 101 -20q16 -16 16 -78q0 -45 -4 -62q-10 -33 -55 -65q16 -8 37.5 -32t21.5 -40v-135q0 -106 150 -162q104 -35 194 -35q197 0 328 121q2 -10 3 -20.5t1 -20.5q0 -27 -6 -47h473v160q-117 -4 -133 6q-29 16 -29 98q0 49 4 62q10 25 62 45q-66 47 -66 71v322 h-454v-168q92 0 106 -14q10 -10 10 -76q0 -55 -6 -70q-8 -27 -53 -65q47 -25 53 -72v-78q-14 -18 -65 -33q-45 -14 -78 -14q-123 0 -123 103v47q10 25 51 51q-66 43 -65 88v301h-474v-168zM252 858h280v240h-280v-240zM629 856h280v240h-280v-240z" />
<glyph unicode="&#xfd;" horiz-adv-x="1478" d="M8 598v168h668v-166q-2 -2 -51 0q-31 4 -47 -18q0 -23 11 -44.5t30.5 -39t43 -27.5t48.5 -10q-23 -45 -23 -62q0 -39 64 -100q63 76 63 121q0 23 -16 39q57 8 77.5 35.5t20.5 87.5q-23 20 -55 18q-59 -4 -62 0v166h635v-168q-25 10 -49 10q-43 0 -90 -20q-88 -33 -88 -90 q-1 -31 26 -60q-94 -20 -219 -217q-80 -125 -135 -212t-84 -136q-96 -152 -196 -203q-59 -33 -181 -32q-80 0 -190 40v220q4 -4 82 -17q35 -4 59.5 -6t34.5 -4q76 -4 145 82l-184 276q-115 168 -203 183q33 31 33 65q0 53 -45 88t-100 35q-16 0 -23 -2zM612 856h226l223 324 h-377z" />
<glyph unicode="&#xff;" horiz-adv-x="1478" d="M8 598v168h668v-166q-2 -2 -51 0q-31 4 -47 -18q0 -23 11 -44.5t30.5 -39t43 -27.5t48.5 -10q-23 -45 -23 -62q0 -39 64 -100q63 76 63 121q0 23 -16 39q57 8 77.5 35.5t20.5 87.5q-23 20 -55 18q-59 -4 -62 0v166h635v-168q-25 10 -49 10q-43 0 -90 -20q-88 -33 -88 -90 q-1 -31 26 -60q-94 -20 -219 -217q-80 -125 -135 -212t-84 -136q-96 -152 -196 -203q-59 -33 -181 -32q-80 0 -190 40v220q4 -4 82 -17q35 -4 59.5 -6t34.5 -4q76 -4 145 82l-184 276q-115 168 -203 183q33 31 33 65q0 53 -45 88t-100 35q-16 0 -23 -2zM397 858h281v240 h-281v-240zM774 856h281v240h-281v-240z" />
<glyph unicode="&#x152;" horiz-adv-x="1978" d="M23 543q29 -16 45 -28.5t20 -18.5q33 -49 39 -97q20 -158 154 -282q137 -125 294 -133q113 -8 161 -11.5t32 -3.5q154 0 274 31h813v416h-296q2 -25 2 -41v-19q0 -182 -111 -182h-205v250h240v203h-240v258h139q33 0 89 -23q72 -31 71 -74v-143h318v420h-838 q-113 33 -266 33q-426 0 -580 -248q-14 -20 -55 -162q-31 -102 -100 -145zM571 373q0 49 22.5 101t63.5 69q-57 45 -71 82q-8 18 -8 73q0 193 190 193q195 0 195 -186q0 -106 -78 -162q84 -35 84 -176q0 -205 -193 -205q-94 0 -149.5 58.5t-55.5 152.5z" />
<glyph unicode="&#x153;" horiz-adv-x="1851" d="M8 393q8 -6 19.5 -18.5t20.5 -26.5t17.5 -28.5t10.5 -24.5q47 -188 241 -270q135 -55 304 -56q98 0 157 25q41 14 121 69l6 -2q41 -29 75 -45t56 -24q68 -23 162 -23q150 0 297 54q194 73 264 223h-413q-23 -102 -146 -103q-72 0 -117 33q-51 39 -51 107q0 27 4 30h717 v101q0 188 -221 303q-176 90 -340 90q-102 0 -166 -25q-45 -14 -125 -69q-80 53 -123 69q-61 25 -164 25q-418 0 -551 -348q-10 -23 -55 -66zM475 487q0 123 139 123q55 0 98.5 -32.5t43.5 -85.5q0 -61 -54 -93q2 -4 31 -37q14 -14 15 -63q0 -59 -38 -98t-98 -39 q-55 0 -93 34.5t-38 90.5q0 76 60 106q-66 43 -66 94zM1038 475v35q0 53 56 90q45 31 104 31q61 0 112.5 -34t51.5 -93v-29h-324z" />
<glyph unicode="&#x178;" horiz-adv-x="1615" d="M8 891q31 10 53 10q86 0 183 -96q121 -121 121 -236q0 -10 -1.5 -17t-3.5 -15q72 -25 82 -31q10 -8 26.5 -25.5t39.5 -44.5q45 -51 45 -69v-148q0 -10 -22.5 -26.5t-34.5 -18.5h-138v-174h830v174h-137q-63 0 -64 115q0 84 55 157q57 76 140 68q-12 27 -13 57 q0 80 91 187q123 141 241 141q27 0 45 -8v174h-655v-174h59q33 -6 51 -31q2 -39 -159 -242q-139 186 -140 230q0 31 48 41q31 6 49 2v174h-791v-174zM512 1149h281v240h-281v-240zM889 1147h280v239h-280v-239z" />
<glyph unicode="&#x2c6;" d="M266 856h213l127 180l123 -180h213l-203 324h-270z" />
<glyph unicode="&#x2dc;" d="M260 1014l100 -166q53 37 119 59l252 -53q123 -4 213 121q-88 94 -121 133q-72 -55 -108 -55q-6 0 -15 4l-241 45q-168 -14 -199 -88z" />
<glyph unicode="&#x2000;" horiz-adv-x="790" />
<glyph unicode="&#x2001;" horiz-adv-x="1581" />
<glyph unicode="&#x2002;" horiz-adv-x="790" />
<glyph unicode="&#x2003;" horiz-adv-x="1581" />
<glyph unicode="&#x2004;" horiz-adv-x="527" />
<glyph unicode="&#x2005;" horiz-adv-x="395" />
<glyph unicode="&#x2006;" horiz-adv-x="263" />
<glyph unicode="&#x2007;" horiz-adv-x="263" />
<glyph unicode="&#x2008;" horiz-adv-x="197" />
<glyph unicode="&#x2009;" horiz-adv-x="316" />
<glyph unicode="&#x200a;" horiz-adv-x="87" />
<glyph unicode="&#x2010;" horiz-adv-x="665" d="M66 229h557v283h-557v-283z" />
<glyph unicode="&#x2011;" horiz-adv-x="665" d="M66 229h557v283h-557v-283z" />
<glyph unicode="&#x2012;" horiz-adv-x="665" d="M66 229h557v283h-557v-283z" />
<glyph unicode="&#x2013;" horiz-adv-x="921" d="M0 358h922v277h-922v-277z" />
<glyph unicode="&#x2014;" horiz-adv-x="1843" d="M0 358h1843v277h-1843v-277z" />
<glyph unicode="&#x2018;" horiz-adv-x="489" d="M39 774q0 -51 27 -117q37 -92 100 -92h211v279h-178q-16 4 -64 -51l-6 30q10 43 59 92q10 10 32 30t52 46l-41 74q-86 -35 -139 -116t-53 -175z" />
<glyph unicode="&#x2019;" horiz-adv-x="512" d="M33 786h164q35 0 79 52q2 -2 3 -15q0 -49 -50 -104q-41 -51 -92 -72l41 -82q199 80 199 297q0 55 -31 121q-39 82 -102 82h-211v-279z" />
<glyph unicode="&#x201a;" horiz-adv-x="518" d="M33 -4h164q33 0 79 49q2 -2 3 -14q0 -45 -48 -99q-45 -51 -94 -69l41 -82q199 94 199 287q0 57 -31 122q-39 82 -102 82h-211v-276z" />
<glyph unicode="&#x201c;" horiz-adv-x="899" d="M39 768q0 -55 27 -117q37 -92 100 -92h211v279h-178q-16 4 -64 -52l-6 29q10 41 57 92q10 10 32 29.5t54 48.5l-41 74q-86 -35 -139 -116t-53 -175zM449 768q0 -55 26 -117q37 -92 100 -92h211v279h-178q-12 0 -34.5 -19.5t-30.5 -32.5q-8 6 -4 11q-6 43 47 108 q47 55 96 72l-41 82q-193 -94 -192 -291z" />
<glyph unicode="&#x201d;" horiz-adv-x="929" d="M33 780h172q27 0 78 51q4 -4 4 -14q0 -25 -13.5 -51.5t-34 -49t-46 -41t-50.5 -26.5q12 -29 22.5 -49t18.5 -35q199 94 199 289q0 51 -29 119q-41 86 -104 86h-217v-279zM449 780h165q35 0 78 51q4 -4 4 -14q0 -47 -47 -100q-45 -49 -96 -70l41 -82q199 94 199 289 q0 55 -29 119q-41 86 -105 86h-210v-279z" />
<glyph unicode="&#x201e;" horiz-adv-x="929" d="M33 -6h172q25 0 78 49q4 -4 4 -14q0 -45 -47 -98.5t-97 -67.5q12 -29 22.5 -49.5t18.5 -34.5q199 94 199 287q0 51 -29 118q-41 86 -104 86h-217v-276zM449 -6h165q35 0 78 49q4 -4 4 -14q0 -45 -47 -99q-45 -49 -96 -69l41 -82q199 94 199 287q0 55 -29 118 q-41 86 -105 86h-210v-276z" />
<glyph unicode="&#x2022;" horiz-adv-x="821" d="M111 592q0 -121 90 -211q88 -88 213 -88q123 0 211 88q90 90 90 211q0 127 -88 215q-90 90 -213 90q-125 0 -215 -90q-88 -88 -88 -215z" />
<glyph unicode="&#x2026;" horiz-adv-x="1542" d="M86 -4h336v276h-336v-276zM573 -4h336v276h-336v-276zM1067 -4h336v276h-336v-276z" />
<glyph unicode="&#x202f;" horiz-adv-x="316" />
<glyph unicode="&#x2039;" horiz-adv-x="675" d="M33 397l217 -397h368l-165 397l165 400h-368z" />
<glyph unicode="&#x203a;" horiz-adv-x="675" d="M33 0l166 397l-166 400h368l217 -400l-217 -397h-368z" />
<glyph unicode="&#x205f;" horiz-adv-x="395" />
<glyph unicode="&#x2122;" horiz-adv-x="1781" d="M35 850h153v100q4 23 39 23q12 0 15 -2v-121q0 -14 -39 -47q31 -14 37 -41q2 -6 2 -60q0 -63 -6 -69q-12 -14 -89 -15v-86h388v86q-74 -6 -91 19q-4 12 -4 65v56q8 39 41 45q-41 25 -41 45v127h23q29 0 29 -33v-92h155v215h-612v-215zM721 537h237v88q-55 -4 -55 26v260 l113 -374h129l119 360v-248q0 -29 -56 -24v-88h334v88q-61 -10 -74 18q-4 12 -4 64v55q6 29 39 47q-39 20 -39 94q0 49 4 62q13 20 74 18v84h-344q-23 -100 -41 -171t-31 -112q-6 6 -4 7q-10 55 -24.5 123.5t-30.5 154.5h-346v-86q59 4 70 -16q4 -12 4 -62q0 -45 -2 -49 q-6 -29 -37 -47q39 -20 39 -102q0 -51 -4 -64q-14 -27 -70 -18v-88z" />
<glyph unicode="&#x25fc;" horiz-adv-x="768" d="M0 0v768h768v-768h-768z" />
</font>
</defs>
</svg>
